<svg width="128" height="132" viewBox="0 0 128 132" fill="none" xmlns="http://www.w3.org/2000/svg">
<g opacity="0.1">
<mask id="path-1-inside-1_70_11476" fill="white">
<path fill-rule="evenodd" clip-rule="evenodd" d="M0.947266 6.51152C0.947266 3.27475 3.57431 0.647705 6.81108 0.647705H122.136C125.373 0.647705 128 3.27475 128 6.51152V94.4687C128 97.7055 125.373 100.332 122.136 100.332H40.9034L10.9572 130.282C9.83531 131.404 8.33713 132 6.81108 132C6.05153 132 5.29548 131.854 4.56729 131.554C2.37576 130.648 0.947266 128.509 0.947266 126.136V6.51152ZM48.234 85.4831H80.7097C99.8934 85.4831 115.506 69.8706 115.506 50.687C115.506 31.5033 99.8934 15.8908 80.7097 15.8908H48.234C29.0504 15.8908 13.4379 31.5033 13.4379 50.687C13.4379 69.8706 29.0504 85.4831 48.234 85.4831ZM48.2343 29.8099H80.71C92.2181 29.8099 101.587 39.1788 101.587 50.6869C101.587 62.195 92.2216 71.5639 80.71 71.5639H48.2343C36.7262 71.5639 27.3573 62.195 27.3573 50.6869C27.3573 39.1788 36.7227 29.8099 48.2343 29.8099ZM41.2765 50.6939C41.2765 54.5334 44.3913 57.6517 48.2343 57.6517C52.0738 57.6517 55.1922 54.5369 55.1922 50.6939C55.1922 46.8508 52.0738 43.736 48.2343 43.736C44.3948 43.736 41.2765 46.8543 41.2765 50.6939ZM73.7522 50.6939C73.7522 54.5334 76.867 57.6517 80.71 57.6517C84.5495 57.6517 87.6678 54.5369 87.6678 50.6939C87.6678 46.8508 84.5495 43.736 80.71 43.736C76.8705 43.736 73.7522 46.8543 73.7522 50.6939Z"/>
</mask>
<path d="M40.9034 100.332V97.3325H39.6607L38.782 98.2113L40.9034 100.332ZM10.9572 130.282L13.0785 132.403L13.0787 132.403L10.9572 130.282ZM4.56729 131.554L3.42126 134.326L3.42571 134.328L4.56729 131.554ZM6.81108 -2.35229C1.91746 -2.35229 -2.05273 1.61789 -2.05273 6.51152H3.94727C3.94727 4.9316 5.23116 3.64771 6.81108 3.64771V-2.35229ZM122.136 -2.35229H6.81108V3.64771H122.136V-2.35229ZM131 6.51152C131 1.61789 127.03 -2.35229 122.136 -2.35229V3.64771C123.716 3.64771 125 4.93161 125 6.51152H131ZM131 94.4687V6.51152H125V94.4687H131ZM122.136 103.332C127.03 103.332 131 99.3623 131 94.4687H125C125 96.0486 123.716 97.3325 122.136 97.3325V103.332ZM40.9034 103.332H122.136V97.3325H40.9034V103.332ZM13.0787 132.403L43.0249 102.454L38.782 98.2113L8.83576 128.161L13.0787 132.403ZM6.81108 135C9.11665 135 11.3827 134.099 13.0785 132.403L8.83588 128.161C8.2879 128.709 7.55762 129 6.81108 129V135ZM3.42571 134.328C4.51697 134.777 5.66093 135 6.81108 135V129C6.44214 129 6.07398 128.93 5.70887 128.78L3.42571 134.328ZM-2.05273 126.136C-2.05273 129.721 0.105623 132.956 3.42127 134.326L5.71331 128.781C4.6459 128.34 3.94727 127.297 3.94727 126.136H-2.05273ZM-2.05273 6.51152V126.136H3.94727V6.51152H-2.05273ZM80.7097 82.4831H48.234V88.4831H80.7097V82.4831ZM112.506 50.687C112.506 68.2138 98.2366 82.4831 80.7097 82.4831V88.4831C101.55 88.4831 118.506 71.5275 118.506 50.687H112.506ZM80.7097 18.8908C98.2366 18.8908 112.506 33.1601 112.506 50.687H118.506C118.506 29.8464 101.55 12.8908 80.7097 12.8908V18.8908ZM48.234 18.8908H80.7097V12.8908H48.234V18.8908ZM16.4379 50.687C16.4379 33.1601 30.7072 18.8908 48.234 18.8908V12.8908C27.3935 12.8908 10.4379 29.8464 10.4379 50.687H16.4379ZM48.234 82.4831C30.7072 82.4831 16.4379 68.2138 16.4379 50.687H10.4379C10.4379 71.5275 27.3935 88.4831 48.234 88.4831V82.4831ZM80.71 26.8099H48.2343V32.8099H80.71V26.8099ZM104.587 50.6869C104.587 37.5219 93.875 26.8099 80.71 26.8099V32.8099C90.5613 32.8099 98.587 40.8356 98.587 50.6869H104.587ZM80.71 74.5639C93.8788 74.5639 104.587 63.8515 104.587 50.6869H98.587C98.587 60.5385 90.5644 68.5639 80.71 68.5639V74.5639ZM48.2343 74.5639H80.71V68.5639H48.2343V74.5639ZM24.3573 50.6869C24.3573 63.8519 35.0693 74.5639 48.2343 74.5639V68.5639C38.3831 68.5639 30.3573 60.5382 30.3573 50.6869H24.3573ZM48.2343 26.8099C35.0655 26.8099 24.3573 37.5222 24.3573 50.6869H30.3573C30.3573 40.8353 38.3799 32.8099 48.2343 32.8099V26.8099ZM48.2343 54.6517C46.0491 54.6517 44.2765 52.8775 44.2765 50.6939H38.2765C38.2765 56.1893 42.7335 60.6517 48.2343 60.6517V54.6517ZM52.1922 50.6939C52.1922 52.879 50.418 54.6517 48.2343 54.6517V60.6517C53.7297 60.6517 58.1922 56.1947 58.1922 50.6939H52.1922ZM48.2343 46.736C50.418 46.736 52.1922 48.5087 52.1922 50.6939H58.1922C58.1922 45.193 53.7297 40.736 48.2343 40.736V46.736ZM44.2765 50.6939C44.2765 48.5112 46.0516 46.736 48.2343 46.736V40.736C42.7379 40.736 38.2765 45.1975 38.2765 50.6939H44.2765ZM80.71 54.6517C78.5248 54.6517 76.7522 52.8775 76.7522 50.6939H70.7522C70.7522 56.1893 75.2092 60.6517 80.71 60.6517V54.6517ZM84.6678 50.6939C84.6678 52.879 82.8937 54.6517 80.71 54.6517V60.6517C86.2054 60.6517 90.6678 56.1947 90.6678 50.6939H84.6678ZM80.71 46.736C82.8937 46.736 84.6678 48.5087 84.6678 50.6939H90.6678C90.6678 45.193 86.2054 40.736 80.71 40.736V46.736ZM76.7522 50.6939C76.7522 48.5112 78.5273 46.736 80.71 46.736V40.736C75.2136 40.736 70.7522 45.1975 70.7522 50.6939H76.7522Z" fill="#22B573" mask="url(#path-1-inside-1_70_11476)"/>
</g>
</svg>
