<svg width="278" height="383" viewBox="0 0 278 383" fill="none" xmlns="http://www.w3.org/2000/svg">
<g clip-path="url(#clip0_487_4502)">
<path d="M166.677 166.625C167.088 166.471 167.177 166.052 167.384 165.741C168.25 164.471 169.299 163.795 171.287 164.368C172.627 164.753 173.903 165.291 175.026 166.101C177.781 168.081 180.921 169.316 183.929 170.812C186.129 171.904 188.301 173.084 190.304 174.496C192.421 175.993 193.331 178.136 192.747 180.724C192.124 183.48 190.996 186.053 189.527 188.458C188.553 190.058 186.936 191.006 185.378 191.9C181.737 193.994 177.791 195.179 173.572 195.406C171.603 195.515 169.679 195.159 167.795 194.759C165.935 194.369 164.061 194.063 162.211 193.653C158.843 192.907 155.524 191.964 152.235 190.892C148.456 189.663 144.782 188.137 140.968 187.035C136.833 185.84 132.664 184.709 128.381 184.043C128.045 184.62 128.544 184.976 128.688 185.366C129.504 187.628 130.102 189.979 131.408 192.043C131.897 192.813 132.432 193.524 133.159 194.092C135.745 196.097 137.729 198.646 139.588 201.303C141.067 203.411 142.576 205.486 144.203 207.491C146.27 210.039 148.466 212.464 150.633 214.923C150.885 215.209 151.033 215.585 151.211 215.93C151.508 216.503 151.785 217.081 152.245 217.516C152.532 217.506 152.655 217.308 152.814 217.17C155.435 214.893 158.432 213.432 161.84 212.656C166.272 211.644 170.758 210.992 175.258 210.488C178.636 210.108 182.049 210.039 185.467 210.325C186.787 210.439 188.123 210.493 189.448 210.572C191.491 210.696 193.454 211.219 195.443 211.56C196.907 211.812 198.42 212.078 199.79 212.755C200.235 212.977 200.675 212.987 201.165 212.943C204.687 212.617 208.208 212.306 211.754 212.681C213.1 212.824 214.39 213.19 215.612 213.698C216.408 214.029 217.234 214.592 217.462 215.555C217.61 216.197 217.917 216.296 218.476 216.113C219.955 215.619 221.503 215.437 223.011 215.086C225.108 214.597 227.22 214.701 229.317 214.967C231.627 215.259 233.145 217.135 233.111 219.461C233.086 221.096 232.453 222.494 231.424 223.704C230.361 224.963 229.426 226.301 228.63 227.743C227.2 230.331 225.296 232.568 223.397 234.805C222.774 235.536 221.898 235.936 221.127 236.415C221.151 236.865 221.478 236.954 221.725 237.092C223.491 238.075 224.95 239.388 226.147 241.008C226.374 241.319 226.651 241.601 226.928 241.872C229.065 243.991 230.049 246.682 230.727 249.527C230.895 250.238 231.088 250.944 231.281 251.646C231.736 253.27 231.953 254.93 232.023 256.614C232.102 258.397 232.656 260.081 233.096 261.789C233.175 262.1 233.447 262.273 233.625 262.51C235.341 264.782 237.611 266.441 239.862 268.12C241.459 269.311 242.963 270.6 244.457 271.908C248.542 275.494 252.514 279.217 256.856 282.501C260.674 285.395 264.567 288.186 268.514 290.907C271.006 292.625 273.667 294.048 276.204 295.682C276.565 295.914 276.931 296.146 277.278 296.408C278.029 296.981 278.163 297.401 277.861 298.166C277.609 298.813 277.006 299.189 276.219 299.149C274.869 299.085 273.573 298.754 272.287 298.364C269.211 297.425 266.258 296.181 263.637 294.324C260.828 292.334 257.914 290.482 255.348 288.141C253.468 286.427 251.475 284.837 249.694 283.01C246.618 279.859 243.675 276.59 240.802 273.252C238.863 270.995 237.087 268.6 234.936 266.535C234.594 266.209 234.268 265.859 233.897 265.567C232.7 264.614 232.601 264.619 231.543 265.73C230.613 266.708 229.421 267.197 228.175 267.572C226.013 268.214 223.822 268.066 221.626 267.785C221.112 267.72 220.598 267.587 220.088 267.592C218.703 267.597 217.739 266.797 216.819 265.943C216.166 265.335 216.151 264.876 216.626 264.101C218.055 261.755 220.207 260.57 222.887 260.249C224.9 260.007 226.844 260.357 228.763 260.935C229.287 261.093 229.802 261.261 230.573 261.503C229.584 260.16 228.842 259.004 227.977 257.922C225.88 255.29 223.827 252.633 221.953 249.828C220.701 247.957 219.648 245.986 218.5 244.065C217.219 241.922 215.755 239.882 214.173 237.936C213.466 237.067 212.763 236.193 212.066 235.314C211.077 234.065 209.756 233.245 208.366 232.539C206.902 231.793 205.611 232.553 204.325 233.146C203.959 233.314 204.029 233.64 204.202 233.921C205.008 235.27 205.399 236.786 205.903 238.243C207.105 241.719 208.06 245.255 207.545 249.004C207.461 249.601 207.436 250.213 207.179 250.772C206.892 251.384 206.462 251.502 205.963 251.033C204.766 249.912 203.638 248.821 203.638 246.924C203.638 243.329 202.589 239.857 202.115 236.317C201.971 235.255 201.679 234.188 202.347 233.186C202.525 232.919 202.367 232.687 202.238 232.469C201.768 231.645 201.318 230.81 200.809 230.01C200.433 229.422 199.894 228.934 199.291 228.617C196.837 227.329 194.246 226.598 191.436 226.933C190.536 227.042 189.799 227.432 189.305 228.232C189.023 228.687 188.879 229.151 188.889 229.699C188.909 230.524 189.057 231.329 189.235 232.129C190.047 235.749 190.586 239.413 190.952 243.102C191.11 244.687 191.422 246.258 191.639 247.838C191.891 249.636 191.961 251.443 191.961 253.256C191.961 254.125 191.773 255.029 190.887 255.266C190.057 255.488 189.453 254.777 189.052 254.1C188.34 252.895 187.91 251.577 187.925 250.169C187.94 248.786 187.89 247.418 187.781 246.036C187.475 242.124 187.232 238.208 186.985 234.292C186.906 232.998 186.96 231.714 187.341 230.45C187.915 228.553 186.703 226.37 184.725 226C182.524 225.59 180.293 225.358 178.033 225.857C176.119 226.282 174.858 227.353 174.23 229.161C173.73 230.598 173.409 232.099 173.71 233.61C173.908 234.613 174.393 235.556 174.699 236.539C175.788 239.991 177.355 243.275 178.176 246.816C178.646 248.831 179.062 250.86 179.121 252.94C179.146 253.893 178.894 254.737 178.206 255.409C177.721 255.883 177.474 255.878 177.044 255.354C176.277 254.411 175.664 253.384 175.323 252.194C174.729 250.12 174.254 248.021 173.859 245.897C173.399 243.443 172.771 241.018 172.528 238.519C172.419 237.398 172.409 236.277 172.39 235.161C172.375 234.455 172.256 233.788 171.95 233.161C171.138 231.502 170.545 229.724 169.323 228.282C167.736 226.4 166.237 226.099 164.066 227.254C162.839 227.906 161.741 228.711 160.811 229.778C159.956 230.756 159.619 231.818 159.669 233.097C159.763 235.561 160.208 237.976 160.554 240.406C161.321 245.848 162.755 251.122 164.451 256.332C164.946 257.843 165.54 259.32 166.069 260.821C166.326 261.542 166.771 262.086 167.394 262.52C170.362 264.589 172.869 267.128 174.967 270.061C175.768 271.182 176.49 272.363 176.772 273.745C176.861 274.17 176.965 274.59 176.782 275.015C176.485 275.706 176.129 276.407 175.333 276.546C174.452 276.699 173.73 276.249 173.211 275.558C171.92 273.829 170.634 272.096 169.397 270.328C168.507 269.054 167.721 267.715 166.86 266.422C166.237 265.478 165.772 264.451 165.421 263.389C165.188 262.678 164.763 262.214 164.194 261.794C162.448 260.51 160.574 259.439 158.704 258.367C156.835 257.295 154.945 256.258 153.096 255.152C152.067 254.54 151.063 254.648 149.94 254.994C150.84 256.93 151.839 258.713 153.041 260.407C155.267 263.542 157.775 266.441 160.336 269.296C162.409 271.607 164.61 273.785 166.929 275.859C168.344 277.123 169.872 278.244 171.341 279.435C171.9 279.889 172.592 280.195 173.245 280.526C174.408 281.114 175.511 281.82 176.48 282.664C178.201 284.161 180.239 285.114 182.202 286.171C186.382 288.423 190.418 290.867 194.063 293.924C194.661 294.423 195.319 295.001 196.15 294.645C196.961 294.299 197.292 293.529 197.357 292.655C197.589 289.509 199.152 286.842 200.453 284.082C201.442 281.983 202.906 280.24 204.672 278.733C205.606 277.938 206.67 277.346 207.802 276.96C210.063 276.195 212.392 275.75 214.801 275.859C215.019 275.869 215.231 275.869 215.449 275.889C216.458 275.978 216.562 276.215 215.983 277.094C215.375 278.022 214.544 278.738 213.55 279.158C212.214 279.721 211.067 280.541 209.919 281.385C207.021 283.509 204.256 285.771 201.852 288.452C200.665 289.776 199.785 291.317 198.746 292.744C198.376 293.257 198.336 293.845 198.366 294.472C198.469 296.803 199.231 298.951 200.166 301.045C200.957 302.813 201.759 304.576 202.708 306.27C203.45 307.589 204.316 308.819 205.122 310.093C207.985 314.621 211.309 318.809 214.677 322.962C216.28 324.938 217.882 326.918 219.465 328.908C221.453 331.407 223.733 333.654 225.726 336.158C228.946 340.208 232.463 344.005 235.747 348.006C238.467 351.314 240.752 354.915 243.299 358.337C244.798 360.352 246.163 362.451 247.286 364.683C248.893 367.883 250.194 371.202 250.96 374.728C251.366 376.58 251.945 378.387 251.801 380.323C251.742 381.143 251.648 381.953 251.396 382.738C251.346 382.891 251.208 383.029 251.005 383C250.782 382.965 250.758 382.787 250.753 382.615C250.748 382.486 250.753 382.353 250.782 382.229C251.193 380.18 250.827 378.2 250.238 376.234C249.818 374.831 249.546 373.394 249.101 371.987C247.939 368.293 246.198 364.88 244.066 361.68C241.84 358.342 239.59 355.008 237.117 351.853C234.723 348.801 232.265 345.783 229.653 342.904C227.913 340.988 226.3 338.958 224.633 336.973C222.106 333.965 219.396 331.116 216.938 328.049C211.912 321.787 206.729 315.639 202.614 308.71C200.567 305.258 198.796 301.653 197.737 297.746C197.525 296.961 197.678 296.102 197.223 295.381C197.159 295.381 197.104 295.371 197.075 295.396C195.265 296.69 195.086 296.719 193.395 295.317C189.517 292.102 185.254 289.484 180.803 287.173C178.76 286.111 176.915 284.778 175.021 283.489C172.741 281.938 170.218 280.768 168.072 278.99C165.104 276.536 162.236 273.992 159.703 271.084C158.007 269.133 156.202 267.281 154.589 265.251C152.324 262.407 150.281 259.419 148.723 256.13C148.328 255.295 147.853 254.95 146.849 254.964C145.425 254.984 144.005 255.122 142.581 255.167C139.831 255.251 137.16 254.668 134.474 254.303C131.69 253.922 128.885 253.735 126.101 253.384C122.421 252.92 118.712 252.683 115.096 251.769C112.01 250.989 109.211 249.596 106.49 247.962C103.29 246.036 100.471 243.63 97.5629 241.334C95.0257 239.329 92.4587 237.359 89.971 235.294C87.8788 233.561 85.8263 231.773 83.8529 229.916C81.4392 227.645 79.1097 225.284 76.7604 222.948C73.9462 220.148 71.2408 217.244 68.7184 214.177C65.7063 210.518 62.7338 206.824 59.7811 203.12C58.2775 201.233 56.9471 199.204 55.3743 197.377C53.663 195.386 52.0655 193.302 50.2652 191.386C46.986 187.895 44.0234 184.141 41.1647 180.304C39.122 177.563 37.3563 174.669 35.828 171.627C34.918 169.82 34.1217 167.953 33.2809 166.111C33.1919 165.918 33.1127 165.706 33.083 165.499C32.7962 163.454 31.6388 161.844 30.5013 160.214C27.5881 156.027 25.0756 151.597 22.5334 147.187C20.7479 144.085 18.819 141.063 17.1424 137.892C14.9266 133.7 12.7306 129.492 10.7226 125.191C8.93214 121.363 7.00324 117.6 5.4799 113.649C3.81312 109.338 2.453 104.943 1.42919 100.439C0.336144 95.7374 -0.079313 90.9717 0.00971349 86.1715C0.09874 81.475 0.197658 76.7686 0.899978 72.1067C1.44403 68.5016 2.46289 65.0397 3.9615 61.7161C4.69844 60.0814 5.79643 58.6987 7.02797 57.4196C7.63631 56.7875 8.39304 56.3677 9.24374 56.1257C10.3813 55.7998 11.0193 56.1652 11.143 57.3455C11.2963 58.8024 11.3952 60.2691 11.4397 61.7358C11.5139 64.4075 11.5535 67.0842 11.5634 69.7559C11.5832 75.0154 11.4199 80.2799 12.2558 85.5048C12.9878 90.063 13.8632 94.5916 15.4954 98.9326C16.1482 100.676 16.9643 102.33 18.4085 103.59C18.9229 104.039 19.4026 104.681 20.1792 104.444C21.02 104.187 21.0991 103.367 21.1683 102.632C21.381 100.384 21.1189 98.1523 20.8172 95.9349C20.5303 93.7965 20.3523 91.6483 20.1693 89.5C19.7785 84.9023 19.5065 80.2947 19.3878 75.6821C19.2741 71.3214 19.3779 66.9657 20.1594 62.6593C20.288 61.9383 20.4907 61.2272 20.7183 60.5358C20.8518 60.1358 21.0645 59.7357 21.3217 59.3999C22.207 58.2394 23.4237 58.2739 24.3436 59.4049C25.7878 61.1827 27.0342 63.1038 28.3943 64.9409C29.6803 66.6793 31.0997 68.304 32.6626 69.8004C33.1622 70.2794 33.6864 70.7239 34.3096 71.0498C36.1594 72.0128 38.0042 71.193 38.5137 69.1584C38.7016 68.4077 38.8005 67.6373 38.8005 66.8521C38.8005 64.4717 38.5384 62.1112 38.2416 59.7604C37.6926 55.3948 36.9161 51.0637 36.0061 46.7574C35.007 42.0312 33.9535 37.3199 33.0435 32.574C31.7526 25.8428 30.4419 19.1117 29.9374 12.257C29.6704 8.64701 29.2302 5.04684 28.8395 1.44174C28.7702 0.78986 28.8642 0.340457 29.5517 0.147856C29.8435 0.0688402 30.1402 -0.0793146 30.4221 0.108348C30.8228 0.370088 30.3826 0.636767 30.3925 0.903446C30.4469 2.32573 30.4271 3.75296 30.5408 5.17031C30.892 9.64458 31.164 14.1238 31.7328 18.5734C31.99 20.5833 32.3609 22.5785 32.6429 24.5885C33.5381 30.9937 35.2395 37.231 36.5155 43.5572C37.4948 48.4216 38.4939 53.2811 39.1764 58.1999C39.5226 60.7185 39.7699 63.2519 40.0172 65.7854C40.1161 66.7731 40.0469 67.7805 39.7798 68.7386C39.2803 70.5362 38.1031 71.7116 36.3325 72.2844C35.373 72.5956 34.4333 72.4622 33.5974 71.9091C32.9545 71.4844 32.3115 71.0251 31.7575 70.4868C29.794 68.5954 27.9739 66.5805 26.4555 64.3038C25.501 62.8667 24.403 61.5333 23.2901 60.2098C22.5928 59.3802 22.2861 59.4345 21.9003 60.4716C21.3068 62.0568 20.9952 63.7162 20.8518 65.3952C20.2979 71.8647 20.5402 78.3242 20.9557 84.7937C21.287 89.9198 22.0042 95.0015 22.4741 100.113C22.5482 100.938 22.4691 101.752 22.4246 102.567C22.3504 103.916 21.564 104.77 20.4067 105.353C19.5411 105.792 18.6904 105.698 17.9485 105.175C17.177 104.632 16.4697 103.985 16.0097 103.12C15.0403 101.283 14.2787 99.3721 13.6555 97.3868C12.5723 93.9644 11.9096 90.4532 11.3457 86.9271C10.7918 83.485 10.1983 80.0231 10.3368 76.5118C10.5 72.2005 10.2824 67.8941 10.3022 63.5878C10.3121 61.6864 9.99057 59.8049 9.78284 57.9233C9.68392 56.9899 9.37233 56.8763 8.61066 57.469C7.26042 58.5159 6.15254 59.8049 5.47495 61.3704C3.80818 65.2076 2.48762 69.1238 1.98808 73.3462C1.51327 77.3464 1.52316 81.3466 1.28576 85.3468C1.06319 89.1148 1.32038 92.8533 1.93367 96.5572C3.07618 103.436 5.06444 110.079 7.96274 116.43C9.66414 120.158 11.326 123.907 13.1411 127.576C14.9167 131.171 16.7813 134.722 18.7448 138.223C21.9547 143.942 25.3229 149.567 28.6911 155.192C29.4824 156.51 30.3628 157.79 31.4459 158.906C31.9109 158.639 31.7476 158.259 31.7526 157.948C31.8021 154.471 32.3016 151.068 33.6073 147.829C34.9081 144.594 36.7628 141.685 39.1665 139.166C40.2497 138.031 41.6395 137.305 43.1529 136.84C43.3557 136.776 43.5535 136.643 43.7613 136.791C44.0284 136.984 43.9542 137.26 43.8651 137.497C43.5041 138.47 42.9056 139.329 42.4457 140.253C40.7987 143.522 38.9489 146.703 38.0982 150.318C37.8608 151.335 37.8905 152.372 37.8014 153.404C37.7817 153.621 37.8361 153.834 38.1031 154.007C38.4691 153.696 38.5334 153.216 38.662 152.797C39.6512 149.621 40.8679 146.53 42.2627 143.517C43.3013 141.275 44.8296 139.315 46.3974 137.428C49.1078 134.169 52.11 131.186 55.5474 128.682C57.6098 127.176 59.9047 126.05 62.1947 124.934C63.3966 124.351 64.6627 123.897 65.8398 123.26C66.7697 122.756 67.7786 122.534 68.7975 122.39C70.8006 122.114 72.7839 121.521 74.8266 121.822C77.0324 122.148 79.3076 122.247 81.2958 123.477C81.8053 123.793 82.4037 123.941 83.0219 123.995C83.2791 124.02 83.5314 124.144 83.5512 124.47C83.5709 124.815 83.4127 125.067 83.0813 125.156C82.2504 125.388 81.4195 125.605 80.6133 125.936C79.0504 126.578 77.5369 127.314 76.0878 128.168C73.0312 129.966 70.9193 132.682 68.9607 135.561C70.2763 134.574 71.587 133.586 72.9521 132.677C75.4695 131.003 77.9969 129.354 80.8853 128.356C81.3354 128.203 81.7855 128.04 82.2454 127.941C84.8569 127.393 87.4387 126.687 90.149 126.761C92.6319 126.83 95.0257 127.363 97.3997 128.025C99.8529 128.707 102.281 129.467 104.68 130.307C106.401 130.909 107.638 132.213 109.013 133.3C111.352 135.137 113.627 137.048 116.046 138.791C116.847 139.369 117.53 140.115 118.341 140.683C122.02 143.265 125.972 145.374 130.117 147.113C131.462 147.676 132.887 148.066 134.272 148.535C134.974 148.772 135.617 149.137 136.181 149.611C136.997 150.288 137.051 150.851 136.423 151.735C134.821 153.982 133.178 156.209 131.932 158.683C131.784 158.98 131.517 159.256 131.635 159.637C131.284 159.75 131.21 160.007 131.161 160.422C131.507 160.145 131.665 159.928 131.611 159.612C131.962 159.543 132.036 159.222 132.184 158.975C133.737 156.402 135.849 154.402 138.56 153.133C140.083 152.421 141.715 152.1 143.441 152.718C145.479 153.449 147.442 154.288 149.253 155.483C151.454 156.94 153.986 157.735 156.335 158.896C158.66 160.046 161.177 160.674 163.596 161.572C164.63 161.958 165.48 162.605 166.346 163.237C166.929 163.666 167.033 164.313 166.959 164.975C166.895 165.523 166.741 166.066 166.628 166.61C165.51 167.622 164.753 168.946 163.695 170.012C162.374 171.346 161.405 172.921 160.5 174.541C159.867 175.672 159.323 176.852 159.347 178.195C159.357 178.793 159.387 179.405 159.99 179.751C160.238 179.628 160.337 179.455 160.376 179.228C160.895 176.22 162.404 173.687 164.189 171.277C165.243 169.854 166.079 168.309 166.657 166.629L166.677 166.625ZM133.703 196.497C133.342 198.216 132.387 199.12 130.809 199.416C129.924 199.584 129.281 200.206 128.688 200.838C127.352 202.256 126.056 203.698 125.586 205.683C125.443 206.3 125.127 206.893 124.533 207.268C124.043 207.579 123.564 207.604 123.084 207.268C122.589 206.918 122.485 206.463 122.693 205.905C124.068 202.206 126.101 199.13 130.191 197.989C130.819 197.816 130.844 197.653 130.389 197.105C130.166 196.838 129.919 196.596 129.697 196.335C128.91 195.411 128.178 194.443 127.763 193.292C127.59 192.813 127.402 192.315 127.886 191.855C128.327 191.44 128.767 191.366 129.281 191.692C129.38 191.757 129.533 191.766 129.647 191.638C129.692 191.381 129.543 191.169 129.444 190.942C128.549 188.843 127.837 186.675 126.764 184.64C126.343 183.845 125.878 183.341 125.092 183.252C122.777 183.001 120.472 182.522 118.128 182.65C113.904 182.887 109.774 182.512 105.729 181.178C103.923 180.586 102.326 179.712 100.882 178.521C100.174 177.939 100.184 177.608 100.738 176.877C101.52 175.85 102.524 175.415 103.8 175.731C104.636 175.943 105.457 176.215 106.297 176.413C106.743 176.516 107.168 176.818 107.667 176.64C107.628 176.556 107.618 176.452 107.559 176.408C107.321 176.225 107.069 176.057 106.817 175.884C103.34 173.529 100.08 170.911 97.1277 167.918C96.46 167.242 95.8516 166.501 95.1493 165.869C93.1264 164.057 91.8009 161.721 90.3221 159.498C90.0699 159.118 90.1144 158.777 90.4557 158.461C90.7771 158.165 91.1085 158.056 91.4992 158.313C91.6081 158.382 91.7119 158.456 91.8207 158.525C93.6458 159.671 95.456 160.837 97.2959 161.958C99.5462 163.326 101.752 164.748 103.81 166.397C106.233 168.338 108.607 170.358 111.154 172.126C115.334 175.025 119.454 178.008 123.554 181.015C124.34 181.593 125.171 182.003 126.106 182.205C127.792 182.571 129.454 183.02 131.146 183.376C137.021 184.601 142.788 186.196 148.427 188.28C151.622 189.46 154.896 190.413 158.19 191.317C161.573 192.25 165.03 192.784 168.453 193.475C170.461 193.885 172.513 194.087 174.61 193.831C178.711 193.322 182.509 192.078 185.986 189.831C187.885 188.606 189.414 187.085 190.274 184.966C190.714 183.889 191.13 182.798 191.61 181.736C192.574 179.578 191.995 177.79 190.348 176.25C188.429 174.447 186.006 173.464 183.731 172.235C183.642 172.185 183.582 172.245 183.587 172.412C183.963 172.694 184.344 173.059 184.794 173.287C186.11 173.953 187.025 175.025 187.94 176.126C188.637 176.966 188.983 177.914 189.028 178.971C189.087 180.413 188.815 181.786 188.197 183.114C187.247 185.159 185.61 186.512 183.795 187.727C183.315 188.048 182.821 188.265 182.247 188.329C179.591 188.64 176.94 189.026 174.244 188.932C172.963 188.887 171.781 188.556 170.609 188.082C168.566 187.258 166.618 186.27 164.728 185.114C163.586 184.413 162.661 183.578 161.875 182.546C161.613 182.205 161.37 181.845 161.138 181.484C160.96 181.213 160.752 181.079 160.396 181.079C159.06 181.079 158.749 180.803 158.625 179.504C158.521 178.378 158.665 177.272 159.046 176.19C159.921 173.721 161.276 171.533 162.938 169.518C163.843 168.422 164.783 167.35 165.658 166.229C166.425 165.242 166.326 164.718 165.347 163.943C164.308 163.118 163.067 162.693 161.83 162.343C159.288 161.617 156.835 160.669 154.471 159.513C152.685 158.639 150.771 158.032 149.104 156.94C147.393 155.824 145.603 154.92 143.674 154.234C142.521 153.824 141.443 153.76 140.256 154.002C138.134 154.426 136.408 155.528 134.914 156.994C131.897 159.958 130.201 163.76 128.445 167.509C127.956 168.555 127.614 169.676 127.184 170.753C127.09 170.98 126.912 171.247 126.6 171.099C126.383 170.995 126.398 170.723 126.442 170.521C126.754 169.183 126.778 167.775 127.313 166.486C128.702 163.138 130.354 159.918 132.155 156.767C133.144 155.039 134.385 153.483 135.454 151.809C135.909 151.098 135.829 150.762 135.127 150.357C134.865 150.209 134.568 150.135 134.291 150.006C133.03 149.419 131.63 149.285 130.349 148.752C127.555 147.587 124.825 146.303 122.238 144.727C120.655 143.764 118.905 143.073 117.455 141.888C116.753 141.315 116.066 140.722 115.353 140.164C112.643 138.031 109.883 135.952 107.222 133.759C106.07 132.811 104.898 131.996 103.473 131.546C101.95 131.067 100.451 130.514 98.9181 130.08C97.009 129.536 95.0949 128.998 93.1512 128.613C88.9224 127.768 84.7975 128.549 80.7567 129.744C77.7793 130.623 75.242 132.391 72.6998 134.109C71.5177 134.905 70.3406 135.7 69.2921 136.682C66.0129 139.749 63.3966 143.315 61.161 147.187C60.9681 147.522 60.7604 147.848 60.5279 148.159C60.3746 148.367 60.1471 148.574 59.8751 148.397C59.6772 148.268 59.7267 148.011 59.8058 147.804C59.8701 147.646 59.9641 147.493 60.0135 147.33C60.4933 145.779 61.4726 144.5 62.2986 143.142C63.4015 141.33 64.8704 139.784 66.0575 138.036C67.4126 136.031 68.8519 134.095 70.3802 132.218C72.3338 129.818 74.5595 127.759 77.3885 126.386C78.4964 125.847 79.6192 125.314 80.6726 124.771C80.6578 124.608 80.6677 124.549 80.6479 124.529C80.5144 124.42 80.3808 124.316 80.2374 124.223C79.0009 123.427 77.5666 123.314 76.1817 122.983C72.6504 122.134 69.2772 122.889 66.0377 124.099C63.2581 125.136 60.5823 126.489 57.9907 127.971C56.9421 128.568 55.8837 129.151 54.944 129.927C51.5363 132.742 48.4352 135.848 45.794 139.399C44.6614 140.925 43.5585 142.48 42.8512 144.248C41.5851 147.409 40.1804 150.515 39.2061 153.789C38.9687 154.58 38.5334 155.281 38.0389 155.943C37.8064 156.254 37.564 156.629 37.109 156.506C36.6936 156.387 36.7776 155.952 36.7133 155.631C36.6985 155.547 36.6936 155.459 36.6886 155.375C36.5353 152.574 36.926 149.888 38.0933 147.3C39.2457 144.742 40.4623 142.218 41.7928 139.749C42.0896 139.196 42.3616 138.633 42.688 138.001C41.2735 138.199 40.2497 138.752 39.1467 140.12C36.5699 143.31 34.6014 146.826 33.632 150.846C32.9495 153.681 32.811 156.565 32.9594 159.459C33.0385 161.024 33.4787 162.506 34.458 163.79C36.5452 166.536 38.5483 169.346 40.7195 172.022C42.4011 174.092 43.9146 176.289 45.6852 178.299C47.1245 179.934 48.2324 181.87 49.4639 183.687C51.1307 186.151 52.9508 188.522 54.8747 190.769C57.5406 193.88 60.0135 197.139 62.6843 200.236C64.4797 202.32 66.0426 204.606 67.7984 206.725C71.2754 210.908 74.4952 215.293 77.8436 219.57C78.7635 220.745 79.8615 221.699 81.009 222.607C81.642 223.111 82.379 223.486 83.1901 223.694C83.7935 223.847 84.1793 223.694 84.4563 223.146C84.6887 222.686 84.9261 222.232 85.3465 221.891C85.945 221.402 86.2318 221.392 86.771 221.946C86.8897 222.069 87.0034 222.202 87.0974 222.346C88.2597 224.109 89.5011 225.812 90.8167 227.467C92.0829 229.057 92.8 230.998 94.0365 232.618C94.6399 233.403 95.2977 234.154 95.8269 234.983C97.1722 237.097 99.0269 238.707 100.986 240.183C103.607 242.164 106.525 243.685 109.379 245.285C111.258 246.337 113.187 247.32 115.21 248.08C116.006 248.381 116.12 248.337 116.239 247.517C116.432 246.164 117.01 244.969 117.629 243.779C118.103 242.86 118.113 242.86 117.307 242.292C112.777 239.097 108.533 235.556 104.779 231.482C102.356 228.855 99.932 226.207 98.1861 223.042C97.7657 222.281 97.7855 221.955 98.3543 221.318C99.1061 220.479 100.476 220.286 101.688 220.943C103.018 221.659 104.344 222.39 105.6 223.225C110.259 226.321 114.166 230.178 117.188 234.904C118.187 236.465 119.162 238.04 120.176 239.591C120.804 240.549 120.829 240.529 121.941 240.253C122.525 240.109 123.114 239.887 123.727 240.006C125.29 240.307 126.892 240.435 128.371 241.117C129.701 241.729 131.072 242.262 132.387 242.904C136.181 244.761 139.954 246.648 143.733 248.534C144.465 248.9 145.162 249.329 145.899 249.685C147.883 250.638 149.871 251.577 151.869 252.5C153.175 253.107 154.525 253.448 155.999 253.409C157.374 253.374 158.749 253.572 160.129 253.661C160.747 253.7 161.296 254.125 161.993 254.115C161.959 253.824 161.964 253.651 161.914 253.493C160.792 249.823 159.852 246.105 159.253 242.312C158.813 239.502 158.239 236.717 158.145 233.852C158.081 231.847 158.729 230.232 160.134 228.864C160.757 228.262 161.415 227.709 162.152 227.249C162.359 227.116 162.641 227.067 162.706 226.756C162.453 226.375 162.018 226.445 161.657 226.37C160.287 226.099 159.011 225.61 157.779 224.963C156.058 224.064 154.283 223.279 152.784 221.99C152.008 221.318 151.414 221.437 150.667 222.232C150.103 222.83 149.549 223.432 149.01 224.049C147.912 225.304 146.597 226.257 145.133 227.037C144.371 227.442 143.56 227.472 142.749 227.536C142.343 227.566 142.22 227.314 142.279 226.958C142.408 226.163 142.863 225.531 143.352 224.923C145.073 222.77 147.551 221.812 150.004 220.874C151.276 220.385 151.909 219.378 151.211 218.252C150.469 217.047 149.772 215.812 148.803 214.74C147.324 213.115 145.85 211.486 144.455 209.782C142.373 207.249 140.33 204.7 138.426 202.029C137.056 200.103 135.711 198.132 133.683 196.512L133.703 196.497ZM200.354 227.808C200.883 225.027 202.436 223.116 204.785 221.96C207.535 220.612 210.28 219.249 213.129 218.113C214.049 217.748 214.984 217.397 215.884 216.982C216.888 216.518 216.918 216.084 215.993 215.461C215.276 214.977 214.435 214.73 213.604 214.503C210.241 213.575 206.828 213.916 203.425 214.118C201.976 214.202 200.468 214.177 199.276 215.264C199.157 215.372 198.954 215.382 198.796 215.456C196.323 216.592 193.835 217.689 191.392 218.884C189.953 219.585 188.523 220.286 187.01 220.815C184.359 221.738 181.683 222.597 179.081 223.639C177.093 224.435 174.976 224.652 172.963 225.299C172.494 225.452 172.231 225.17 172.325 224.785C172.597 223.654 172.904 222.449 173.933 221.783C175.52 220.75 177.088 219.644 178.864 218.953C181.391 217.975 183.978 217.175 186.619 216.518C189.755 215.743 192.836 214.74 195.937 213.827C196.199 213.748 196.575 213.812 196.654 213.328C194.819 212.691 192.895 212.424 190.991 212.148C185.788 211.387 180.541 211.476 175.337 211.999C170.664 212.469 165.995 213.135 161.395 214.187C158.551 214.834 156.024 216.005 153.783 217.861C153.185 218.355 152.814 218.928 152.611 219.659C152.354 220.568 152.359 220.597 153.274 220.696C154.604 220.839 155.935 221.007 157.196 221.471C158.17 221.827 159.169 222.104 160.188 222.306C161.855 222.637 163.472 223.195 164.877 224.118C165.94 224.82 166.969 225.452 168.225 225.748C169.437 226.035 170.12 227.067 170.802 228.005C171.376 228.785 171.846 229.64 172.424 230.553C172.583 230.148 172.716 229.887 172.795 229.605C173.557 226.845 175.486 225.477 178.186 224.82C180.531 224.252 182.821 224.573 185.13 224.854C186.273 224.993 187.104 225.649 187.692 226.632C187.885 226.953 187.959 227.368 188.345 227.556C190.492 226.069 191.867 225.58 193.721 225.748C196.011 225.956 198.222 226.474 200.349 227.808H200.354ZM216.448 236.445C217.333 235.956 218.115 235.117 219.277 235.744C219.396 235.808 219.623 235.749 219.772 235.684C220.949 235.151 222.2 234.682 223.056 233.665C224.747 231.655 226.503 229.684 227.828 227.393C228.823 225.674 229.876 223.995 231.167 222.479C231.622 221.946 231.943 221.328 232.151 220.671C232.433 219.787 232.453 218.903 231.998 218.039C231.449 217.002 230.643 216.459 229.456 216.296C225.771 215.782 222.235 216.513 218.713 217.452C217.605 217.748 216.596 218.143 215.958 219.185C215.765 219.501 215.429 219.753 215.122 219.985C212.837 221.689 210.434 223.21 207.941 224.588C206.507 225.383 205.043 226.128 203.885 227.333C203.544 227.694 203.074 227.822 202.624 227.961C202.139 228.109 201.64 228.222 200.992 228.39C201.937 229.526 202.54 230.761 203.213 231.951C203.499 232.46 203.801 232.405 204.271 232.168C205.003 231.803 205.775 231.521 206.551 231.255C207.397 230.968 208.238 231.027 209.069 231.403C210.701 232.144 212.021 233.27 213.208 234.598C214.019 235.502 214.568 236.608 215.399 237.472C216.972 239.107 218.095 241.053 219.356 242.895C220.617 244.737 221.572 246.771 222.843 248.628C225.133 251.972 227.576 255.191 230.113 258.347C230.282 258.555 230.381 258.92 230.831 258.806C230.831 258.639 230.831 258.471 230.831 258.308C230.806 255.305 230.074 252.406 229.406 249.512C229.035 247.892 228.541 246.263 227.537 244.865C225.949 242.648 224.262 240.504 222.017 238.929C220.691 237.996 219.297 237.072 217.561 237.008C217.135 236.993 216.705 236.884 216.453 236.45L216.448 236.445ZM175.516 187.5C178.048 187.475 180.511 187.124 182.949 186.581C183.157 186.537 183.355 186.433 183.543 186.329C185.605 185.188 187.183 183.628 187.979 181.346C188.494 179.874 188.296 178.516 187.381 177.311C186.708 176.427 185.922 175.618 185.002 174.946C183.434 173.8 181.861 172.674 180.145 171.751C179.809 171.568 179.482 171.341 179.195 171.089C177.281 169.405 175.046 168.388 172.602 167.681C171.213 167.281 170.223 167.676 169.209 168.526C167.528 169.938 166.682 171.879 165.757 173.775C164.946 175.445 164.095 177.079 163.032 178.605C161.825 180.334 161.865 180.571 163.319 182.171C163.462 182.329 163.626 182.472 163.799 182.601C167.29 185.233 171.079 187.144 175.516 187.495V187.5ZM92.5626 160.644C92.8544 161.187 93.0424 161.572 93.2649 161.938C93.4232 162.19 93.6309 162.412 93.8189 162.649C95.9407 165.326 98.4087 167.667 100.946 169.943C106.001 174.487 111.649 178.057 118.079 180.344C118.4 180.457 118.855 180.492 118.989 180.788C119.355 181.608 120.111 181.529 120.754 181.593C121.432 181.662 122.154 181.889 122.931 181.549C121.348 180.22 119.706 179.188 118.103 178.092C114.933 175.924 111.629 173.953 108.607 171.573C107.183 170.452 105.719 169.375 104.354 168.185C101.272 165.499 97.7509 163.484 94.269 161.405C93.7991 161.123 93.3787 160.728 92.5676 160.644H92.5626ZM99.3385 221.95C99.848 222.839 100.219 223.615 100.709 224.301C102.85 227.324 105.284 230.094 107.93 232.682C110.976 235.665 114.3 238.312 117.762 240.791C118.113 241.043 118.494 241.245 118.855 241.482C119.008 241.586 119.147 241.66 119.305 241.502C119.454 241.354 119.419 241.191 119.345 241.028C119.236 240.791 119.112 240.564 119.003 240.332C118.361 238.959 117.45 237.744 116.654 236.465C112.905 230.435 107.915 225.719 101.628 222.38C100.986 222.039 100.328 221.708 99.3435 221.946L99.3385 221.95ZM123.46 241.275C122.96 241.22 122.545 241.339 122.119 241.418C121.541 241.522 121.452 241.808 121.595 242.337C121.862 243.309 122.406 244.021 123.326 244.46C125.502 245.497 127.718 246.46 129.84 247.601C132.061 248.796 134.4 249.636 136.829 250.233C140.301 251.088 143.802 251.833 147.289 252.614C147.64 252.693 148.145 252.989 148.323 252.5C148.516 251.972 147.878 251.967 147.586 251.833C144.183 250.253 140.85 248.529 137.501 246.86C134.489 245.359 131.472 243.892 128.391 242.539C126.798 241.843 125.136 241.403 123.46 241.275ZM36.1297 168.259C35.8824 168.704 36.0506 168.876 36.1297 169.064C38.2169 173.785 40.9322 178.121 44.2163 182.102C44.518 182.467 44.9285 182.749 45.1709 183.149C46.7634 185.791 49.0682 187.845 51.0466 190.156C52.1792 191.48 53.4206 192.759 54.5829 194.073C55.9925 195.663 57.1845 197.451 58.5644 199.056C60.7505 201.599 62.3925 204.552 64.6973 206.987C65.7706 208.118 66.4432 209.555 67.5462 210.641C68.6244 211.703 69.4701 212.923 70.3752 214.113C72.5514 216.972 75.1629 219.432 77.6853 221.97C77.8386 222.128 78.0266 222.4 78.3827 222.183C64.1928 204.33 49.6865 186.749 36.1248 168.254L36.1297 168.259ZM275.463 297.272C271.496 294.887 267.594 292.448 263.909 289.677C260.219 286.906 256.401 284.309 252.825 281.37C249.294 278.472 246.029 275.257 242.414 272.447C242.429 272.664 242.498 272.822 242.597 272.95C244.442 275.341 246.539 277.518 248.631 279.686C252.375 283.568 256.327 287.218 260.758 290.339C264.3 292.833 267.9 295.174 272.045 296.541C273.143 296.902 274.236 297.292 275.458 297.267L275.463 297.272ZM79.4213 223.185C80.7913 224.765 82.1663 226.326 83.7094 227.738C84.7184 228.662 85.6482 229.655 86.7165 230.529C88.8433 232.267 90.8019 234.193 93.0523 235.798C94.5855 236.889 96.0742 238.075 97.3997 239.438C97.5283 239.571 97.7064 239.877 98.013 239.714C97.3206 238.707 96.366 237.941 95.6093 237.003C93.0918 233.872 91.1382 230.361 88.7988 227.111C87.9184 225.886 87.1073 224.617 86.2269 223.393C85.7274 222.701 85.5839 222.726 85.1437 223.407C85.0745 223.516 85.0152 223.63 84.9459 223.743C84.1298 225.027 83.4275 225.235 81.9981 224.672C81.0683 224.301 80.2869 223.704 79.4164 223.185H79.4213ZM141.938 252.826C141.948 252.791 141.957 252.757 141.967 252.722C140.632 252.431 139.297 252.139 137.961 251.843C135.31 251.251 132.595 250.826 130.191 249.468C127.703 248.065 124.988 247.142 122.53 245.69C122.139 245.458 121.912 245.532 121.773 245.991C121.437 247.107 120.972 248.174 120.369 249.176C120.082 249.65 120.141 249.912 120.739 250.105C124.325 251.265 127.99 252.021 131.749 252.337C134.113 252.535 136.487 252.515 138.846 252.806C139.86 252.93 140.904 252.826 141.938 252.826ZM224.485 261.779C222.373 261.552 220.691 261.942 219.104 262.846C217.477 263.78 217.417 264.436 218.926 265.533C219.381 265.864 219.88 266.071 220.474 266.11C221.547 266.18 222.62 266.278 223.684 266.451C225.885 266.807 227.972 266.427 229.995 265.587C230.385 265.424 230.766 265.187 231.088 264.91C231.666 264.412 231.632 264.17 230.93 263.784C228.828 262.639 226.632 261.799 224.485 261.779ZM198.707 291.302C202.713 285.292 208.223 281.02 214.489 277.247C213.916 277.207 213.584 277.173 213.253 277.168C211.68 277.158 210.186 277.553 208.673 277.933C205.641 278.694 203.485 280.551 201.857 283.124C200.443 285.361 199.587 287.85 198.657 290.304C198.554 290.581 198.435 290.872 198.707 291.302ZM116.535 181.277C114.72 180.457 113.044 179.593 111.248 178.961C108.929 178.151 106.658 177.193 104.294 176.492C103.641 176.299 102.969 176.077 102.267 176.388C101.901 176.551 101.505 176.714 101.445 177.134C101.391 177.534 101.802 177.687 102.069 177.894C103.73 179.168 105.615 179.894 107.633 180.502C110.205 181.277 112.796 181.455 115.423 181.583C115.744 181.598 116.115 181.717 116.531 181.282L116.535 181.277ZM173.839 223.541C176.5 223.531 192.079 217.718 195.082 215.6C194.453 215.713 193.83 215.866 193.222 216.054C190.868 216.78 188.499 217.432 186.12 218.059C182.197 219.096 178.28 220.187 174.858 222.509C174.482 222.765 173.987 222.894 173.834 223.541H173.839ZM206.521 249.976C206.793 248.905 206.843 248.006 206.887 247.107C206.912 246.544 206.813 245.996 206.749 245.438C206.378 242.104 205.161 239.018 204.019 235.912C203.816 235.358 203.613 234.746 202.985 234.331C202.777 235.319 202.946 236.168 203.079 237.013C203.603 240.322 204.291 243.616 204.434 246.974C204.499 248.431 205.315 249.191 206.516 249.981L206.521 249.976ZM191.08 253.843C190.551 246.87 189.78 240.09 188.355 233.378C188.316 234.963 188.355 236.544 188.513 238.114C188.647 239.443 188.775 240.756 188.588 242.095C188.464 242.984 188.479 243.882 188.592 244.796C188.761 246.115 189.067 247.443 188.845 248.776C188.563 250.47 189.305 251.878 190.017 253.3C190.155 253.577 190.403 253.745 191.07 253.843H191.08ZM167.572 264.683C168.092 265.661 168.542 266.683 169.15 267.602C170.5 269.642 171.925 271.637 173.334 273.637C173.755 274.239 174.279 274.753 174.917 275.128C175.105 275.242 175.328 275.271 175.53 275.138C175.743 275 175.753 274.768 175.694 274.56C175.55 274.066 175.431 273.553 175.199 273.098C173.418 269.642 170.871 266.841 167.577 264.678L167.572 264.683ZM174.101 239.448C174.081 240.791 174.462 242.06 174.67 243.359C175.13 246.248 175.634 249.127 176.549 251.917C176.777 252.609 177.054 253.31 177.993 253.814C177.553 248.638 176.055 243.986 174.101 239.452V239.448ZM165.263 225.452C164.545 224.681 163.71 224.341 162.884 224.044C160.03 223.017 157.077 222.351 154.09 221.699C154.055 222.138 154.263 222.257 154.436 222.36C156.978 223.817 159.57 225.156 162.468 225.783C163.368 225.975 164.254 226.025 165.258 225.457L165.263 225.452ZM213.896 219.358C213.436 219.328 213.055 219.536 212.684 219.703C210.058 220.884 207.427 222.059 204.815 223.279C203.49 223.896 202.55 224.958 201.763 226.163C201.679 226.291 201.625 226.479 201.857 226.691C202.639 226.657 203.376 226.365 203.989 225.788C204.617 225.195 205.334 224.721 206.071 224.281C208.431 222.869 210.79 221.457 213.149 220.034C213.426 219.866 213.802 219.797 213.901 219.358H213.896ZM118.85 243.374C118.049 244.337 117.525 245.349 117.347 246.529C117.263 247.092 117.272 247.65 117.406 248.199C117.554 248.796 117.955 249.137 118.558 249.29C119.162 249.443 119.414 249.033 119.706 248.663C120.131 248.115 120.438 247.507 120.631 246.831C121.16 244.939 121.076 244.692 119.424 243.705C119.276 243.616 119.127 243.537 118.85 243.374ZM172.043 166.407V166.15C171.717 166.052 171.4 165.953 171.079 165.864C169.704 165.479 168.631 165.894 167.825 167.069C167.459 167.602 167.162 168.175 166.865 168.748C165.965 170.462 165.104 172.185 163.828 173.687C163.052 174.595 162.483 175.687 161.993 176.788C161.716 177.41 161.415 178.067 161.598 178.877C162.231 178.546 162.493 178.047 162.795 177.583C163.947 175.81 164.902 173.933 165.797 172.022C166.524 170.462 167.325 168.936 168.586 167.716C169.536 166.792 170.555 166.032 172.039 166.417L172.043 166.407ZM116.669 250.396C116.649 250.312 116.659 250.179 116.615 250.159C112.03 248.179 107.603 245.892 103.31 243.344C103.221 243.29 103.073 243.339 102.905 243.339C105.204 245.556 113.865 250.742 116.674 250.396H116.669ZM149.416 222.252C147.017 222.968 144.727 223.842 143.481 226.242C146.132 225.926 147.927 224.311 149.416 222.252ZM129.103 199.377C128.816 199.189 128.618 199.307 128.445 199.421C126.234 200.843 124.582 202.72 123.732 205.239C123.677 205.397 123.667 205.574 123.667 205.742C123.667 206.014 123.717 206.281 124.029 206.345C124.315 206.409 124.528 206.256 124.652 205.994C124.741 205.802 124.835 205.599 124.884 205.392C125.28 203.792 126.229 202.513 127.288 201.308C127.871 200.646 128.49 200.024 129.103 199.372V199.377ZM158.383 256.431C159.332 257.414 160.302 257.809 161.177 258.342C162.073 258.89 162.992 259.389 163.972 259.947C163.789 258.95 163.497 257.987 163.289 257.794C162.829 257.364 162.221 257.636 161.697 257.488C161.41 257.404 161.118 257.32 160.836 257.226C160.109 256.994 159.382 256.752 158.383 256.426V256.431ZM132.288 197.643C133.144 196.009 131.24 193.643 129.059 193.441C130.142 194.883 130.958 196.428 132.288 197.643ZM162.448 256.15C161.336 255.078 159.718 254.638 158.081 254.93C159.649 255.483 160.94 256.194 162.448 256.15Z" fill="#24282E"/>
</g>
<defs>
<clipPath id="clip0_487_4502">
<rect width="278" height="383" fill="white"/>
</clipPath>
</defs>
</svg>
