<svg width="190" height="189" viewBox="0 0 190 189" fill="none" xmlns="http://www.w3.org/2000/svg">
<path d="M89.8308 0.521766C92.1044 -0.298861 94.68 -0.12663 96.8724 0.863694C101.209 2.76583 103.622 8.29999 101.793 12.7197C107.72 8.92306 115.825 8.95852 121.834 12.5652C123.273 13.4846 124.666 14.4902 125.894 15.678C127.005 17.0381 128.132 18.3957 129.005 19.9281C131.276 24.2262 132.052 29.3526 130.809 34.0814C130.365 35.5175 129.997 37.0143 129.198 38.3061C127.987 40.5273 126.46 42.6371 124.435 44.1847C127.066 44.0783 129.7 44.2379 132.334 44.134C136.757 44.2809 141.314 44.1416 145.539 45.674C150.462 47.3532 154.347 51.3576 156.506 56.0103C166.9 79.2538 177.243 102.52 187.624 125.771C189.36 130.128 189.651 135.13 188.04 139.572C186.028 145.423 181.25 150.172 175.479 152.361C173.68 153.006 171.785 153.343 169.897 153.604C165.956 153.819 161.954 152.958 158.476 151.089C154.756 149.068 151.066 146.994 147.359 144.952C146.549 144.519 145.778 144.005 144.913 143.691C144.913 150.778 144.839 157.864 144.913 164.951C132.595 164.85 120.273 164.971 107.959 164.898C95.4616 164.921 82.9669 164.923 70.4696 164.911C67.955 169.546 63.9889 173.631 58.9037 175.358C60.3298 177.623 61.8218 179.846 63.2124 182.131C64.5319 184.345 63.5752 187.523 61.228 188.607C59.3528 189.557 57.1756 188.623 55.6252 187.463C53.6105 188.435 51.045 188.025 49.4616 186.442C47.3225 184.388 46.0106 181.69 44.4703 179.201C43.534 181.46 42.6484 183.739 41.6766 185.981C41.0244 187.526 39.3141 188.412 37.685 188.392C35.6068 188.243 33.7189 186.427 33.6631 184.312C33.554 182.911 34.3305 181.678 34.8202 180.421C37.0786 175.361 39.3877 170.323 41.6639 165.27C33.5312 159.478 25.3934 153.7 17.2581 147.913C15.4514 146.606 13.5737 145.385 11.9141 143.891C4.20517 137.146 -0.29129 126.906 0.0157483 116.671C0.185761 105.927 5.66932 95.4181 14.3958 89.1216C29.6538 78.0938 44.9246 67.0863 60.1953 56.0762C67.3891 50.8966 75.6791 47.2544 84.3625 45.4536C89.265 44.4962 94.2639 44.0479 99.2577 44.172C95.6011 41.1149 93.1296 36.6648 92.5866 31.9234C90.9803 31.3155 89.6887 30.0897 88.7879 28.651C87.6866 26.6223 87.4862 24.0895 88.3946 21.9467C88.8539 20.6449 89.8486 19.6216 90.9245 18.7934C87.6435 18.2362 84.9208 15.6527 83.8474 12.5576C83.2333 10.967 83.2917 9.2118 83.5099 7.55028C84.2585 4.36909 86.631 1.4589 89.8308 0.521766ZM87.6917 2.47962C84.1519 4.93897 83.0836 10.2376 85.3166 13.9025C86.7427 16.1897 89.2218 18.0082 91.9725 18.1095C93.3478 17.4485 94.8932 17.0939 96.4182 17.3801C97.286 16.3644 98.2097 15.3893 99.2272 14.5231C99.8083 14.0241 100.582 13.6822 100.927 12.9629C101.767 10.6555 101.899 7.97833 100.752 5.74946C99.6814 3.42435 97.4814 1.69445 95.02 1.04352C92.5206 0.463512 89.7496 0.899153 87.6917 2.47962ZM99.8007 15.0524C98.9151 15.8275 98.1361 16.714 97.2733 17.5143C99.6078 18.0183 101.539 19.7482 102.485 21.9087C103.358 24.0084 103.097 26.3183 103.135 28.532C103.117 30.4443 103.173 32.3565 103.105 34.2662C100.529 35.7226 98.3315 37.7666 96.6237 40.1702C100.118 45.0154 106.015 48.1131 112.021 48.0117C119.104 48.0599 125.929 43.6021 128.87 37.1916C126.977 35.9075 124.894 34.9045 122.679 34.3042C118.845 33.1468 114.724 33.3114 110.862 34.2536C110.034 34.4511 109.233 34.8285 108.365 34.7627C107.69 30.1656 107.157 25.5484 106.568 20.9387C109.415 19.8394 112.516 18.3907 113.95 15.5286C117.492 15.5919 121.035 15.4805 124.577 15.5843C121.532 12.8641 117.624 11.0278 113.529 10.7087C108.616 10.2528 103.571 11.8991 99.8007 15.0524ZM114.369 16.3948C112.945 19.0391 109.981 20.2548 107.406 21.4933C107.974 25.6598 108.479 29.8364 109.002 34.0104C111.027 33.243 113.176 32.82 115.34 32.7592C119.449 32.5136 123.643 33.3367 127.282 35.2768C127.919 35.6568 128.518 36.1 129.185 36.4293C129.799 34.8615 130.263 33.2354 130.512 31.5688C130.642 29.9504 130.611 28.3218 130.421 26.7109C129.926 22.8332 128.089 19.1809 125.386 16.367C121.715 16.3847 118.04 16.329 114.369 16.3948ZM88.6407 25.7155C88.9858 29.73 93.4519 32.6605 97.2886 31.4498C97.7276 31.2345 98.8288 31.2547 98.2554 31.9589C96.7049 32.4502 94.9718 32.7846 93.4011 32.1843C93.7817 34.7449 94.7333 37.2043 96.1518 39.3724C96.5019 39.3344 96.6263 38.9469 96.8394 38.7214C98.2477 36.68 100.257 35.1603 102.318 33.8255C102.287 30.809 102.341 27.7899 102.293 24.7708C102.257 22.9852 101.516 21.2527 100.214 20.0218C98.976 18.6338 97.0729 18.0817 95.2611 18.0386C91.3889 18.0437 88.0216 21.8631 88.6407 25.7155ZM90.8712 45.3118C93.358 50.8915 96.3395 56.2332 99.0953 61.6838C100.26 63.9507 101.478 66.3188 103.594 67.8512C105.99 69.7964 109.195 70.6904 112.257 70.3409C115.411 70.0851 118.314 68.3299 120.324 65.9389C121.491 64.3863 122.293 62.6032 123.199 60.8961C125.95 55.5924 128.705 50.2887 131.464 44.9876C129.639 44.9876 127.817 44.9876 125.993 44.9876C123.146 50.4888 120.291 55.985 117.434 61.4812C116.789 62.7045 115.866 63.8012 114.686 64.5408C113.214 65.4374 111.415 65.6856 109.725 65.4881C107.527 65.0347 105.541 63.5859 104.551 61.5572C101.623 56.0888 98.7273 50.5977 96.0731 44.9901C94.3374 45.0686 92.5992 45.1421 90.8712 45.3118ZM96.9384 44.9851C99.6713 50.5192 102.422 56.0458 105.414 61.4432C106.396 63.3149 108.377 64.5459 110.468 64.7333C112.498 64.9688 114.503 63.9684 115.815 62.4614C116.645 61.4609 117.155 60.2604 117.761 59.1206C120.215 54.4096 122.664 49.6935 125.12 44.9851C124.59 44.9851 124.059 44.9876 123.531 45.0003C120.311 47.2291 116.503 48.7361 112.549 48.7589C108.187 48.9615 103.792 47.609 100.306 44.9901C99.1841 44.9851 98.0625 44.9901 96.9384 44.9851ZM132.347 44.9851C129.512 50.423 126.708 55.8761 123.879 61.3165C122.58 63.8671 121.291 66.5645 118.982 68.3704C116.406 70.4144 113.031 71.468 109.748 71.1083C106.246 70.9133 103.031 68.9428 100.854 66.2656C99.7753 64.8118 99.0039 63.1706 98.1665 61.5749C95.4057 56.2104 92.5155 50.9093 90.0338 45.408C82.7334 46.2464 75.5675 48.3486 69.0233 51.6944C64.4228 53.9081 60.2942 56.9475 56.1784 59.9362C42.4835 69.8191 28.7809 79.692 15.0911 89.5826C9.46035 93.6047 5.13644 99.387 2.79939 105.886C0.66535 111.772 0.249199 118.246 1.47989 124.376C2.74103 130.538 5.74037 136.338 10.0262 140.948C12.343 143.508 15.1799 145.502 17.9915 147.477C22.3712 150.588 26.756 153.69 31.1281 156.806C35.9697 146.874 40.7808 136.926 45.6376 127.002C42.2856 124.728 38.9183 122.476 35.5409 120.237C32.4299 122.425 29.3037 124.591 26.1749 126.746C25.8527 127.121 25.5355 126.579 25.401 126.339C27.0681 125.067 28.8469 123.948 30.5572 122.734C34.6806 119.943 38.695 116.998 42.7423 114.098C54.628 105.547 66.5111 96.991 78.3994 88.4454C78.6176 88.2605 78.9221 88.1009 78.95 87.7843C79.8254 83.3012 80.6704 78.8131 81.5408 74.3301C81.5281 73.8336 81.9265 73.6234 82.3706 73.7931C81.8757 77.2529 81.079 80.6646 80.4674 84.1041C76.6206 103.84 72.69 123.565 68.8177 143.298C68.6604 143.668 69.008 143.944 69.1907 144.218C71.5405 147.151 72.8879 150.843 73.0173 154.594C82.2107 154.605 91.4041 154.569 100.595 154.622C115.099 154.597 129.604 154.6 144.108 154.582C144.093 151.033 144.101 147.487 144.103 143.939C141.322 144.357 138.523 143.883 135.884 142.989C130.165 141.16 124.44 139.339 118.718 137.516C116.614 136.921 115.13 134.791 115.135 132.635C115.107 131.29 115.647 130.021 116.371 128.917C114.48 128.423 113.11 126.688 112.793 124.806C112.503 122.489 114.267 120.159 116.576 119.791C115.8 119.465 115.021 119.143 114.257 118.786C112.217 117.755 111.225 115.06 112.153 112.963C112.963 110.888 115.358 109.587 117.535 110.159C126.191 113.193 134.861 116.187 143.522 119.211C141.819 116.592 140.056 114.016 138.351 111.4C137.242 109.607 137.795 107.049 139.566 105.894C140.883 104.914 142.789 104.934 144.123 105.876C144.078 95.2991 144.106 84.7196 144.108 74.1426C144.06 73.55 144.935 73.5525 144.887 74.1452C144.918 84.9374 144.862 95.7297 144.915 106.522C146.94 108.596 148.81 110.815 150.779 112.945C152.32 114.7 153.976 116.357 155.359 118.244C158.818 123.056 159.303 129.819 156.547 135.069C154.598 139.162 150.761 142.166 146.445 143.453C146.95 143.876 147.552 144.154 148.125 144.473C151.112 146.122 154.098 147.776 157.085 149.428C160.122 151.231 163.505 152.561 167.06 152.799C169.29 153.049 171.511 152.548 173.68 152.082C179.783 150.38 185 145.636 187.154 139.671C188.593 135.958 188.652 131.774 187.53 127.967C187.124 126.361 186.325 124.9 185.683 123.383C175.888 101.426 166.113 79.4615 156.311 57.5072C155.293 55.0631 153.916 52.7455 152.043 50.8561C149.455 48.0548 145.864 46.3756 142.177 45.5651C138.942 44.9471 135.628 44.9901 132.347 44.9851ZM36.2387 119.761C43.3665 124.538 50.502 129.299 57.6273 134.079C57.1376 135.112 56.6402 136.14 56.1429 137.171C58.4216 137.399 60.7155 137.863 62.7556 138.942C64.7679 139.917 66.5416 141.312 68.0869 142.918C71.6166 125.034 75.1361 107.145 78.6734 89.2634C64.5243 99.4225 50.3827 109.592 36.2387 119.761ZM140.444 106.286C138.706 107.031 138.033 109.404 139.041 110.982C140.903 113.842 142.837 116.661 144.671 119.538C145.014 119.953 144.428 120.5 144.002 120.227C135.108 117.147 126.214 114.047 117.33 110.942C115.318 110.43 113.024 111.853 112.673 113.913C112.298 115.625 113.255 117.504 114.868 118.206C120.037 120.579 125.508 122.2 130.809 124.244C131.228 124.36 130.893 124.811 130.819 125.059C126.648 123.606 122.504 122.068 118.335 120.607C116.399 120.11 114.15 121.379 113.673 123.35C113.148 125.404 114.635 127.504 116.556 128.17C120.608 129.55 124.689 130.852 128.741 132.232C129.33 132.293 129.068 133.268 128.52 132.969C124.709 131.764 120.936 130.437 117.122 129.234C116.013 130.67 115.548 132.696 116.33 134.388C116.835 135.576 117.951 136.376 119.134 136.809C125.044 138.688 130.951 140.58 136.864 142.46C138.51 142.979 140.233 143.184 141.951 143.298C146.427 143.22 150.904 141.262 153.806 137.822C156.334 134.773 157.806 130.776 157.499 126.797C157.334 123.406 156.001 120.093 153.771 117.529C151.54 114.951 149.224 112.444 146.96 109.893C145.935 108.801 145.019 107.596 143.854 106.644C142.91 105.884 141.517 105.676 140.444 106.286ZM31.8056 157.299C35.2287 159.683 38.6087 162.124 42.0166 164.528C46.8734 154.458 51.7961 144.42 56.6149 134.332C53.174 132.022 49.7281 129.72 46.2821 127.418C41.4456 137.374 36.5685 147.31 31.8056 157.299ZM55.7673 137.931C52.8492 144.005 49.893 150.058 46.9571 156.124C44.9652 160.286 42.8666 164.399 41.0117 168.624C38.9792 173.178 36.8451 177.689 34.8913 182.278C34.4624 183.21 34.2721 184.309 34.6654 185.287C35.2084 186.791 36.8781 187.799 38.4666 187.539C39.6516 187.382 40.659 186.503 41.0929 185.411C42.0064 183.172 42.9199 180.933 43.8284 178.692C44.072 178.322 43.7066 177.98 43.5568 177.666C42.6256 176.189 42.0826 174.416 42.382 172.666C42.5926 171.534 42.7905 170.3 43.5416 169.383C43.8588 169.563 44.0897 169.882 43.8639 170.237C43.3031 171.628 42.9098 173.155 43.2092 174.657C43.4147 176.225 44.4932 177.45 45.1859 178.818C46.6653 181.189 47.896 183.772 49.8905 185.773C51.1821 187.156 53.3592 187.566 55.0873 186.819C53.0192 183.848 50.9461 180.882 48.8881 177.904C47.8122 176.478 47.4519 174.649 47.3301 172.904C47.353 171.402 47.764 169.695 48.878 168.657C49.6418 168.591 49.1368 169.394 48.9998 169.723C47.934 171.46 48.0051 173.641 48.5481 175.541C48.9161 176.782 49.7737 177.772 50.4842 178.828C52.1869 181.277 53.8896 183.727 55.5922 186.176C56.455 187.445 57.9978 188.111 59.4975 188.205C61.0428 188.258 62.3978 187.035 62.8368 185.609C63.2022 184.469 63.017 183.177 62.3572 182.182C60.9489 179.955 59.4924 177.762 58.0968 175.531C57.8811 175.277 57.975 174.87 58.2896 174.758C59.1016 174.36 59.9745 174.097 60.7764 173.672C64.9125 171.529 68.125 167.889 70.1575 163.74C72.1799 160.096 72.7001 155.717 71.8602 151.659C70.3301 144.225 63.4281 138.157 55.7673 137.931ZM73.0503 155.43C73.0198 158.432 72.3702 161.476 70.863 164.095C78.9424 164.087 87.0243 164.095 95.1038 164.092C95.1038 161.2 95.1038 158.31 95.1038 155.418C87.7526 155.425 80.4015 155.4 73.0503 155.43ZM95.8929 155.423C95.8955 158.325 95.9082 161.228 95.8879 164.13C101.881 164.085 107.88 164.095 113.876 164.125C113.82 161.22 113.869 158.318 113.851 155.413C107.865 155.42 101.879 155.4 95.8929 155.423ZM114.64 155.423C114.653 158.313 114.63 161.205 114.653 164.098C124.475 164.1 134.301 164.067 144.123 164.113C144.116 161.223 144.101 158.33 144.134 155.44C134.303 155.392 124.47 155.425 114.64 155.423ZM119.157 22.7496C120.438 22.0328 122.286 23.284 121.803 24.7657C121.616 26.1967 119.57 26.721 118.682 25.6091C117.789 24.8265 118.129 23.2511 119.157 22.7496ZM124.247 23.4841C125.445 23.1473 126.767 24.2414 126.531 25.4876C126.452 26.9414 124.321 27.7139 123.407 26.526C122.354 25.6319 122.948 23.7627 124.247 23.4841ZM120.672 27.8152C121.296 27.7646 121.882 28.0913 122.486 28.223C123.458 28.5067 124.694 28.7194 125.11 29.7857C125.706 31.0775 124.592 32.7187 123.171 32.6022C121.986 32.3945 120.834 32.0197 119.695 31.6499C119.076 31.4219 119.685 30.7279 120.113 30.9812C121.23 31.2218 122.298 31.736 123.445 31.7942C124.521 31.6955 124.826 30.0745 123.912 29.5375C122.892 29.0208 121.715 28.922 120.654 28.5067C120.286 28.4484 120.278 27.8051 120.672 27.8152ZM116.619 34.7728C116.835 34.5423 117.139 34.1725 117.449 34.5119C118.758 35.7226 120.613 36.6268 122.425 36.1329C122.816 36.0544 123.43 35.8138 123.628 36.3482C123.41 36.9611 122.656 36.8522 122.146 36.9966C120.045 37.3563 118.066 36.1886 116.619 34.7728ZM87.4684 79.8338C95.4793 79.8617 103.488 79.844 111.499 79.844C110.745 84.7779 109.986 89.7092 109.217 94.6406C108.279 100.405 103.475 105.278 97.7529 106.413C95.1114 106.937 92.2491 106.626 89.8968 105.263C87.2984 103.809 85.5221 101.084 85.0832 98.1612C84.6492 95.6081 85.3826 93.0753 85.7277 90.5602C86.3062 86.9839 86.8949 83.4101 87.4684 79.8338ZM88.1434 80.6393C87.9226 82.0272 87.6917 83.4127 87.4709 84.8006C94.9591 84.7956 102.445 84.8032 109.933 84.7956C110.159 83.4 110.339 81.9968 110.603 80.6089C103.117 80.6798 95.629 80.619 88.1434 80.6393ZM87.3212 85.6111C86.8619 88.7088 86.3037 91.7886 85.8444 94.8863C85.4587 97.5584 86.1083 100.433 87.8643 102.525C89.5847 104.65 92.3176 105.82 95.0302 105.858C101.432 105.995 107.36 100.856 108.418 94.6051C108.905 91.6063 109.337 88.5973 109.816 85.596C102.318 85.596 94.8196 85.563 87.3212 85.6111ZM124.975 86.1886C125.138 86.2545 125.463 86.3862 125.625 86.452C120.2 97.9307 112.189 108.062 102.957 116.734C97.2607 122.013 91.1453 126.838 84.7431 131.234C84.3244 131.554 83.959 130.895 84.3524 130.632C86.4179 129.031 88.5925 127.569 90.6961 126.017C92.3963 124.682 94.0888 123.345 95.7889 122.007C99.5672 118.872 103.165 115.521 106.619 112.031C108.941 109.442 111.349 106.935 113.496 104.194C115.335 102.102 116.805 99.729 118.421 97.4697C119.626 95.6284 120.778 93.7516 121.94 91.8824C122.978 89.9979 123.958 88.0832 124.975 86.1886ZM32.7293 90.4437C33.0084 90.2563 33.3459 90.5501 33.6326 90.5982C37.6876 92.1787 41.7628 93.7136 45.8127 95.3042C46.4598 95.37 46.0867 96.3831 45.5691 96.0589C41.3771 94.4633 37.1928 92.8398 33.0033 91.2264C32.6151 91.1605 32.3081 90.7173 32.7293 90.4437ZM26.5454 98.3891C27.129 97.9839 27.7456 98.3714 28.309 98.5943C31.7168 100.063 35.3074 101.089 38.9589 101.745C39.4867 101.831 40.0094 101.97 40.4966 102.196C40.2327 103.049 39.3116 102.566 38.6899 102.487C35.1272 101.874 31.661 100.79 28.3242 99.4149C27.7025 99.1312 26.9108 99.0375 26.5454 98.3891ZM159.508 103.741C159.688 103.267 160.513 103.83 160.125 104.141C158.336 106.107 156.575 108.113 154.684 109.979C154.098 109.941 154.258 109.237 154.603 109.014C156.248 107.267 157.836 105.463 159.508 103.741ZM172.28 109.224C172.647 109.161 173.043 108.867 173.414 109.09C173.81 109.45 173.239 109.82 172.916 109.865C167.578 111.481 162.254 113.158 156.905 114.741C156.326 114.999 156.169 113.953 156.783 113.981C161.939 112.37 167.118 110.825 172.28 109.224ZM106.314 130.953C106.662 130.801 107.045 131.146 106.799 131.47C103.962 134.38 101.049 137.263 97.659 139.537C95.794 140.948 93.7538 142.095 91.7593 143.308C91.4269 143.645 90.6251 143.346 91.0488 142.85C92.8758 141.616 94.8932 140.662 96.6364 139.299C100.156 136.878 103.328 133.995 106.314 130.953Z" fill="black"/>
</svg>
