<svg width="278" height="227" viewBox="0 0 278 227" fill="none" xmlns="http://www.w3.org/2000/svg">
<path d="M107.451 3.98342C109.63 2.00088 112.373 0.532887 115.325 0.187833C119.79 -0.562811 124.548 0.983878 127.758 4.15898C130.27 6.54409 131.776 9.89474 132.095 13.3241C132.455 17.7826 130.691 22.3772 127.324 25.3495C131.543 27.0264 135.368 29.8019 138.011 33.5188C140.351 36.4609 141.848 39.9719 142.678 43.6192C143.836 43.4467 145.212 43.374 146.13 44.2397C147.537 45.3263 147.809 47.7175 146.433 48.9373C145.582 49.7817 144.312 49.8574 143.181 49.8635C142.993 54.9424 141.269 59.976 138.135 63.9895C136.974 65.2698 135.92 66.6561 134.562 67.7427C141.378 68.684 148.094 70.3003 154.632 72.4312C156.399 72.8398 157.996 73.7176 159.708 74.2897C161.236 74.8587 162.766 75.4156 164.239 76.1178C167.319 77.5646 170.54 78.733 173.441 80.5369C181.821 85.0378 189.692 90.5072 196.723 96.9179C202.518 102.048 207.628 107.911 212.335 114.04C220.718 125.315 227.077 138.094 230.987 151.585C232.463 158.159 233.89 164.745 235.348 171.322C240.752 171.198 246.159 171.861 251.402 173.154C259.461 175.13 267.547 178.629 273.106 184.994C275.097 187.316 276.685 190.034 277.464 193.009C278.091 194.889 278.273 197.029 277.437 198.869C276.918 200.001 275.742 200.779 274.491 200.755C275.633 202.141 276.024 204.006 275.849 205.764C275.415 208.507 273.245 210.913 270.539 211.582C271.378 213.134 271.854 214.914 271.745 216.688C271.533 218.522 269.799 219.772 268.056 219.987C265.841 220.396 263.64 219.551 261.758 218.443C258.818 216.733 256.573 214.133 254.218 211.736C250.614 207.874 246.359 204.605 241.637 202.223C240.058 201.499 238.103 200.9 236.475 201.808C234.993 202.753 234.269 204.666 234.596 206.373C235.663 210.662 238.4 214.375 241.846 217.087C243.528 218.501 245.498 220.111 245.677 222.466C245.816 225.057 243.219 227.148 240.737 226.991C238.112 227.079 235.863 225.55 233.663 224.34C229.174 221.709 224.864 218.789 220.37 216.167C214.138 212.756 209.574 206.412 208.395 199.405C200.088 199.275 191.774 199.084 183.467 199.308C176.293 199.45 169.122 199.632 161.951 199.744C125.691 199.741 89.4271 199.747 53.1666 199.744C51.924 201.418 50.4722 202.967 48.7053 204.1C46.5898 205.589 44.0682 206.303 41.6556 207.157C37.4913 208.488 33.2179 209.499 28.8808 210.074C22.7192 210.734 16.3212 209.142 11.2052 205.637C4.06465 200.706 -0.339101 192.065 0.0215645 183.384C0.0579341 169.6 2.66745 155.856 7.44096 142.934C8.60782 140.337 9.52312 137.631 10.787 135.077C19.8703 115.127 34.8182 97.9622 53.0999 85.8853C67.6447 76.2692 84.3626 69.9977 101.638 67.6247C99.7773 66.423 98.4407 64.6039 97.1647 62.8333C92.5518 56.1259 91.5396 47.1363 94.5582 39.5784C96.9192 33.3645 101.899 28.2159 108.009 25.5917C105.096 23.1369 103.302 19.4866 102.99 15.7092C102.599 11.396 104.308 6.95573 107.451 3.98342ZM106.312 6.76504C104.175 9.84934 103.357 13.8417 104.223 17.5011C104.887 20.4613 106.566 23.1733 108.909 25.1044C109.212 25.3162 109.318 25.6098 109.227 25.9851C108.442 26.4361 107.594 26.7661 106.784 27.1716C101.899 29.6839 98.0255 33.9759 95.8009 38.9761C93.7036 43.8704 93.155 49.4639 94.531 54.6307C95.5341 58.9499 97.88 62.8817 101.008 66.0084C102.014 65.515 103.026 65.0065 103.869 64.2498C106.403 62.2733 107.748 58.9681 107.488 55.7869C105.275 55.2542 103.308 53.7347 102.238 51.728C101.259 49.9997 101.153 47.9233 101.429 46.0013C102.193 42.3298 105.766 39.5028 109.524 39.6178C112.834 39.5391 115.916 41.7577 117.165 44.7724C118.902 44.7724 120.635 44.7724 122.372 44.7724C122.32 40.6923 121.199 36.585 118.835 33.2313C118.429 32.8257 119.086 32.3081 119.508 32.4443C124.969 32.4231 130.428 32.4504 135.889 32.4322C133.471 29.6324 130.261 27.556 126.836 26.194C126.482 26.0275 125.994 25.8459 126.018 25.3616C126.542 24.6261 127.321 24.1297 127.903 23.4457C130.743 20.1979 131.828 15.5336 130.816 11.3537C129.906 7.63373 127.379 4.2861 123.945 2.53965C121.432 1.08982 118.423 0.669092 115.568 1.0202C111.876 1.58318 108.415 3.66864 106.312 6.76504ZM120.002 33.3433C122.287 36.8786 123.418 41.1403 123.275 45.3384C123.163 45.4323 122.936 45.6229 122.823 45.7198C120.723 45.7924 118.623 45.6744 116.522 45.6744C115.971 44.8118 115.547 43.8704 114.898 43.0744C113.313 41.4036 110.94 40.429 108.627 40.7528C105.536 41.0071 102.863 43.6011 102.414 46.6521C101.999 48.4742 102.566 50.378 103.584 51.9035C105.087 54.0858 107.83 55.236 110.443 55.0817C110.567 55.3964 110.858 55.7718 110.424 55.9897C109.782 56.0956 109.13 56.0321 108.485 56.0079C108.6 58.0116 108.121 60.0305 107.182 61.7981C106.048 63.9713 104.072 65.5846 101.896 66.65C103.49 67.888 105.078 69.1714 106.903 70.0643C111.64 72.6612 117.28 73.3635 122.569 72.4585C130.116 71.0934 136.917 65.9115 140.105 58.9348C138.553 58.057 136.923 57.3154 135.41 56.3741C135.007 55.9988 135.698 55.3087 136.083 55.7264C137.559 56.477 138.999 57.2942 140.472 58.0509C141.408 55.7112 142.048 53.2293 142.187 50.708C142.275 50.1117 142.208 49.4549 142.548 48.9312C143.551 48.6982 144.763 49.1431 145.606 48.3985C146.9 47.5722 146.539 45.3808 145.224 44.7633C144.178 44.1882 142.93 44.7754 141.845 44.3426C141.087 41.1463 140.044 37.9531 138.111 35.2622C137.523 34.5056 137.068 33.1768 135.904 33.3433C130.604 33.3463 125.303 33.3493 120.002 33.3433ZM80.6378 73.5844C92.8125 78.3728 105.011 83.0946 117.18 87.889C129.597 83.0492 141.972 78.1004 154.413 73.3332C147.682 71.2084 140.796 69.4589 133.78 68.6235C132.316 69.4892 130.982 70.5788 129.428 71.2931C120.893 75.6093 109.924 74.5318 102.484 68.4843C95.0674 69.4771 87.6904 71.0631 80.6378 73.5844ZM117.177 88.903C104.745 84.0087 92.2882 79.1779 79.8498 74.2957C79.48 74.1413 79.0799 74.0142 78.6981 74.2079C76.4977 75.0342 74.2731 75.8091 72.1334 76.7837C73.0668 77.2892 74.0822 77.6191 75.0641 78.0126C89.0967 83.5092 103.135 88.9908 117.165 94.4904C132.331 88.4702 147.482 82.4105 162.663 76.4235C160.357 75.5488 158.041 74.7043 155.747 73.8023C142.872 78.7935 130.04 83.8846 117.177 88.903ZM118.186 95.1624C117.75 95.2956 117.277 95.6134 116.819 95.3864C101.687 89.4751 86.5721 83.5183 71.4484 77.5828C71.0544 77.4072 70.618 77.3588 70.2391 77.5949C59.6889 82.2834 49.854 88.5822 41.1677 96.1794C43.9348 102.054 44.2409 109.104 41.695 115.106C41.0586 116.232 39.3007 116.474 38.4248 115.481C37.5823 114.74 37.7035 113.526 38.0975 112.588C39.7311 108.296 39.525 103.438 37.849 99.191C24.7983 111.247 14.7603 126.432 8.46234 143.016C14.9422 143.182 21.4857 144.653 27.1745 147.816C27.9898 147.19 28.8142 146.572 29.6567 145.985C35.8153 141.863 43.3832 140.395 50.7056 140.573C50.742 132.25 50.6965 123.923 50.7268 115.596C50.6147 114.213 51.7543 112.914 53.1333 112.818C53.8031 112.721 54.4214 113.054 55.0215 113.299C57.1612 111.241 59.0979 108.974 61.3013 106.982C63.2016 107.86 65.1504 108.638 66.9992 109.624C72.8365 112.706 78.6071 116.214 83.0867 121.135C84.7081 122.954 86.0447 125.049 86.8115 127.367C87.6692 124.707 89.3089 122.358 91.2486 120.372C93.4308 118.063 95.9585 116.105 98.5983 114.343C102.914 111.431 107.545 109.019 112.331 106.97C114.437 108.952 116.392 111.098 118.414 113.172C119.505 112.684 120.941 112.678 121.79 113.623C122.49 114.28 122.623 115.287 122.626 116.199C122.62 128.63 122.623 141.061 122.626 153.492C127.679 152.411 132.334 149.838 136.077 146.297C137.341 145.032 139.478 146.364 139.359 147.989C139.423 149.272 138.341 150.074 137.432 150.764C133.298 154.454 128.058 156.818 122.626 157.817C122.587 159.881 122.69 161.951 122.575 164.013C122.466 166.086 121.06 167.926 119.183 168.762C115.668 170.635 112.167 172.542 108.642 174.401C110.606 175.366 112.637 176.256 114.371 177.624C118.468 180.366 121.72 184.226 124.16 188.478C124.894 189.892 123.381 191.499 121.92 191.236C120.805 191.187 120.238 190.116 119.699 189.299C118.389 187.146 116.844 185.094 114.892 183.481C111.637 180.572 107.742 178.175 103.454 177.243C98.6438 179.704 93.9309 182.367 89.1361 184.861C87.6874 185.624 85.8538 185.612 84.4202 184.816C82.4593 183.82 80.5287 182.77 78.592 181.732C75.8431 183.112 72.8759 183.971 69.8603 184.546C70.9332 189.973 73.7397 195.007 77.801 198.769C104.508 198.736 131.219 198.787 157.926 198.745C155.535 194.747 154.277 190.134 153.859 185.518C153.716 183.829 156.159 183.03 157.272 184.132C158.323 184.955 158.214 186.411 158.438 187.594C158.893 191.647 160.718 195.379 162.945 198.739C172.277 198.603 181.606 198.403 190.935 198.24C188.358 189.846 185.752 181.459 183.145 173.075C181.091 166.395 178.824 159.784 176.738 153.113C171.998 156.7 168.301 161.731 166.528 167.412C166.315 167.999 166.021 168.68 165.346 168.831C163.794 169.34 162.136 167.678 162.627 166.119C164.521 159.067 169.367 153.056 175.256 148.864C172.244 139.759 169.122 130.694 166.085 121.598C165.885 121.05 166.561 120.46 166.903 121.15C169.877 129.786 172.759 138.455 175.69 147.102C177.22 151.07 178.317 155.187 179.699 159.206C183.964 172.155 187.895 185.209 191.941 198.231C197.366 198.315 202.791 198.379 208.216 198.464C207.849 195.14 207.974 191.735 208.95 188.524C201.555 183.629 196.332 175.539 195.181 166.731C195.078 165.647 194.593 164.412 195.29 163.432C196.46 162.115 198.966 162.929 199.139 164.688C199.739 168.81 200.821 172.969 203.161 176.474C205.046 179.592 207.613 182.295 210.592 184.389C212.102 181.535 214.211 179.01 216.702 176.958C220.349 173.804 225.043 171.955 229.838 171.604C231.359 171.628 232.869 171.431 234.384 171.359C232.96 164.818 231.505 158.283 230.065 151.745C226.61 153.634 223.882 156.555 221.282 159.451C220.506 160.247 219.867 161.479 218.585 161.434C216.99 161.504 215.769 159.37 216.951 158.153C220.297 154.091 224.031 150.147 228.726 147.641C225.189 136.663 219.867 126.278 213.208 116.864C208.392 117.479 203.779 119.622 200.333 123.054C198.884 124.277 197.984 125.972 196.745 127.38C195.411 128.617 192.962 127.358 193.18 125.557C193.538 124.428 194.411 123.575 195.063 122.609C198.906 117.821 204.44 114.431 210.447 113.126C206.261 107.787 201.712 102.72 196.693 98.1468C189.256 91.3214 180.906 85.513 171.977 80.8003C170.189 84.6352 169.716 88.8667 169.289 93.0255C168.889 95.5892 168.955 98.1861 168.87 100.771C168.776 103.504 169.277 106.225 169.249 108.955C169.234 110.042 168.122 110.89 167.067 110.717C165.976 110.657 165.136 109.679 164.997 108.638C164.379 102.287 164.312 95.8495 165.324 89.5326C165.749 85.8792 166.731 82.2864 168.267 78.9418C166.758 78.3062 165.288 77.5767 163.76 76.9895C148.57 83.0492 133.368 89.0816 118.186 95.1624ZM166.94 85.8913C165.473 93.4583 165.036 101.264 166.031 108.922C166.155 109.185 166.303 109.434 166.476 109.673C167.088 109.667 167.988 109.972 168.288 109.222C168.279 106.906 167.973 104.6 167.882 102.284C167.898 97.5233 168.24 92.7682 168.91 88.0525C169.295 85.3859 170.14 82.804 171.198 80.3311C170.498 80.0315 169.816 79.6985 169.146 79.3414C168.185 81.4389 167.382 83.6212 166.94 85.8913ZM38.5339 98.4434C40.3433 102.466 40.6464 107.121 39.4947 111.368C39.228 112.454 38.5279 113.529 38.8309 114.676C39.428 115.424 40.7009 115.239 41.0495 114.352C43.065 108.692 42.8862 102.3 40.4251 96.809C39.8008 97.3598 39.1704 97.9046 38.5339 98.4434ZM61.471 108.072C59.6071 109.979 57.7552 111.894 55.9004 113.81C65.4353 118.886 74.952 123.996 84.4839 129.081C85.0021 129.341 85.5537 129.522 86.1053 129.716C86.2781 129.562 86.4509 129.404 86.6236 129.25L86.3054 129.041C85.775 126.82 84.7869 124.725 83.3655 122.936C80.756 119.573 77.3281 116.958 73.8033 114.622C69.8966 112.082 65.7717 109.873 61.471 108.072ZM94.8825 118.236C92.2366 120.451 89.7484 123.003 88.2754 126.163C87.6753 127.34 87.5935 128.72 86.8479 129.831C87.745 129.607 88.6573 129.38 89.4695 128.923C98.8468 123.844 108.233 118.78 117.617 113.717C115.813 111.813 113.98 109.942 112.149 108.066C106 110.708 100.086 114.01 94.8825 118.236ZM52.4392 113.968C51.9907 114.519 51.5482 115.136 51.63 115.893C51.6239 128.505 51.627 141.121 51.63 153.737C51.6179 154.584 51.8997 155.547 52.6968 155.977C54.6214 157.193 56.9885 157.26 59.1949 157.29C62.5136 157.184 65.8626 156.894 69.0662 155.971C71.7485 155.383 74.2701 154.036 77.0614 153.979C79.0769 154.073 81.2258 154.875 82.3472 156.646C83.4019 158.313 83.2049 160.496 82.235 162.157C83.8686 164.806 83.7443 168.447 81.8289 170.923C83.5958 172.742 83.9504 175.639 82.8685 177.897C82.1471 179.343 80.7378 180.227 79.477 181.156C81.7774 182.231 83.8868 183.75 86.3236 184.507C86.3539 166.552 86.3266 148.597 86.3357 130.642C85.5143 130.5 84.7081 130.27 83.9686 129.883C74.2458 124.686 64.523 119.486 54.8002 114.289C54.0819 113.862 53.2424 113.735 52.4392 113.968ZM118.762 114.168C109.582 119.135 100.396 124.089 91.2122 129.053C89.9787 129.746 88.7179 130.482 87.2813 130.636C87.2934 148.576 87.2722 166.513 87.2904 184.45C88.7694 184.138 90.0363 183.296 91.3577 182.615C100.702 177.594 110.055 172.591 119.396 167.563C120.896 166.8 121.672 165.06 121.635 163.432C121.641 147.574 121.641 131.717 121.635 115.86C121.708 115.115 121.263 114.513 120.826 113.968C120.132 113.795 119.39 113.786 118.762 114.168ZM195.072 124.186C194.638 124.801 193.774 125.545 194.308 126.356C194.717 126.783 195.551 127.246 196.038 126.698C197.027 125.733 197.684 124.489 198.621 123.475C202.273 119.483 207.31 116.604 212.744 116.047C212.111 115.421 211.635 114.67 211.147 113.935C204.752 115.142 198.833 118.868 195.072 124.186ZM34.309 144.529C30.0143 146.476 25.9682 149.457 23.7467 153.71C21.2493 158.41 21.0189 164.119 22.6071 169.149C24.0467 173.187 26.6744 176.895 30.2841 179.268C34.3514 182.028 39.3977 182.337 44.0166 183.614C51.8058 185 59.8647 185.57 67.6811 184.035C71.5302 183.242 75.5551 182.558 78.9193 180.403C80.1953 179.519 81.6652 178.626 82.2077 177.088C82.8321 175.269 82.5835 173.033 81.1894 171.625C78.7314 174.34 75.0854 175.4 71.6636 176.314C69.7754 176.931 67.8296 177.312 65.8717 177.63C59.5737 178.856 53.0908 178.744 46.7595 177.86C46.8353 177.539 46.8595 176.901 47.3808 177.07C49.9025 177.222 52.412 177.688 54.9487 177.573C61.8408 177.712 68.7449 176.553 75.2278 174.228C77.6888 173.317 80.0983 171.925 81.5288 169.658C82.729 167.627 82.6714 165.033 81.6349 162.944C79.8619 165.066 77.2402 166.177 74.6883 167.058C65.7535 170.006 56.1671 170.908 46.8262 169.87C46.3837 169.915 46.2594 169.416 46.0139 169.161C46.8232 168.71 47.7445 168.989 48.6144 169.031C54.482 169.67 60.4375 169.316 66.2233 168.181C69.9663 167.509 73.7518 166.688 77.1524 164.93C78.6859 164.158 80.3044 163.314 81.2682 161.83C82.2502 160.508 82.4199 158.583 81.5622 157.154C80.5226 155.613 78.592 154.905 76.7826 154.951C74.2549 155.15 71.9364 156.337 69.4723 156.851C65.3535 158.056 61.0164 158.392 56.746 158.104C54.9881 157.896 53.0636 157.675 51.7118 156.412C50.942 155.756 50.6632 154.711 50.6814 153.737C50.6723 149.675 50.6814 145.613 50.6783 141.551C45.1047 141.49 39.4219 142.193 34.309 144.529ZM7.23183 146.345C13.2449 146.236 19.349 147.477 24.7074 150.238C25.4288 149.965 25.85 149.024 26.4532 148.497C20.8583 145.437 14.4664 144.003 8.10774 143.96C7.84102 144.765 7.57432 145.567 7.23183 146.345ZM135.565 147.937C131.967 151.276 127.415 153.461 122.623 154.448C122.623 155.265 122.62 156.083 122.626 156.9C125.012 156.437 127.364 155.719 129.564 154.69C132.755 153.371 135.486 151.194 138.065 148.948C138.941 148.322 138.323 146.872 137.374 146.684C136.623 146.851 136.126 147.468 135.565 147.937ZM1.02476 180.899C4.33742 182.497 7.9471 183.554 11.6356 183.705C12.5085 183.817 13.6602 183.66 14.1754 184.556C14.8755 185.654 14.3482 187.122 13.2874 187.773C12.4691 188.139 11.5507 187.936 10.693 187.879C7.38034 187.652 4.10102 186.886 1.05507 185.56C1.15508 190.076 2.73716 194.511 5.23454 198.255C9.45341 204.608 16.7667 208.697 24.3528 209.206C30.2598 209.466 36.0456 207.825 41.6526 206.161C39.9463 205.9 38.249 205.471 36.7306 204.629C33.7695 202.977 31.1448 200.685 29.2233 197.882C26.5865 194.232 24.6953 190.082 23.4193 185.778C21.4614 178.808 20.6128 171.549 20.7098 164.318C20.3491 159.669 21.5099 154.914 24.1952 151.079C21.8645 149.971 19.4732 148.903 16.9334 148.37C13.6874 147.517 10.3111 147.311 6.96512 147.238C3.32817 158.08 1.27935 169.464 1.02476 180.899ZM218.597 157.672C218.109 158.295 217.142 158.864 217.484 159.793C217.7 160.474 218.475 160.608 219.1 160.499C222.315 156.933 225.437 153.05 229.808 150.837C229.547 150.08 229.295 149.324 229.047 148.567C224.892 150.719 221.588 154.142 218.597 157.672ZM163.403 167.006C163.815 167.705 164.548 168.087 165.367 167.923C166.582 164.028 168.401 160.263 171.143 157.205C172.68 155.314 174.465 153.643 176.341 152.096C176.053 151.337 175.793 150.571 175.523 149.808C169.768 153.997 165.13 160.033 163.403 167.006ZM195.89 164.309C196.442 173.541 201.476 182.452 209.244 187.531C209.529 186.762 209.826 185.999 210.162 185.255C207.677 183.647 205.692 181.399 203.797 179.153C201.167 175.711 199.469 171.607 198.657 167.369C198.378 166.174 198.527 164.785 197.681 163.804C197.266 163.765 196.857 163.725 196.451 163.686C196.251 163.883 196.066 164.088 195.89 164.309ZM22.4343 176.586C23.5284 184.129 25.747 191.762 30.4205 197.91C32.9482 201.188 36.3396 204.03 40.4464 204.998C41.8769 205.371 43.3559 205.18 44.7986 204.992C48.4264 203.8 51.4027 201.073 53.2636 197.78C55.6094 194.111 57.3158 190.073 58.4645 185.881C53.6121 186.048 48.7871 185.33 44.0136 184.562C40.6191 183.711 37.164 183.106 33.8059 182.125C27.9777 180.245 23.6769 175.142 21.7342 169.473C21.9736 171.843 22.0009 174.237 22.4343 176.586ZM218.569 176.668C214.799 179.44 211.72 183.272 210.198 187.725C208.683 192.083 208.595 196.887 209.768 201.336C211.229 206.442 214.408 211.082 218.797 214.115C220.485 215.159 222.209 216.143 223.907 217.175C228.398 219.86 232.684 222.911 237.391 225.226C238.833 225.926 240.518 226.289 242.101 225.874C243.922 225.444 245.313 223.314 244.519 221.507C243.649 219.618 241.87 218.413 240.343 217.094C237.645 214.823 235.539 211.869 234.308 208.57C233.79 207.329 233.396 205.967 233.666 204.617C233.987 202.704 235.369 200.791 237.376 200.443C239.558 200.05 241.643 201.07 243.483 202.129C246.859 203.963 249.938 206.306 252.754 208.909C255.236 211.291 257.491 213.915 260.122 216.146C262.361 217.905 265.101 219.454 268.056 219.085C269.226 218.734 270.581 218.059 270.76 216.706C271.066 214.354 269.881 212.187 268.659 210.277C267.832 208.842 266.944 207.435 265.804 206.224C261.819 201.409 256.627 197.71 251.002 195.028C250.081 194.489 248.923 194.241 248.28 193.324C249.19 192.752 250.02 193.606 250.835 193.942C255.351 196.154 259.749 198.742 263.395 202.238C266.101 204.656 268.223 207.644 270.078 210.743C272.703 210.074 275.006 207.717 274.933 204.899C275.057 202.562 273.378 200.77 272.112 198.999C270.245 196.263 267.762 194.032 265.213 191.947C262.364 189.977 259.431 188.058 256.167 186.838C255.721 186.583 254.933 186.481 254.897 185.854C255.027 185.321 255.603 185.548 255.939 185.7C260.679 187.579 265.132 190.27 268.844 193.778C270.602 195.588 272.269 197.489 273.685 199.581C274 200.207 274.782 199.938 275.291 199.744C276.382 199.169 276.985 197.934 277.027 196.732C277.237 194.983 276.561 193.318 276.024 191.696C274.648 188.17 272.251 185.094 269.338 182.694C265.717 179.531 261.322 177.424 256.864 175.714C248.89 172.984 240.367 171.701 231.947 172.418C227.198 172.427 222.409 173.841 218.569 176.668ZM104.651 176.544C108.761 177.794 112.567 180.003 115.719 182.921C117.977 185.004 119.723 187.54 121.393 190.095C121.566 190.167 121.911 190.309 122.084 190.379C122.466 190.27 122.845 190.158 123.23 190.046C123.518 189.226 123.178 188.457 122.672 187.815C119.25 182.089 113.892 177.521 107.688 175.079C106.587 175.324 105.678 176.093 104.651 176.544ZM1.00657 181.886C0.979297 182.767 0.955051 183.647 0.921712 184.531C4.51624 186.033 8.35929 186.944 12.2569 187.08C13.4965 187.156 13.9814 185.454 13.0813 184.716C8.91393 184.619 4.75264 183.753 1.00657 181.886ZM154.829 185.176C155.017 189.97 156.644 194.614 159.005 198.76C159.966 198.757 160.93 198.751 161.893 198.781C160.227 196.312 158.799 193.618 158.126 190.697C157.59 189.008 157.484 187.228 157.117 185.506C157.059 184.404 155.232 184.207 154.829 185.176ZM66.5627 185.167C67.4356 190.182 69.836 194.801 73.0093 198.739C74.1761 198.772 75.343 198.742 76.5098 198.791C72.6274 195.019 69.9785 190.055 68.9328 184.752C68.1418 184.882 67.3538 185.025 66.5627 185.167ZM59.4343 185.854C58.4948 188.736 57.7098 191.699 56.252 194.377C55.5337 195.891 54.679 197.335 53.8061 198.76C59.8435 198.757 65.8808 198.76 71.9182 198.76C70.5543 197.068 69.3965 195.231 68.3418 193.336C67.0628 190.797 66.2627 188.061 65.5596 185.315C63.5289 185.597 61.4831 185.775 59.4343 185.854ZM134.219 41.3521C135.756 40.7074 137.553 42.2814 137.083 43.8856C136.811 45.3415 134.874 46.08 133.704 45.1538C132.295 44.2579 132.613 41.8425 134.219 41.3521ZM61.6468 94.6599C62.9197 93.994 64.3078 94.5752 65.605 94.8355C74.5095 96.6667 82.8412 101.046 89.518 107.182C89.912 108.017 89.8544 109.11 89.0998 109.727C88.4572 110.529 87.2116 110.535 86.4387 109.924C84.4657 108.45 82.7139 106.67 80.5469 105.46C76.6189 102.838 72.2334 100.962 67.7175 99.6148C65.9051 99.1426 64.0351 98.8763 62.259 98.286C60.8558 97.6534 60.7497 95.7647 61.6468 94.6599ZM62.2348 97.2811C64.6049 97.9561 67.081 98.2255 69.3905 99.1214C74.6762 100.813 79.671 103.407 84.0626 106.797C85.1446 107.621 86.0902 108.632 87.254 109.343C88.3027 109.906 89.1361 108.559 88.7452 107.642C86.9055 106.243 85.187 104.679 83.2412 103.426C77.2524 99.2637 70.2906 96.5941 63.138 95.2562C61.9468 94.9656 61.7711 96.5244 62.2348 97.2811ZM130.837 102.151C131.819 101.867 132.892 102.405 133.44 103.223C133.768 104.073 133.831 104.999 133.995 105.892C135.092 113.42 139.723 120.254 146.088 124.368C147.443 125.309 149.064 125.842 150.334 126.913C151.271 127.985 150.467 129.762 149.185 130.119C148.103 130.564 147.076 129.822 146.155 129.344C136.626 124.516 130.106 114.416 129.464 103.783C129.434 102.987 130.11 102.342 130.837 102.151ZM130.44 103.477C130.816 111.322 134.474 118.968 140.348 124.192C142.633 126.235 145.254 127.879 148.006 129.22C148.973 129.81 150.298 128.248 149.525 127.419C148.385 126.605 147.043 126.132 145.858 125.394C144.354 124.383 142.854 123.342 141.611 122.01C136.829 117.742 133.834 111.674 132.986 105.357C132.874 104.561 132.752 103.737 132.246 103.083C131.628 103.099 130.831 102.826 130.44 103.477Z" fill="black"/>
</svg>
