<svg width="126" height="125" viewBox="0 0 126 125" fill="none" xmlns="http://www.w3.org/2000/svg">
<path d="M54.2923 2.08815C60.8873 -0.639671 68.817 -0.297743 74.9781 3.39761C78.9442 5.61888 82.2607 9.01789 84.24 13.116C84.443 13.506 84.651 13.8961 84.8693 14.2836C86.9551 14.2886 89.1272 14.8889 90.6852 16.3275C94.0221 18.9591 94.6539 24.1716 92.4209 27.6973C91.142 29.5918 89.0409 30.8278 86.7876 31.1723C88.9471 32.3298 90.5152 34.2851 91.6469 36.4152C92.7152 38.3477 93.3445 40.5588 93.2633 42.775C97.9679 44.4619 102.129 47.6431 104.928 51.7842C105.959 53.2659 106.743 54.897 107.491 56.5357C112.975 68.7033 118.501 80.8557 123.972 93.0308C126.314 98.2231 126.687 104.297 124.789 109.687C122.204 117.713 114.606 123.771 106.25 124.762C104.413 125.035 102.546 124.949 100.708 124.739C93.0832 123.888 85.4605 123.039 77.8353 122.191C71.9584 121.596 66.0587 120.856 60.3798 119.167C58.6086 118.734 56.9034 117.842 55.0358 117.992C46.4895 117.994 37.9431 118.009 29.3943 117.979C27.4607 118.035 25.5093 117.867 23.5885 118.062C20.7744 119.506 17.5238 119.785 14.4204 119.473C13.2151 118.989 12.0732 118.359 10.9136 117.781C8.22892 116.447 5.968 114.349 4.33892 111.844C0.0530744 105.591 -0.692962 97.2505 2.01456 90.2245C3.00419 87.6461 4.23995 85.1741 5.34631 82.6464C9.10182 74.3438 12.8523 66.0388 16.6052 57.7337C17.5974 55.553 18.554 53.3165 20.003 51.3891C22.8069 47.2935 27.0725 44.358 31.7009 42.656C33.028 42.1216 34.4693 41.9899 35.8649 41.7113C35.025 39.9484 34.6596 37.9121 35.0758 35.9871C35.6721 33.4417 37.6665 31.2609 40.1888 30.5163C37.9761 29.0853 36.3496 26.7222 36.0045 24.0931C35.6239 21.6363 36.2988 19.0326 37.8645 17.095C38.9759 15.6969 40.473 14.6306 42.1199 13.9391C43.1425 11.2442 44.9695 8.93938 46.9894 6.92073C49.0752 4.84637 51.6178 3.2887 54.2923 2.08815ZM50.5393 5.07686C47.4766 6.95873 45.2055 9.85372 43.4622 12.9437C46.4996 12.926 49.4533 11.9737 52.0669 10.4591C53.5209 9.71188 54.7262 8.57465 55.7311 7.29812C55.896 6.96126 56.472 6.77383 56.6344 7.22721C57.5885 9.54472 58.5629 11.9078 60.1565 13.8783C62.6711 13.2071 65.5436 13.3844 67.7512 14.8636C70.1873 16.4137 71.9914 19.0832 72.1437 22.0061C74.4147 22.6114 76.8025 22.1859 79.1243 22.3126C79.1269 20.8613 79.2538 19.3669 79.8907 18.0397C80.7154 16.3453 82.2404 14.97 84.0471 14.3976C82.6033 11.3709 80.553 8.64304 78.0028 6.45723C74.1838 3.33429 69.3778 1.25487 64.4043 1.14849C59.5043 0.86988 54.5562 2.26292 50.5393 5.07686ZM51.8487 11.538C49.4863 12.769 46.8625 13.6225 44.1829 13.5719C45.6039 13.6428 47.0756 13.4326 48.423 14.0379C51.0341 15.1371 53.2671 17.3432 54.0563 20.104C54.7338 17.3939 56.9465 15.3904 59.3445 14.1341C58.0072 12.2244 56.8983 10.1399 56.132 7.93385C55.188 9.60297 53.4625 10.6085 51.8487 11.538ZM42.9522 14.6002C42.8786 14.6382 42.7263 14.7116 42.6528 14.7471C40.4832 19.6379 40.1863 25.3367 41.7798 30.4352C43.3328 31.2584 45.307 31.3572 47.0376 30.9849C49.8364 30.453 52.1405 28.2418 53.1149 25.6153C53.7214 24.2577 53.5945 22.733 53.5184 21.2893C53.0032 18.521 51.0849 16.011 48.4611 14.932C46.7153 14.2684 44.7589 14.0708 42.9522 14.6002ZM60.6208 14.6179C61.3694 15.4968 62.1814 16.325 62.9706 17.1684C65.3914 19.2732 68.2232 20.9955 71.3494 21.8085C71.083 19.6329 69.9792 17.5256 68.2308 16.1756C66.178 14.4102 63.2015 13.8961 60.6208 14.6179ZM38.7501 17.247C36.6845 19.5873 36.0933 23.1256 37.3519 25.9876C38.0269 27.6872 39.3768 28.9941 40.8156 30.073C39.4225 25.1316 39.7042 19.7215 41.6809 14.9776C40.5974 15.5804 39.5088 16.244 38.7501 17.247ZM54.749 20.494C54.0538 23.1965 54.6476 26.2688 56.6116 28.3153C58.3777 30.5517 61.4303 31.5193 64.1987 31.0887C68.2156 30.5897 71.5804 26.7095 71.3393 22.6494C69.4565 22.077 67.5964 21.3703 65.9242 20.3218C63.4933 18.9946 61.575 16.9354 59.8342 14.8231C57.3551 15.7754 55.5078 17.984 54.749 20.494ZM80.9539 17.7839C79.812 19.3163 80.0125 21.3146 79.9211 23.1104C77.3456 23.2573 74.7598 23.1661 72.1843 23.1332C72.0726 26.8412 69.4463 30.3263 65.909 31.461C63.7242 32.2259 61.2552 32.0942 59.1389 31.1799C56.7537 30.0224 54.6704 27.9556 54.0487 25.3165C53.6046 27.1274 52.4653 28.7231 50.9986 29.8578C52.5135 29.5918 54.0639 29.7641 55.5915 29.8248C55.5661 29.9667 55.5205 30.2478 55.4976 30.3896C53.9802 30.8911 52.1253 29.9287 50.7322 30.9494C50.108 31.8207 50.2551 33.1327 51.3209 33.5708C52.5947 33.8596 53.9218 33.6468 55.2134 33.7836C55.7133 33.8824 55.5357 34.5992 55.0485 34.5029C53.7543 34.5029 52.4348 34.6422 51.1635 34.3737C49.5649 33.8545 49.0168 31.6662 50.1612 30.4352C47.8978 32.1069 44.769 32.3247 42.1402 31.4661C43.716 36.1112 47.0909 39.9611 51.0874 42.7244C52.9728 43.7806 54.9191 44.7456 56.9922 45.3864C62.8564 47.0732 69.4311 46.364 74.6888 43.2157C77.2238 41.8936 79.2563 39.8269 81.1163 37.6993C82.7022 35.516 84.0395 33.1377 84.9378 30.5897C86.4298 30.4048 88.0107 30.3111 89.3226 29.4956C93.1111 27.4389 94.0043 21.9276 91.6038 18.5032C90.3325 16.5175 88.0335 15.3322 85.7142 15.1295C83.7223 14.7091 81.9816 16.244 80.9539 17.7839ZM36.4283 34.5966C35.2255 36.7444 35.5985 39.4444 36.6845 41.5568C37.6437 41.5365 38.6257 41.3389 39.5748 41.5086C40.0823 42.0329 39.1967 42.2963 38.8034 42.2254C36.1948 42.2457 33.6497 42.8637 31.1934 43.697C25.5855 45.8093 20.8835 50.2012 18.4221 55.6594C13.6668 66.1198 8.95466 76.598 4.21713 87.0661C3.00166 89.6749 1.89531 92.3799 1.50453 95.2496C0.423555 101.792 2.33683 108.815 6.83076 113.734C8.76434 115.925 11.4439 117.224 14.0576 118.42C15.7273 119.06 17.5416 118.648 19.2645 118.513C22.2334 118.035 25.2531 116.629 26.8796 113.997C27.3516 113.334 27.6256 112.528 27.5647 111.71C27.5394 103.241 27.5901 94.7683 27.5394 86.2961C24.9892 87.0838 22.2309 86.7343 19.7213 85.9694C16.8818 85.1488 14.4204 83.2745 12.6746 80.9165C10.4898 84.199 8.35326 87.5119 6.14055 90.7741C5.84366 91.2528 5.16107 90.6272 5.57215 90.2498C6.6988 88.4921 7.88128 86.7698 9.03077 85.0221C16.085 74.4756 22.6876 63.6276 29.9119 53.1924C31.2314 51.3131 32.4266 49.335 33.911 47.5747C35.2382 46.0449 37.8746 46.2551 39.0774 47.8381C39.897 48.8968 39.9731 50.4823 39.2246 51.5993C38.2578 53.1038 37.2149 54.5576 36.2278 56.0494C38.5648 56.09 40.9882 55.8569 43.2313 56.6573C44.6193 57.174 45.5354 58.5417 45.6572 59.993C46.6443 60.1931 47.611 60.6743 48.1541 61.5583C49.2883 63.1007 48.9229 65.3701 47.54 66.6391C51.6406 66.6087 55.7438 66.6365 59.8444 66.6239C61.4202 66.5985 63.1127 67.176 64.0414 68.5133C64.7265 69.3213 64.9295 70.4028 64.9219 71.4362C64.9295 77.1603 64.9194 82.8844 64.927 88.606C68.2892 89.5229 71.7732 90.5259 74.5543 92.7168C74.9831 93.0055 75.2876 93.5577 75.851 93.5956C80.3119 94.1123 84.7779 94.6037 89.2388 95.128C84.9479 87.0534 80.657 78.9763 76.4016 70.8866C76.696 70.1622 77.2212 70.6839 77.3989 71.1677C81.5223 78.9307 85.6534 86.6887 89.7641 94.4593C91.6952 91.0603 95.3898 88.6364 99.3407 88.5402C99.3584 88.7023 99.3914 89.029 99.4092 89.1911C98.6505 89.4216 97.8461 89.4115 97.0925 89.6394C95.0802 90.2422 93.1771 91.3415 91.8347 92.9776C91.1141 93.659 90.7867 94.6772 89.9468 95.2369C93.7023 95.6143 97.4629 96.0119 101.201 96.5236C101.569 97.0732 100.896 97.3315 100.47 97.1745C92.195 96.2424 83.9152 95.3458 75.6429 94.4011C75.5109 103.311 75.3942 112.222 75.2673 121.13C82.5449 121.945 89.82 122.753 97.0975 123.566C99.4803 123.787 101.855 124.245 104.258 124.098C112.066 123.946 119.514 119.088 122.934 112.105C125.416 107.179 125.911 101.28 124.216 96.0271C123.581 93.9325 122.594 91.9747 121.714 89.9788C116.441 78.3457 111.244 66.6745 105.923 55.0616C102.355 47.5038 94.2986 42.4002 85.9528 42.2254C85.5392 42.2001 84.7424 42.228 84.9708 41.5922L85.2829 41.4529C87.7214 41.4073 90.1524 41.8379 92.4818 42.542C92.5173 40.3486 91.817 38.1983 90.7132 36.3164C89.4723 34.2319 87.7443 32.2867 85.4098 31.4281C85.3209 31.9245 84.7297 32.5223 85.1636 32.9832C86.8029 34.741 87.0109 38.0108 84.986 39.5609C83.5066 40.7184 81.5248 40.6829 79.774 40.3258C78.4976 41.6479 77.0588 42.813 75.4729 43.7426C70.342 47.8964 66.4546 53.4027 63.6354 59.3269C63.5111 59.3395 63.2573 59.3674 63.1304 59.3826C62.3641 58.2935 61.9327 57.0094 61.2907 55.8468C58.9486 51.8273 56.099 48.0635 52.6201 44.9507C51.5746 43.7578 50.0699 43.1423 48.9305 42.0608C48.2251 41.5365 47.6288 40.7057 46.6772 40.6728C45.6242 40.574 44.6066 40.2524 43.6703 39.7737C42.6223 39.1278 41.4982 38.3502 41.1734 37.0889C40.7547 35.8048 41.4703 34.5738 42.0615 33.4822C41.79 32.6464 41.3865 31.8612 41.0744 31.0431C39.1814 31.6282 37.324 32.7654 36.4283 34.5966ZM80.4261 39.6648C82.0247 39.8674 84.0826 39.9003 85.0621 38.3654C86.1279 36.8736 85.6864 34.8246 84.5901 33.4797C83.5142 35.7313 82.1973 37.8893 80.4261 39.6648ZM42.0767 37.2611C42.9141 38.8391 44.7234 39.566 46.4032 39.837C44.8629 38.2211 43.5663 36.3747 42.5589 34.3839C41.9118 35.1614 41.6428 36.3189 42.0767 37.2611ZM53.9675 45.1204C57.8372 48.8867 61.1537 53.2735 63.3385 58.2302C64.3002 55.9988 65.5639 53.9219 66.9266 51.9159C68.7104 49.4946 70.578 47.1011 72.8212 45.0824C66.8986 47.6887 59.8926 47.7393 53.9675 45.1204ZM35.3193 47.4835C34.5936 47.7191 34.2257 48.4333 33.7943 49.0007C32.2338 51.0902 30.828 53.2887 29.3435 55.4314C27.8134 57.7034 26.2325 59.9449 24.7633 62.2599C20.8911 68.2499 17.0011 74.2324 13.139 80.2301C16.2551 84.7258 22.2791 86.9698 27.5622 85.4654C27.5546 80.8734 27.5622 76.284 27.5571 71.692C27.5495 70.5244 27.8312 69.3162 28.5747 68.3892C29.3917 67.2495 30.8153 66.7024 32.183 66.6416C34.1318 66.5884 36.0831 66.6619 38.0345 66.6137C39.8894 66.4061 41.7545 66.6011 43.6145 66.5985C44.8629 66.6213 46.3778 66.8138 47.2659 65.7247C48.7047 64.2481 47.9841 61.2999 45.8728 60.9276C43.6957 60.5933 41.4754 60.6186 39.2804 60.4312C37.5016 60.3856 35.601 59.9094 33.9364 60.7706C33.0559 61.2771 32.0384 61.7736 31.5791 62.7284C31.4217 62.9868 31.2898 63.2628 31.0792 63.4807C30.7645 63.62 30.3763 63.4984 30.4702 63.0982C30.9193 62.1965 31.541 61.3607 32.3403 60.7351C33.5989 60.0031 35.0149 59.3877 36.5069 59.494C39.2982 59.6435 42.0894 59.8157 44.8807 59.9474C44.6929 59.2281 44.495 58.4429 43.8784 57.9668C42.6604 57.0119 41.0414 56.979 39.5697 56.8726C37.6082 56.8599 35.6416 56.7434 33.6852 56.8878C32.1982 57.0372 30.8204 57.8376 29.9703 59.066C29.7267 59.3497 29.2293 60.074 28.8969 59.532C28.9324 58.6354 29.8104 58.0554 30.4067 57.4805C31.7161 56.2597 33.5786 56.0393 35.2914 55.9937C36.309 54.4968 37.3341 53.0025 38.3441 51.498C38.811 50.8293 39.0673 49.9859 38.8668 49.1754C38.5014 47.7165 36.6845 46.9364 35.3193 47.4835ZM29.648 68.3715C28.6026 69.2377 28.3108 70.6612 28.3818 71.958C28.3894 85.63 28.3793 99.3046 28.3844 112.977C28.3082 114.137 28.8157 115.251 29.61 116.074C30.4372 116.847 31.6044 117.065 32.7057 117.032C39.8513 117.004 46.9995 117.075 54.1451 116.994C51.699 115.829 49.2401 114.486 47.4816 112.376C46.5884 111.249 45.7891 109.92 45.7916 108.44C45.7993 107.23 46.6316 105.984 47.8724 105.761C46.0556 104.193 45.4516 101.435 46.3677 99.2261C46.6087 98.4282 47.2989 97.9115 47.9891 97.5114C47.6288 96.4602 47.2786 95.2926 47.6897 94.2035C48.0652 92.9321 49.4076 92.1064 50.7093 92.1697C53.0362 92.3216 55.084 93.5171 57.1876 94.3986C59.4181 95.2977 61.6967 96.1816 64.1099 96.4045C64.1226 87.907 64.1784 79.4094 64.0871 70.9094C64.0947 68.9844 62.2423 67.3837 60.3544 67.4572C51.1331 67.4369 41.9143 67.4572 32.6956 67.447C31.6247 67.4496 30.427 67.5509 29.648 68.3715ZM64.9245 89.3912C64.9245 91.6783 64.9219 93.968 64.9245 96.2576C66.0816 95.8093 67.1549 95.0849 68.3653 94.8241C68.4186 94.9279 68.5252 95.1331 68.5785 95.2369C68.1268 95.8625 67.2108 95.9816 66.5536 96.364C65.668 96.6502 64.8686 97.4734 63.8917 97.1568C60.9431 96.8503 58.1823 95.7131 55.5078 94.5024C53.7848 93.8819 52.0923 92.7801 50.1892 93.0359C49.0143 93.1524 48.2023 94.3428 48.2683 95.4725C48.3342 96.5286 48.7935 97.5189 49.3746 98.3928C50.9453 100.452 53.2874 101.741 55.6549 102.686C57.8296 103.643 60.0753 104.439 62.4022 104.943C62.8615 104.948 62.9883 105.285 62.9782 105.702C62.8386 105.708 62.562 105.715 62.4225 105.72C59.7556 105.216 57.1952 104.271 54.7262 103.165C52.2572 102.06 49.8694 100.533 48.3165 98.2712C46.6899 99.0817 46.4819 101.224 46.9513 102.787C47.6618 105.203 49.806 106.774 51.8817 107.995C54.5816 109.441 57.4033 110.738 60.4102 111.399C61.0015 111.556 61.6232 111.647 62.1687 111.946C62.3616 112.533 61.8591 112.693 61.3922 112.513C56.7029 111.358 52.0212 109.578 48.319 106.396C47.2761 106.609 46.4539 107.622 46.6087 108.704C46.8802 110.446 47.9485 112.012 49.3061 113.108C51.567 115.162 54.4547 116.305 57.2713 117.381C62.8412 119.22 68.6216 120.436 74.4553 121.046C74.5746 112.093 74.7319 103.137 74.8968 94.1807C73.8945 92.9979 72.4913 92.2482 71.1185 91.577C69.1215 90.6728 67.0687 89.8674 64.9245 89.3912ZM25.0881 117.029C26.6106 117.039 28.1331 117.034 29.6556 117.062C28.5772 116.467 27.9986 115.337 27.6612 114.203C26.976 115.292 26.1158 116.257 25.0881 117.029ZM48.0196 21.6692C49.433 20.8005 51.4274 22.1707 51.1179 23.7968C50.9961 25.4 48.8138 26.2156 47.6618 25.1113C46.5377 24.24 46.7508 22.2974 48.0196 21.6692ZM58.1417 21.6211C59.3927 20.9575 61.0954 21.8997 61.1639 23.3206C61.4075 24.9897 59.2861 26.2789 57.9184 25.2785C56.5608 24.4832 56.6928 22.2467 58.1417 21.6211ZM58.7101 35.6629C58.9461 35.511 59.6515 35.4527 59.4434 35.9466C59.2227 36.4582 58.5782 36.5773 58.1341 36.8331C57.3525 37.1117 56.406 37.4714 55.6194 37.1877C55.594 37.0889 55.5484 36.8913 55.5255 36.7926C56.1142 36.3595 56.8983 36.4836 57.5606 36.2278C57.9488 36.0581 58.3168 35.8352 58.7101 35.6629ZM82.9788 49.9226L83.1818 49.7706C83.3036 49.8061 83.5472 49.8745 83.669 49.9074C83.8137 50.6368 82.9687 50.8927 82.5703 51.341C79.7537 53.5166 77.6044 56.4673 76.2544 59.7448C76.0489 60.0943 75.8839 60.9149 75.313 60.5629C75.1252 60.069 75.5211 59.6106 75.6683 59.1572C77.1172 55.4365 79.8628 52.3591 82.9788 49.9226ZM57.9438 71.8288C59.0755 71.4843 60.6944 71.578 61.2273 72.8267C61.5318 73.8094 61.5724 75.1062 60.7426 75.8559C60.0854 76.4309 59.1288 76.4005 58.3193 76.2916C56.2766 75.9623 56.1117 72.5582 57.9438 71.8288ZM58.1772 72.5861C57.2992 73.0926 57.3221 74.4629 57.8499 75.2075C58.5959 75.7495 60.0068 75.7799 60.5016 74.8757C60.6691 74.2957 60.6843 73.6397 60.4635 73.0749C60.0169 72.2872 58.9207 72.3936 58.1772 72.5861Z" fill="black"/>
</svg>
