<svg width="375" height="292" viewBox="0 0 375 292" fill="none" xmlns="http://www.w3.org/2000/svg">
<path d="M477.474 278.35C466.415 276.2 455.251 274.057 443.934 274.27C438.504 274.371 433.095 275.146 427.856 276.584C422.21 278.134 416.901 280.758 411.572 283.142C405.898 285.679 400.084 288.45 394.013 289.892C388.06 291.305 381.762 290.558 375.927 288.988C370.281 287.466 365.105 284.89 360.051 282.004C355.196 279.233 350.466 276.71 344.914 275.701C334.21 273.76 323.13 275.279 312.346 275.331C308.453 275.348 304.191 274.954 300.601 273.22C301.315 272.954 301.953 272.574 302.427 272.019C303.748 270.476 302.535 268.798 300.942 268.257C299.433 267.744 296.958 267.845 295.857 269.157C294.912 270.284 295.606 271.419 296.641 272.333C296.265 272.34 295.892 272.34 295.526 272.34C292.783 272.34 289.866 272.124 287.21 271.384C285.829 271 284.704 270.235 283.763 269.255C284.313 267.363 284.655 265.548 284.78 264.065C284.885 262.836 284.847 261.601 284.69 260.369C285.464 258.764 286.286 257.176 286.983 255.532C288.423 252.132 288.925 248.457 289.169 244.796C289.423 240.968 289.521 237.045 288.98 233.237C288.377 229.003 287.248 224.885 285.917 220.83C283.264 212.754 279.939 204.911 277.552 196.745C277.2 195.54 276.858 194.333 276.52 193.125C276.074 190.815 275.596 188.508 275.084 186.211C274.122 181.919 273.049 177.664 271.686 173.483C270.365 169.438 268.849 165.459 267.475 161.432C266.085 157.362 264.844 153.23 263.425 149.168C265.6 151.813 267.329 154.811 269.023 157.774C270.745 160.786 271.226 164.451 273.237 167.292C273.631 167.85 274.568 167.686 274.568 166.929C274.575 154.12 275.53 140.142 269.626 128.339C266.785 122.664 262.164 118.675 256.705 115.628C251.122 112.511 244.869 109.9 242.004 103.775C238.48 96.2402 236.999 87.864 235.898 79.6762C235.357 75.6556 235.309 71.5722 234.319 67.6214C233.468 64.2186 230.931 62.1734 228.909 59.486C224.459 53.5598 224.103 45.3057 223.026 38.2487C222.562 35.2124 222.803 31.5478 221.011 28.9127C219.182 26.2219 215.599 26.1835 212.779 25.3424C209.283 24.3023 209.712 21.3706 210.426 18.4773C211.082 15.8214 211.775 13.12 210.932 10.4222C209.475 5.75943 204.16 3.07904 199.876 1.71092C194.603 0.0286909 188.831 -0.292398 183.345 0.227627C177.671 0.765101 172.596 2.6323 167.852 5.81876C164.977 7.74879 162.408 10.1151 160.111 12.7012C157.636 15.4863 155.639 18.6379 153.402 21.6115C148.275 28.4346 142.437 34.7098 137.404 41.6027C132.632 48.1397 127.99 54.9035 124.842 62.4002C121.967 69.2548 120.527 76.5805 117.262 83.3059C114.337 89.3298 110.096 94.708 104.676 98.6623C100.246 101.898 95.4429 104.599 90.7899 107.492C82.1566 112.867 71.9548 119.554 69.5673 130.185C68.9539 132.921 69.0793 135.755 69.2327 138.537C69.4558 142.603 69.9437 146.651 69.8183 150.731C69.6998 154.626 68.4311 158.497 67.5109 162.255C66.6047 165.951 65.7891 169.738 65.6811 173.553C65.5033 179.636 66.2143 185.747 68.4973 191.419C70.7837 197.101 74.5166 202.039 78.4202 206.695C78.5422 206.841 78.6886 206.908 78.8315 206.918C78.0508 210.363 77.2038 213.766 76.681 217.273C76.1164 221.043 75.7609 224.84 75.4785 228.637C74.9035 236.396 74.6734 244.182 73.7777 251.916C73.1468 257.378 71.676 263.346 73.3699 268.749C74.182 271.342 76.2035 273.509 78.5562 274.797C79.5704 275.352 80.6265 275.645 81.7035 275.757C81.8882 277.568 81.8289 279.502 80.4731 280.755C78.6921 282.402 75.4576 282.517 73.1956 282.531C67.6329 282.563 62.2027 281.058 56.6783 280.643C49.3589 280.092 42.1093 281.027 34.8806 282.084C28.098 283.079 21.2457 283.383 14.4178 283.966C7.52018 284.559 0.615603 285.117 -6.30989 285.131C-7.23004 285.131 -7.23004 286.566 -6.30989 286.562C1.56363 286.548 9.40578 285.822 17.2445 285.156C21.1655 284.821 25.0901 284.51 29.0216 284.308C32.8974 284.109 36.801 283.205 40.6524 282.706C47.3479 281.837 54.0851 281.575 60.7806 282.552C66.1272 283.334 71.6969 284.587 77.0993 283.627C79.1696 283.261 81.449 282.385 82.5121 280.454C83.2719 279.072 83.2893 277.408 83.1325 275.809C84.1572 275.781 85.1958 275.631 86.224 275.418C87.9145 275.066 89.096 274.218 89.8384 272.661C90.7272 270.797 91.3859 268.913 91.8355 266.892C92.1388 265.531 91.9506 264.257 90.5808 263.618C88.7684 262.774 86.0149 262.536 84.1014 263.067C82.3064 263.562 81.6303 265.29 81.2817 266.944C80.7798 269.307 81.1423 271.607 81.4769 273.966C81.4943 274.085 81.5118 274.207 81.5292 274.333C78.7932 273.89 76.3499 271.743 75.1439 269.335C73.8648 266.78 73.9868 263.58 74.175 260.809C74.3632 257.989 74.8198 255.183 75.1649 252.377C76.1164 244.65 76.3394 236.856 76.8866 229.098C77.169 225.112 77.5489 221.133 78.1414 217.183C78.7165 213.347 79.7098 209.626 80.5463 205.847C82.1914 198.42 83.359 190.899 84.4012 183.367C86.1334 170.862 87.2941 158.127 91.4486 146.124C92.7382 142.397 94.3659 138.729 96.5966 135.486C97.921 134.164 99.2559 132.848 100.675 131.63C102.633 129.944 104.847 128.443 106.959 126.95C109.517 125.145 112.047 123.885 115.177 124.922C117.192 125.588 118.931 126.307 121.095 125.955C122.179 125.777 123.117 125.201 124.055 124.611C123.615 126.841 123.521 129.047 123.901 131.399C124.382 134.369 125.606 137.169 126.466 140.037C127.516 143.528 127.693 147.175 127.477 150.797C127.373 152.546 127.136 154.281 126.867 156.008C126.595 157.729 126.087 159.491 125.958 161.226C125.682 164.939 125.675 168.66 125.672 172.38C125.672 179.891 125.205 187.325 124.466 194.797C124.173 197.743 123.821 200.685 123.403 203.617C123.18 203.742 122.96 203.868 122.748 203.997C118.126 206.779 114.288 210.747 110.374 214.404C108.248 216.39 106.147 218.285 104.247 220.505C101.975 223.161 99.9077 225.988 97.8269 228.794C93.8431 234.172 89.225 239.4 86.8793 245.77C86.6005 246.527 86.3879 247.309 86.2031 248.094C85.987 249.016 87.2418 249.309 87.5799 248.475C88.7928 245.487 90.4518 242.734 92.5744 240.304C94.6483 237.931 97.2344 236.148 99.479 233.956C102.016 231.481 104.327 228.787 106.61 226.082C108.848 223.43 110.967 220.54 113.476 218.139C117.223 214.558 122.437 212.366 124.191 207.117C124.469 206.283 124.626 205.4 124.748 204.51C125.09 204.335 125.445 204.168 125.811 204.007C130.004 207.26 132.064 212.356 133.375 217.35C134.73 222.526 135.292 227.866 136.215 233.122C136.633 235.502 137.073 237.903 137.616 240.259C137.669 240.493 137.728 240.741 137.791 240.995C137.257 241.641 136.654 242.238 136.062 242.772C132.953 245.557 129.126 247.56 125.445 249.473C122.064 251.232 118.562 252.802 115.289 254.76C111.737 256.886 108.98 260.142 106.37 263.294C101.804 268.808 97.0776 275.342 89.5421 276.612C88.73 276.748 88.9461 278.018 89.7303 278.018C93.4841 278.011 97.2344 277.858 100.971 277.474C102.675 277.299 104.373 277.062 106.063 276.79C107.987 276.479 110.04 276.214 111.891 275.586C114.487 274.706 116.969 273.52 119.22 271.946C121.413 270.413 123.344 268.532 125.24 266.655C131.004 260.941 136.592 254.858 141.112 248.094C141.597 249.536 142.224 250.918 143.099 252.059C143.402 252.453 144.057 252.586 144.333 252.059C145.619 249.599 144.967 246.642 143.925 243.952C143.96 243.92 143.991 243.885 144.026 243.854C146.305 241.529 148.017 238.402 149.512 235.54C152.52 229.785 154.698 223.636 157.71 217.877C160.341 212.834 163.485 208.025 167.134 203.665C168.671 201.83 170.327 200.057 172.115 198.437C175.384 197.128 178.615 195.718 181.818 194.26C183.076 193.687 184.331 193.101 185.582 192.511C186.506 192.734 187.43 192.951 188.36 193.15C197.412 195.104 209.196 196.476 214.177 205.473C214.32 205.732 214.448 206 214.577 206.269C214.588 206.391 214.644 206.513 214.755 206.625C214.832 206.751 214.929 206.831 215.038 206.873C217.516 208.949 218.948 211.682 220.663 214.37C222.908 217.891 225.009 221.503 226.996 225.178C230.924 232.452 234.273 240.025 237.177 247.763C241.488 259.259 244.346 272.86 256.186 279.076C260.515 281.348 265.178 281.673 269.901 282.465C273.171 283.016 278.576 284.116 280.047 280.064C280.417 279.041 280.525 277.865 280.361 276.752C281.595 274.958 282.585 272.815 283.313 270.682C284.432 271.68 285.749 272.445 287.304 272.878C289.782 273.569 292.574 273.687 295.129 273.75C296.129 273.774 297.366 273.802 298.576 273.663C298.764 273.771 298.935 273.869 299.078 273.949C303.365 276.319 308.178 276.765 312.995 276.741C318.293 276.717 323.59 276.35 328.888 276.284C334.831 276.211 340.78 276.211 346.618 277.474C352.3 278.702 357.273 282.109 362.292 284.883C371.741 290.105 382.912 293.427 393.72 291.396C400.611 290.101 407.313 286.587 413.671 283.746C420.589 280.653 427.344 277.746 434.862 276.486C448.929 274.13 463.306 277.024 477.105 279.708C478.004 279.882 478.387 278.504 477.485 278.329L477.474 278.35ZM82.8188 266.623C83.4566 264.086 85.5548 264.17 87.7925 264.431C88.5767 264.522 89.7234 264.609 90.3473 265.164C90.7864 265.555 90.4693 266.463 90.3577 266.927C89.8907 268.885 89.2668 270.843 88.263 272.602C87.3533 274.2 84.7532 274.445 82.9582 274.448C82.9338 274.267 82.9094 274.089 82.885 273.914C82.5504 271.426 82.1949 269.101 82.8153 266.627L82.8188 266.623ZM283.348 264.075C283.254 265.377 283.017 266.679 282.686 267.956C282.393 267.541 282.118 267.105 281.863 266.655C282.142 266.648 282.407 266.487 282.49 266.145C282.717 265.178 283.027 264.243 283.383 263.332C283.376 263.58 283.369 263.831 283.351 264.079L283.348 264.075ZM256.556 224.02C256.695 224.833 256.786 225.663 256.82 226.494C255.203 222.33 254.266 217.908 252.75 213.71C252.645 213.42 252.537 213.134 252.425 212.851C253.227 214.335 254.036 215.818 254.848 217.298C255.531 219.51 256.162 221.734 256.556 224.02ZM214.497 200.465C212.88 198.818 211.883 196.556 210.493 194.741C209.834 193.883 209.158 193.178 208.154 192.762C206.871 192.232 205.425 192.061 204.058 191.883C199.723 191.317 195.491 190.218 191.197 189.852C194.805 188.103 198.398 186.334 202.006 184.595C204.982 183.165 207.882 181.591 210.883 180.208C213.971 178.788 217.111 177.476 220.22 176.097C220.443 175.999 220.576 175.71 220.576 175.479V174.91C220.576 174.499 220.248 174.226 219.861 174.195C215.675 173.867 211.427 174.293 207.31 175.075C207.108 175.113 206.906 175.155 206.704 175.193C209.489 173.434 212.186 171.504 214.616 169.288C215.037 168.901 215.532 168.443 216.027 167.93C218.035 170.283 219.9 172.785 222.643 174.296C224.054 175.074 225.63 175.444 227.222 175.574C226.504 176.914 225.783 178.254 225.062 179.594C224.633 179.193 224.204 178.788 223.775 178.387C223.169 177.818 222.287 178.533 222.653 179.256C223.064 180.062 223.511 180.844 223.981 181.601C220.649 187.803 217.366 194.033 214.497 200.468V200.465ZM184.328 190.064C183.902 190.138 183.481 190.229 183.062 190.333C180.239 189.579 177.423 188.787 174.589 188.03C167.552 186.149 160.501 184.264 153.747 181.5C153.186 181.269 152.628 181.032 152.074 180.784C154.458 178.453 156.594 175.926 158.372 173.186C158.473 173.099 158.543 172.984 158.581 172.855C160.055 170.53 161.268 168.056 162.147 165.421C162.443 165.428 162.739 165.421 163.028 165.382C163.715 165.295 164.029 164.465 163.387 164.049C163.161 163.903 162.924 163.767 162.68 163.641C163.014 162.395 163.279 161.118 163.461 159.805C163.589 158.86 163.725 157.914 163.868 156.968C164.245 157.073 164.625 157.17 165.008 157.251C165.475 157.348 165.956 157.408 166.434 157.415C166.995 157.425 167.298 156.804 167.05 156.336C166.448 155.205 165.489 154.392 164.388 153.76C164.593 152.588 164.82 151.415 165.071 150.249C167.113 150.756 169.156 151.303 171.209 151.82C170.557 154.591 169.741 157.331 169.295 160.137C169.149 161.065 169.037 162.018 169.128 162.957C169.17 163.397 169.556 163.801 170.034 163.648C174.921 162.06 178.89 158.982 182.787 155.785C185.136 155.474 187.437 155.191 189.81 155.118C190.905 155.083 191.992 155.104 193.079 155.174C193.194 155.205 193.31 155.237 193.425 155.272C194.268 155.519 195.104 155.792 195.934 156.081C195.84 156.148 195.742 156.218 195.648 156.284C192.748 158.329 189.702 160.172 186.534 161.77C185.816 162.133 186.325 163.369 187.085 163.079C191.162 161.512 194.976 159.285 198.83 157.191C200.402 157.837 201.95 158.542 203.473 159.285C204.759 159.914 206.073 160.563 207.373 161.257C207.091 161.467 206.805 161.673 206.516 161.878C204.1 162.793 201.751 163.945 199.489 165.1C196.767 166.489 193.912 167.948 191.504 169.853C190.873 170.352 191.588 171.145 192.201 171.05C194.836 170.635 197.509 168.956 199.806 167.7C202.298 166.339 204.731 164.852 207.059 163.222C207.844 162.929 208.635 162.657 209.433 162.419C210.451 163.023 211.444 163.662 212.375 164.353C213.358 165.082 214.232 165.937 215.055 166.841C214.832 167.075 214.612 167.302 214.396 167.515C212.967 168.956 211.357 170.216 209.722 171.41C207.181 173.263 204.501 174.935 201.758 176.478C199.583 177.196 197.489 178.139 195.624 179.416C194.979 179.859 195.362 180.966 196.175 180.725C198.342 180.083 200.437 178.945 202.431 177.772C204.156 177.217 205.93 176.802 207.683 176.457C211.047 175.793 214.529 175.434 217.972 175.532C215.233 176.732 212.479 177.905 209.761 179.158C206.502 180.659 203.344 182.365 200.113 183.925C196.119 185.855 192.138 187.817 188.141 189.736C186.879 189.75 185.607 189.852 184.321 190.071L184.328 190.064ZM161.526 201.816C158.996 203.313 156.608 205.107 154.587 207.246C152.502 209.455 151.195 212.031 150.45 214.966C149.672 218.034 149.547 221.238 149.163 224.369C148.766 227.614 147.916 230.825 146.839 233.911C145.845 236.745 144.584 239.477 143.13 242.105C142.841 241.467 142.552 240.852 142.283 240.283C141.868 239.394 141.398 238.5 140.92 237.6C141.028 236.549 140.872 235.45 140.352 234.301C140.101 233.743 139.505 233.893 139.202 234.263C138.268 232.298 137.519 230.277 137.355 228.145C136.985 223.311 138.055 218.442 138.313 213.626C138.516 209.846 138.366 205.274 135.027 202.824C133.029 201.358 130.652 201.205 128.335 201.7C134.601 194.305 142.865 189.042 150.087 182.638C150.383 182.376 150.673 182.111 150.962 181.842C157.086 184.578 163.516 186.512 169.982 188.274C173.464 189.223 176.942 190.249 180.438 191.206C177.165 192.553 174.168 194.741 171.554 197.062C168.117 198.462 164.712 199.927 161.526 201.816ZM141.795 243.871C141.687 243.934 141.583 243.973 141.482 243.997C141.436 243.805 141.394 243.617 141.349 243.428C141.112 242.402 140.875 241.334 140.694 240.252C141.227 241.355 141.74 242.472 142.193 243.61C142.064 243.704 141.935 243.791 141.795 243.871ZM139.554 241.885C139.488 241.714 139.425 241.536 139.362 241.355C139.383 241.324 139.408 241.292 139.429 241.261C139.467 241.47 139.509 241.676 139.551 241.885H139.554ZM161.474 163.069C160.902 162.831 160.324 162.615 159.759 162.395C157.929 161.68 156.078 161.002 154.252 160.28C152.353 159.526 150.47 158.716 148.675 157.732C147.417 157.041 145.967 156.204 145.228 154.919C144.503 153.663 145.814 152.57 146.894 152.162C148.752 151.464 150.937 152.047 152.753 152.595C156.096 153.607 159.208 155.401 162.516 156.542C162.289 158.064 162.08 159.589 161.857 161.114C161.763 161.77 161.631 162.423 161.477 163.072L161.474 163.069ZM158.916 164.943C159.529 165.065 160.17 165.201 160.822 165.299C160.052 167.539 158.968 169.7 157.72 171.71C156.748 171.214 155.695 170.841 154.688 170.447C152.809 169.71 150.917 169.002 149.041 168.258C147.107 167.494 145.183 166.695 143.318 165.766C142.207 165.211 140.669 164.555 139.938 163.487C139.477 162.817 140.9 162.343 141.516 162.217C143.175 161.882 145.023 162.161 146.675 162.402C150.802 163.002 154.827 164.133 158.912 164.943H158.916ZM152.314 178.6C152.258 178.467 152.164 178.348 152.032 178.275C150.53 177.423 148.714 177.273 147.051 176.938C145.734 176.673 143.608 176.296 144.364 174.509C146.291 169.968 152.67 172.638 156.72 173.239C156.458 173.616 156.197 173.989 155.929 174.352C154.817 175.856 153.604 177.263 152.314 178.6ZM164.098 155.565C164.116 155.457 164.133 155.348 164.151 155.244C164.381 155.404 164.597 155.575 164.799 155.76C164.565 155.704 164.328 155.638 164.095 155.568L164.098 155.565ZM163.07 153.097C162.077 152.668 161.045 152.33 160.094 152.005C157.943 151.269 154.562 150.511 153.308 148.333C156.852 148.459 160.285 149.101 163.694 149.911C163.509 150.759 163.377 151.447 163.3 151.858C163.22 152.27 163.147 152.682 163.074 153.097H163.07ZM172.09 146.899C172.049 147.332 171.993 147.764 171.93 148.194C171.512 147.552 170.958 147.021 170.093 146.721C168.654 146.218 167.354 146.697 166.172 145.967C166.385 145.283 166.615 144.606 166.873 143.943C167.305 142.829 167.89 141.437 168.894 140.714C169.807 140.058 170.822 140.777 171.379 141.573C172.415 143.056 172.251 145.199 172.087 146.899H172.09ZM230.283 130.799C229.847 127.902 228.376 125.236 228.035 122.332C235.295 124.039 242.154 127.232 248.274 131.49C251.355 133.633 254.374 136.129 256.796 139.008C257.793 140.194 258.622 141.524 259.337 142.917C258.183 141.905 256.977 140.959 255.726 140.083C255.391 139.036 255.015 138.003 254.576 136.991C254.402 136.582 253.729 136.516 253.454 136.844C253.126 137.235 252.826 137.647 252.554 138.076C250.752 137.046 248.856 136.149 246.866 135.389C241.718 133.427 235.929 131.214 230.46 132.621C230.429 132.01 230.373 131.403 230.283 130.799ZM275.129 193.443C275.262 194.127 275.391 194.811 275.52 195.495C278.817 213.312 280.054 231.412 280.668 249.515C280.204 248.719 279.723 247.948 279.232 247.208C277.423 244.472 275.352 241.913 273.387 239.292C271.17 236.336 269.246 233.23 267.399 230.03C264.729 225.402 262.188 220.704 259.333 216.184C257.619 213.466 255.754 210.876 253.753 208.394C252.941 204.486 253.14 200.221 252.99 196.263C252.83 192.022 252.614 187.789 252.335 183.555C251.767 174.994 251.3 166.433 251.265 157.851C251.24 152.019 250.728 145.482 253.136 140.016C253.136 140.016 253.136 140.013 253.14 140.009C253.373 140.153 253.607 140.292 253.84 140.439C254.071 140.585 254.29 140.742 254.517 140.892C255.437 143.803 256.036 146.819 256.768 149.785C257.72 153.645 259.253 157.202 261.146 160.688C263.031 164.161 264.973 167.644 266.949 171.064C269.114 174.809 270.724 178.837 272.08 182.938C273.226 186.403 274.164 189.932 275.133 193.45L275.129 193.443ZM282.431 261.824C282.393 260.079 282.351 258.334 282.302 256.589C282.675 257.751 282.971 258.952 283.16 260.163C282.905 260.715 282.661 261.266 282.428 261.824H282.431ZM252.398 208.914C252.481 209.305 252.575 209.696 252.673 210.084C252.293 209.351 251.913 208.618 251.533 207.885C251.822 208.227 252.112 208.569 252.398 208.914ZM253.781 138.798C253.781 138.798 253.781 138.798 253.781 138.802C253.781 138.802 253.781 138.802 253.778 138.802L253.781 138.798ZM223.476 152.623C225.093 151.237 226.219 149.244 227.174 147.377C228.244 145.287 229.422 142.906 229.798 140.582C230.14 138.456 230.453 136.268 230.485 134.094C231.837 133.713 233.259 133.563 234.618 133.595C238.069 133.671 241.175 135.005 244.399 136.041C246.995 136.875 249.505 137.954 251.882 139.28C249.825 143.458 249.836 148.843 249.804 153.268C249.752 160.936 250 168.6 250.442 176.254C250.937 184.836 251.39 193.408 251.791 201.997C251.857 203.407 251.864 204.862 251.99 206.286C251.143 205.306 250.275 204.342 249.383 203.397C249.278 203.285 249.17 203.177 249.065 203.065C246.051 197.146 243.022 191.23 239.603 185.559C234.249 176.68 227.083 169.476 218.641 163.512C218.593 163.477 218.544 163.442 218.495 163.407C218.502 163.041 218.45 162.674 218.324 162.311C217.62 160.28 215.369 159.983 213.344 160.151C212.894 159.896 212.441 159.648 211.988 159.407C213.591 157.99 215.139 156.256 215.351 154.294C215.424 153.614 215.316 153.076 215.076 152.647C215.184 152.734 215.288 152.825 215.397 152.912C215.86 153.3 216.334 153.673 216.812 154.043C217.233 154.368 217.899 154.612 218.261 154.972C218.805 155.506 219.474 156.109 220.241 156.256C220.694 156.34 221.144 156.06 221.144 155.565C221.144 155.041 221.154 154.514 221.168 153.977C221.991 153.705 222.772 153.226 223.472 152.626L223.476 152.623ZM221.235 152.399C221.51 147.161 222.542 141.594 225.529 137.374C226.431 136.097 227.676 135.193 229.07 134.589C229.028 137.664 228.463 140.784 227.327 143.597C226.24 146.292 224.922 149.091 222.894 151.206C222.357 151.764 221.803 152.155 221.238 152.399H221.235ZM228.39 174.192C225.724 174.16 223.361 173.389 221.332 171.637C219.701 170.227 218.401 168.461 216.996 166.827C217.505 166.185 217.944 165.498 218.216 164.782C223.193 168.248 227.742 172.401 231.579 176.795C237.379 183.43 241.412 191.345 245.354 199.205C239.115 192.836 232.639 186.704 226.145 180.603C227.104 178.826 228.059 177.046 229.007 175.266C229.261 174.788 228.944 174.195 228.39 174.188V174.192ZM211.245 161.931C211.381 161.899 211.514 161.868 211.646 161.837C212.033 161.753 212.584 161.659 213.183 161.606C214.459 162.332 215.717 163.107 216.951 163.924C216.947 163.941 216.944 163.955 216.941 163.969C216.759 164.597 216.418 165.187 216.01 165.732C214.567 164.238 212.988 163.037 211.245 161.931ZM205.982 148.867C206.453 148.955 206.923 149.038 207.391 149.136C208.816 149.436 210.43 149.625 211.747 150.267C212.455 150.612 213.11 151.063 213.737 151.548C212.057 150.881 209.506 151.223 208.116 151.572C205.362 152.27 202.685 153.485 200.186 154.86C200.151 154.853 200.116 154.842 200.085 154.835C201.73 153.579 203.316 152.232 204.675 150.731C205.153 150.204 205.648 149.558 205.982 148.867ZM210.594 158.682C207.903 157.348 205.111 156.242 202.239 155.408C202.354 155.352 202.466 155.293 202.581 155.237C204.721 154.183 206.965 153.279 209.297 152.762C210.44 152.511 213.295 152.015 213.866 153.541C214.215 154.469 213.42 155.547 212.908 156.245C212.249 157.142 211.437 157.938 210.59 158.682H210.594ZM205.533 157.983C206.85 158.483 208.154 159.041 209.447 159.655C209.416 159.68 209.388 159.704 209.356 159.729C209.098 159.938 208.837 160.144 208.576 160.346C206.031 158.908 203.41 157.603 200.73 156.437C202.354 156.867 203.961 157.387 205.533 157.98V157.983ZM211.127 160.486C210.925 160.531 210.719 160.573 210.517 160.622C210.628 160.531 210.743 160.441 210.859 160.35C210.949 160.395 211.036 160.441 211.127 160.486ZM219.743 154.385C219.68 154.329 219.617 154.274 219.558 154.218C219.621 154.218 219.684 154.218 219.746 154.218C219.746 154.274 219.746 154.329 219.746 154.382L219.743 154.385ZM206.376 147.562C206.432 147.032 206.345 146.498 206.049 145.985C205.125 144.386 202.657 144.292 201.065 144.316C200.688 144.32 200.312 144.344 199.939 144.379C198.165 142.55 197.21 140.236 196.708 137.737C197.342 137.835 197.98 137.912 198.59 138.031C200.343 138.376 202.155 139.186 203.713 140.041C206.673 141.66 208.931 144.253 211.036 146.829C211.66 147.59 212.274 148.438 212.918 149.283C210.928 148.183 208.614 147.977 206.38 147.562H206.376ZM204.916 147.244C204.017 147.011 203.145 146.704 202.333 146.236C202.04 146.068 201.769 145.887 201.504 145.705C202.277 145.726 203.041 145.831 203.769 146.047C204.592 146.292 204.902 146.731 204.916 147.244ZM199.412 145.848C200.089 146.459 200.841 146.997 201.615 147.471C202.514 148.023 203.49 148.337 204.494 148.567C204.191 149.094 203.773 149.597 203.431 149.977C201.925 151.638 200.106 153.087 198.252 154.441C196.68 154.137 195.091 153.918 193.484 153.795C192.689 153.565 191.887 153.352 191.079 153.16C189.688 152.832 188.259 152.644 186.82 152.511C189.817 150.141 192.933 147.974 196.544 146.613C197.44 146.274 198.416 146.005 199.412 145.852V145.848ZM186.042 153.949C185.649 153.994 185.255 154.04 184.861 154.089C184.952 154.015 185.042 153.942 185.133 153.869C185.436 153.893 185.739 153.921 186.042 153.949ZM170.543 161.962C170.578 160.51 170.944 159.048 171.264 157.652C171.658 155.935 172.101 154.232 172.505 152.518C172.62 152.703 172.742 152.877 172.875 153.035C174.112 154.497 175.586 155.464 177.461 155.875C178.392 156.081 179.35 156.106 180.305 156.05C177.817 158.015 175.241 159.851 172.352 161.219C171.763 161.498 171.156 161.742 170.543 161.962ZM182.341 154.41C182.153 154.434 181.965 154.458 181.776 154.479C178.978 154.821 176.398 154.612 174.335 152.532C177.109 153.108 179.859 153.485 182.735 153.684C182.885 153.694 183.035 153.705 183.184 153.715C182.902 153.945 182.623 154.179 182.341 154.41ZM165.789 147.318C166.576 147.764 167.549 148.016 168.744 148.019C170.198 148.023 170.891 149.154 171.484 150.42C169.455 149.904 167.437 149.339 165.412 148.815C165.531 148.312 165.656 147.813 165.789 147.318ZM242.049 197.889C243.869 199.711 245.692 201.54 247.473 203.407C247.612 203.683 247.755 203.962 247.894 204.238C248.215 204.866 248.543 205.494 248.867 206.122C247.591 204.231 246.145 202.447 244.566 200.755C238.926 194.699 231.816 189.848 226.843 183.22C231.97 188.047 237.069 192.905 242.046 197.889H242.049ZM254.684 211.867C256.071 213.766 257.375 215.731 258.622 217.723C262.805 224.407 266.179 231.618 270.734 238.064C274.16 242.908 278.189 247.393 280.776 252.757C280.898 256.875 280.995 260.99 281.079 265.102C280.553 263.974 280.106 262.823 279.699 261.758C277.946 257.183 275.809 252.883 273.547 248.534C267.97 237.806 262.038 227.269 256.218 216.673C255.705 215.064 255.165 213.462 254.684 211.867ZM279.329 206.67C282.111 214.774 285.565 222.679 287.199 231.129C288.36 237.132 288.224 243.756 287.178 249.773C286.673 252.68 285.467 255.298 284.23 257.901C283.756 255.999 283.041 254.136 282.187 252.356C281.769 238.943 281.044 225.541 279.465 212.209C279.131 209.382 278.751 206.562 278.332 203.749C278.663 204.723 278.998 205.693 279.329 206.67ZM268.974 169.965C269.636 171.839 270.25 173.731 270.821 175.629C270.518 174.928 270.204 174.23 269.873 173.539C267.019 167.588 263.223 162.126 260.449 156.137C258.403 151.722 257.643 146.906 256.371 142.243C257.978 143.524 259.459 144.938 260.898 146.417C261.163 147.091 261.414 147.768 261.655 148.438C262.857 151.785 263.812 155.216 264.952 158.584C266.242 162.395 267.636 166.171 268.974 169.965ZM67.7793 167.784C68.4659 163.889 69.5917 160.088 70.4491 156.231C71.3518 152.186 71.3518 148.264 71.073 144.145C70.8186 140.393 70.3341 136.589 70.6164 132.827C70.8116 130.223 71.662 127.696 72.8854 125.403C75.4472 120.601 79.7342 116.881 84.0561 113.708C88.6708 110.319 93.6375 107.45 98.5031 104.449C103.386 101.433 108.064 98.3098 111.908 93.9891C116.362 88.9843 119.307 82.9569 121.552 76.6887C122.817 73.1567 123.751 69.52 124.982 65.9811C126.362 62.0128 128.282 58.247 130.395 54.6278C134.647 47.3439 139.805 40.6464 145.155 34.1514C147.884 30.8393 150.627 27.5411 153.255 24.1488C155.667 21.0426 157.79 17.713 160.296 14.6836C164.586 9.49383 170.278 4.9951 176.761 2.94292C181.87 1.32701 187.496 1.15599 192.787 1.7179C197.976 2.26933 203.696 3.80498 207.464 7.6371C209.639 9.84982 210.221 12.4639 209.663 15.4724C209.206 17.9399 208.182 20.362 208.527 22.9098C208.917 25.817 211.918 26.6895 214.354 27.22C215.986 27.576 217.728 27.8378 219.077 28.9058C220.628 30.1343 220.91 32.2562 221.074 34.092C221.381 37.5158 221.966 40.9152 222.475 44.3145C223.023 47.9722 223.685 51.6368 224.978 55.1164C226.18 58.3587 228.157 60.896 230.426 63.4507C233.196 66.5744 233.573 70.5915 233.949 74.5981C234.699 82.6149 235.873 90.6525 238.358 98.3342C239.449 101.709 240.714 105.283 242.966 108.061C244.841 110.379 247.413 112.078 249.958 113.572C254.353 116.148 259.173 118.137 262.913 121.693C266.74 125.334 269.19 129.948 270.696 134.97C273.519 144.372 273.226 154.424 273.15 164.182C272.125 161.847 271.522 159.275 270.257 157.059C268.326 153.677 266.325 150.347 263.774 147.388C263.216 146.738 262.641 146.11 262.056 145.503C260.491 141.748 258.448 138.425 255.461 135.532C247.856 128.161 237.769 122.95 227.442 120.723C227.003 120.629 226.525 120.926 226.536 121.414C226.64 125.236 228.763 128.628 229.014 132.429C229.028 132.642 229.038 132.855 229.049 133.071C228.767 133.179 228.488 133.291 228.209 133.42C222.385 136.118 220.851 143.685 220.109 149.415C219.969 150.504 219.872 151.6 219.806 152.696C218.505 152.703 217.216 151.991 216.09 150.731C211.625 145.719 208.154 139.968 201.577 137.507C200.082 136.949 198.656 136.579 197.077 136.331C196.886 136.303 196.669 136.272 196.443 136.237C196.07 133.473 196.133 130.569 196.147 127.913C196.15 127.239 196.161 126.566 196.175 125.896C196.457 124.513 196.708 123.124 197.056 121.763C197.858 118.626 198.796 115.53 199.353 112.337C199.667 110.536 199.855 108.201 199.5 106.173C201.134 103.678 203.494 101.706 205.672 99.7093C208.272 97.3291 210.486 94.5266 212.326 91.5286C215.986 85.5745 217.896 78.6152 218.077 71.649C218.181 67.5307 217.509 63.4542 216.627 59.4476C215.647 54.9907 214.41 50.5758 212.814 46.3004C211.441 42.6218 209.788 38.6117 206.937 35.8127C205.027 33.9385 202.487 33.3382 200.179 34.8773C200.148 34.8982 200.12 34.9227 200.092 34.9436C198.2 34.5074 196.202 34.3817 194.686 34.2875C188.887 33.9315 182.805 34.0397 177.155 35.4462C170.132 37.1947 163.729 41.6132 159.187 47.2043C155.685 51.5181 153.593 56.7742 152.157 62.0931C152.129 62.1943 152.102 62.3025 152.074 62.4072C151.157 60.9065 150.003 59.6395 148.54 59.0427C147.184 58.4913 145.88 58.9974 144.915 60.0235C143.426 61.608 144.395 64.4978 144.918 66.2812C145.274 67.4923 145.709 68.6789 146.107 69.876C146.225 70.2355 146.281 70.8288 146.504 71.1324C147.058 71.8828 147.654 72.5843 148.309 73.2474C149.31 74.2596 150.456 75.1216 151.6 75.9802C152.136 77.2855 152.952 78.4442 154.144 79.3551C154.468 79.6029 154.925 79.39 155.123 79.0968C155.141 79.0689 155.158 79.041 155.176 79.0131C155.448 79.3062 155.706 79.6099 155.949 79.931C159.09 84.0842 160.989 89.253 163.481 93.7971C165.841 98.1039 168.71 102.456 173.021 105.014C177.468 107.653 182.616 107.3 187.255 105.451C189.688 104.484 192.246 103.158 194.909 103.056C196.774 102.987 197.642 104.271 198.029 105.81C196.568 108.096 195.868 110.742 195.509 113.408C194.958 117.505 194.812 121.676 194.739 125.805C194.739 125.843 194.739 125.882 194.739 125.923C194.23 128.108 193.655 130.276 193.236 132.481C192.881 134.369 192.456 136.184 194.508 137.144C194.704 137.235 194.906 137.308 195.111 137.378C195.551 140.03 196.565 142.536 198.255 144.634C193.829 145.566 189.866 148.389 186.367 151.136C185.851 151.541 185.342 151.949 184.833 152.364C183.394 152.274 181.958 152.207 180.542 152.092C178.05 151.886 175.611 151.419 173.188 150.846C173.115 150.689 173.042 150.532 172.976 150.375C173.662 147.133 174.537 142.54 171.923 140.027C168.741 136.959 166.493 140.683 165.078 144.812C164.381 143.632 164.335 142.086 164.318 140.767C164.311 140.372 163.997 140.055 163.603 140.051C160.247 140.006 156.479 139.263 156.221 135.291C156.026 132.282 157.382 129.152 158.431 126.402C158.508 126.199 158.584 126 158.658 125.798C160.536 122.849 161.725 119.4 162.167 115.795C162.955 109.342 162.07 102.85 162.045 96.3833C162.042 95.4619 160.613 95.4584 160.616 96.3833C160.634 102.421 161.049 108.476 160.393 114.497C159.968 118.399 158.598 121.92 157.243 125.501C155.089 128.695 152.014 131.092 148.351 132.422C144.66 133.762 139.359 135.026 136.003 132.282C133.842 130.516 133.964 127.019 132.963 124.618C131.914 122.098 129.548 121.32 126.972 121.781C126.724 121.826 126.487 121.882 126.257 121.948C127.202 118.79 128.296 115.656 127.948 112.319C127.913 111.974 127.648 111.548 127.233 111.604C121.894 112.302 117.485 116.654 113.466 119.889C108.437 123.938 102.546 126.695 98.0082 131.392C96.966 132.471 96.0354 133.658 95.1955 134.91C93.16 136.959 91.128 139.011 88.7997 140.725C88.7126 140.791 88.6464 140.865 88.5976 140.945C88.5488 141.004 88.5035 141.07 88.4721 141.151C84.4813 151.174 81.3828 161.432 79.6889 172.097C78.8106 177.619 78.5074 183.109 78.5562 188.696C78.598 193.942 78.7653 199.184 78.3749 204.416C74.5723 199.756 71.1113 194.783 69.1316 189.052C66.8104 182.327 66.5489 174.757 67.7758 167.798L67.7793 167.784ZM194.686 132.164C194.711 133.364 194.773 134.565 194.902 135.759C194.575 135.542 194.359 135.235 194.369 134.774C194.393 133.909 194.515 133.036 194.686 132.164ZM154.409 76.3746C153.893 75.9523 153.328 75.5334 152.743 75.1077C151.868 72.6716 152.077 69.6177 152.551 66.892C153.196 68.5288 153.68 70.239 154.039 71.9526C154.304 73.209 154.67 74.9471 154.517 76.4653C154.482 76.4339 154.447 76.406 154.412 76.3746H154.409ZM150.979 73.7954C149.449 72.5948 148.059 71.2476 147.487 69.4921C146.699 67.0769 145.469 64.4733 145.612 61.8802C145.706 60.1666 147.581 59.9851 148.689 60.7529C149.965 61.6394 150.836 63.1855 151.533 64.6129C150.892 67.5097 150.443 70.8532 150.979 73.7954ZM155.859 74.7203C155.726 72.5773 155.225 70.4484 154.583 68.4067C154.207 67.2026 153.719 65.7402 153.074 64.3233C153.172 63.9114 153.266 63.517 153.356 63.1471C154.751 57.5211 157.002 52.0311 160.742 47.5533C165.691 41.6306 172.659 37.617 180.225 36.2489C183.421 35.6731 186.659 35.6521 189.894 35.6242C192.323 35.6032 194.752 35.6521 197.164 35.9348C198.05 36.0395 199.161 36.1861 200.245 36.4723C201.309 38.4267 202.654 40.088 205.083 40.1927C205.557 40.2137 205.885 39.7216 205.773 39.2853C205.296 37.4146 203.856 36.2699 202.086 35.5579C204.522 34.8913 206.554 37.2331 207.899 39.2993C210.371 43.0895 211.862 47.5394 213.169 51.8427C216.034 61.2834 217.896 70.9998 215.362 80.7616C213.507 87.9058 209.503 94.38 204.013 99.287C202.232 100.882 200.476 102.536 199.015 104.435C198.262 102.613 196.784 101.388 194.108 101.692C191.483 101.988 189.005 103.231 186.579 104.194C184.077 105.192 181.637 105.695 178.929 105.461C173.655 105.011 169.8 101.081 167.016 96.9068C164.05 92.4604 161.962 87.4975 159.393 82.8243C158.334 80.8977 157.218 79.1422 155.737 77.6066C155.943 76.6608 155.918 75.6382 155.862 74.7203H155.859ZM202.487 37.3448C202.992 37.638 203.438 37.994 203.78 38.4267C203.271 38.1754 202.849 37.795 202.487 37.3448ZM198.311 108.745C198.259 111.963 197.353 115.17 196.516 118.266C196.593 117.125 196.68 115.987 196.781 114.846C196.976 112.602 197.422 110.406 198.315 108.372C198.315 108.501 198.315 108.627 198.315 108.749L198.311 108.745ZM89.9464 146.107C87.9563 151.855 86.705 157.847 85.6942 163.836C83.5751 176.397 82.4006 189.077 79.9608 201.578C80.1316 197.46 80.034 193.338 79.9852 189.213C79.9155 183.398 80.2291 177.706 81.1423 171.961C82.7944 161.564 85.872 151.544 89.7478 141.775C90.7725 141.004 91.7484 140.174 92.6895 139.308C91.6159 141.531 90.7272 143.842 89.9464 146.107ZM121.883 124.168C119.276 125.609 116.453 123.655 113.888 123.107C113.062 122.932 112.236 122.946 111.42 123.096C112.898 122.07 114.337 121.002 115.752 119.854C118.851 117.334 122.49 113.959 126.571 113.136C126.665 116.231 125.539 119.229 124.665 122.161C124.616 122.325 124.57 122.486 124.525 122.646C123.643 123.103 122.807 123.658 121.887 124.164L121.883 124.168ZM119.83 211.218C118.133 212.837 116.129 214.118 114.292 215.57C112.013 217.374 110.197 219.615 108.332 221.828C104.39 226.505 100.563 231.59 95.7322 235.39C94.5437 236.326 93.4423 237.334 92.4211 238.413C94.2021 235.83 96.1993 233.37 98.0256 230.927C100.218 227.991 102.365 225.025 104.697 222.198C106.614 219.877 108.729 217.888 110.929 215.853C114.839 212.241 118.593 208.346 123.114 205.477C122.664 207.752 121.524 209.602 119.827 211.218H119.83ZM125.034 202.165C125.281 200.311 125.501 198.455 125.703 196.598C126.104 192.867 126.411 189.129 126.703 185.388C127.216 178.812 126.986 172.241 127.157 165.655C127.324 159.219 129.209 153.01 128.945 146.529C128.823 143.555 128.213 140.739 127.282 137.922C126.393 135.235 125.389 132.586 125.1 129.749C124.888 127.648 125.243 125.63 125.769 123.637C126.118 123.473 126.473 123.337 126.85 123.243C130.851 122.252 131.785 125.177 132.555 128.353C133.225 131.117 134.33 133.34 137.024 134.565C140.432 136.118 144.873 135.05 148.25 133.958C151.241 132.991 153.792 131.361 155.873 129.277C155.001 131.899 154.224 134.97 155.27 137.612C156.472 140.652 159.958 141.343 162.913 141.458C163.028 143.402 163.52 145.15 164.586 146.354C164.374 147.084 164.185 147.799 164.022 148.469C162.784 148.166 161.54 147.883 160.289 147.646C157.633 147.143 154.939 146.888 152.234 146.875C151.76 146.875 151.432 147.332 151.544 147.782C152.255 150.626 155.256 151.81 157.741 152.706C159.236 153.247 161.171 153.698 162.83 154.486C162.798 154.682 162.767 154.881 162.736 155.076C162.209 154.867 161.693 154.647 161.192 154.438C159.024 153.541 156.898 152.556 154.698 151.743C151.52 150.567 146.584 149.178 144.137 152.476C142.227 155.052 145.441 157.474 147.382 158.64C150.77 160.671 154.608 161.955 158.285 163.355C156.563 162.995 154.848 162.587 153.133 162.207C149.481 161.39 145.42 160.273 141.649 160.762C139.404 161.051 137.184 162.967 139.369 164.978C140.52 166.035 142.015 166.737 143.409 167.403C145.281 168.297 147.212 169.072 149.139 169.832C150.216 170.258 151.342 170.642 152.468 171.043C148.564 170.297 144.5 169.927 142.963 174.171C141.499 178.223 147.229 178.254 150.233 179.099C149.965 179.434 149.721 179.8 149.456 180.097C149.17 180.411 149.163 181.015 149.599 181.221C149.603 181.221 149.606 181.221 149.61 181.224C144.35 186.03 138.296 190.068 133.043 194.808C130.45 197.149 128.049 199.683 125.905 202.444C125.581 202.573 125.261 202.709 124.947 202.856C124.975 202.625 125.003 202.398 125.034 202.172V202.165ZM127.338 203.459C130.314 202.517 133.587 202.528 135.515 205.306C137.696 208.454 136.971 213.291 136.633 216.851C136.438 218.896 136.166 220.955 136.006 223.018C135.713 221.318 135.386 219.622 134.985 217.94C133.702 212.548 131.566 207.152 127.338 203.456V203.459ZM137.909 234.637C138.233 235.321 138.568 236.001 138.906 236.678C138.913 237.45 138.972 238.228 139.066 239.003C138.993 239.167 138.913 239.331 138.826 239.491C138.39 237.708 138.087 235.809 137.906 234.637H137.909ZM137.135 251.256C133.183 256.523 128.627 261.301 123.96 265.929C119.743 270.11 115.219 273.516 109.294 274.766C104.442 275.792 99.5208 276.312 94.5785 276.514C102.086 272.85 106.551 264.253 112.542 258.68C115.031 256.362 117.983 254.872 120.994 253.354C124.811 251.427 128.662 249.553 132.298 247.292C134.176 246.122 136.504 244.555 138.272 242.667C138.62 243.617 139.112 244.506 139.882 245.054C140.025 245.156 140.171 245.232 140.317 245.295C140.401 245.641 140.488 245.993 140.582 246.342C139.491 248.021 138.338 249.661 137.142 251.256H137.135ZM142.123 246.555C142.367 246.171 142.604 245.787 142.841 245.4C142.928 245.669 143.012 245.937 143.088 246.21C143.437 247.421 143.723 248.813 143.507 250.098C142.907 249.005 142.471 247.787 142.119 246.555H142.123ZM159.867 211.281C156.734 216.23 154.245 221.521 151.927 226.892C150.551 230.078 149.167 233.265 147.487 236.308C147.438 236.396 147.389 236.479 147.341 236.563C147.501 236.172 147.658 235.781 147.808 235.387C148.972 232.364 149.812 229.213 150.355 226.019C150.892 222.857 150.972 219.64 151.575 216.485C152.199 213.2 153.545 210.426 155.838 207.997C157.947 205.763 160.533 204.014 163.189 202.5C164.945 201.498 166.768 200.657 168.619 199.875C165.294 203.33 162.425 207.243 159.871 211.277L159.867 211.281ZM179.842 193.61C178.699 194.127 177.542 194.619 176.377 195.097C177.566 194.301 178.807 193.582 180.103 192.965C181.051 192.511 182.017 192.155 182.996 191.883C183.125 191.918 183.251 191.953 183.38 191.984C182.205 192.532 181.027 193.076 179.842 193.61ZM279.803 274.975C279.162 273.67 278.026 272.699 276.374 272.602C272.679 272.385 269.96 276.259 269.18 279.414C269.103 279.718 269.222 280.067 269.507 280.224C273.338 282.301 276.492 281.139 278.921 278.563C278.845 279.285 278.639 279.987 278.242 280.489C277.482 281.453 276.046 281.568 274.92 281.592C272.271 281.659 269.64 280.94 267.026 280.598C263.819 280.179 260.776 279.652 257.803 278.305C255.252 277.146 252.98 275.485 251.007 273.506C246.713 269.209 244.123 263.447 242.143 257.793C238.742 248.08 235.291 238.514 230.708 229.276C228.425 224.679 225.919 220.198 223.239 215.825C221.088 212.317 219.136 208.387 215.891 205.752C211.58 196.528 200.587 194.256 191.574 192.385C190.284 192.117 189.005 191.823 187.726 191.516C188.001 191.384 188.277 191.255 188.548 191.122C192.393 191.07 196.307 191.848 200.043 192.727C201.521 193.076 203.065 193.164 204.567 193.38C206.056 193.596 207.715 193.802 208.799 194.926C210.897 197.104 211.838 200.245 214.246 202.158C214.567 202.412 215.166 202.475 215.369 202.015C218.223 195.506 221.524 189.216 224.88 182.955C229.676 189.879 236.828 194.909 242.701 200.884C246.584 204.835 249.641 209.291 251.53 214.52C253.37 219.619 254.36 225 256.754 229.897C257.012 230.424 257.971 230.337 258.061 229.726C258.42 227.335 258.25 224.972 257.803 222.631C260.515 227.513 263.248 232.382 265.917 237.282C268.922 242.8 271.874 248.346 274.722 253.947C276.701 257.839 278.04 261.94 279.88 265.883C280.511 267.234 281.278 268.494 282.212 269.579C281.982 270.288 281.731 270.986 281.459 271.666C281.034 272.741 280.479 273.89 279.81 274.975H279.803ZM278.796 276.43C276.788 279.01 274.035 280.737 270.713 279.229C271.372 277.097 272.752 275.108 274.899 274.287C276.848 273.548 278.346 274.525 278.792 276.43H278.796ZM297.638 271.328C295.299 269.37 299.795 269.227 300.991 269.813C302.225 270.417 301.082 271.454 300.287 271.764C299.799 271.956 299.287 272.085 298.76 272.169C298.373 271.907 298.001 271.628 297.638 271.328Z" fill="#24282E"/>
</svg>
