<svg width="375" height="395" viewBox="0 0 375 395" fill="none" xmlns="http://www.w3.org/2000/svg">
<g clip-path="url(#clip0_487_4498)">
<path d="M-205.091 317.776H148.244C148.244 317.776 150.775 306.38 149.484 301.01C148.197 295.644 145.829 316.468 154.863 317.54C163.894 318.613 172.279 317.969 173.999 313.888C175.719 309.81 176.796 300.366 175.502 299.078C174.215 297.792 173.567 314.748 183.891 316.252C183.891 316.252 198.845 319.308 202.183 313.503C205.517 307.698 209.501 287.654 208.531 281.043C208.531 281.043 199.071 286.15 183.527 293.607C167.982 301.064 164.549 304.896 156.471 301.064C148.396 297.236 127.399 289.775 126.993 285.141C126.588 280.507 139.916 291.189 138.703 297.435C137.49 303.685 123.763 318.158 116.091 317.776C108.418 317.389 89.0353 304.086 94.0829 296.427C94.0829 296.427 97.4614 293.081 102.039 298.322C106.617 303.563 110.249 304.636 116.172 302.218C122.094 299.799 125.595 291.738 123.574 289.05C121.554 286.362 123.037 297.786 117.787 299.934C112.536 302.083 98.8094 296.575 92.7517 292.005C86.694 287.435 73.9062 277.626 76.5989 271.579C79.2916 265.531 84.0013 267.815 90.059 264.725C96.1168 261.636 99.2115 261.501 100.556 264.189C101.901 266.877 94.9038 274.402 90.5962 276.685C90.5962 276.685 101.364 267.012 106.614 264.189C111.864 261.366 115.631 264.995 114.824 267.818C114.016 270.641 101.229 280.584 97.3263 282.733C97.3263 282.733 115.361 267.548 119.267 267.414C123.169 267.279 124.652 269.967 123.304 271.849C121.959 273.731 111.594 284.345 107.692 286.227C107.692 286.227 121.422 271.849 125.189 271.579C128.96 271.309 129.632 276.149 125.861 279.508C122.091 282.868 110.922 293.482 106.749 293.887C106.749 293.887 98.5392 295.229 96.9242 290.527C96.9242 290.527 89.1164 288.915 88.7144 284.48C88.7144 284.48 80.7714 282.062 78.8895 276.82C77.0043 271.579 78.7544 270.506 78.7544 270.506C78.7544 270.506 74.7339 266.395 67.4633 264.783C60.196 263.17 54.8884 257.528 55.3478 252.229C55.8107 246.93 51.2328 225.54 46.5028 216.315C41.7728 207.094 26.6741 183.926 31.1777 182.125C35.6881 180.32 63.4023 208.217 65.4294 216.089C67.4599 223.961 62.8009 219.162 58.7467 215.111C54.689 211.064 34.3975 189.36 39.043 186.26C43.6918 183.16 55.3951 198.399 63.0239 202.46C70.656 206.521 89.309 210.753 95.7519 217.185C102.195 223.617 103.553 229.206 97.9547 232.592C92.3598 235.979 65.9058 250.199 64.5476 248.505C63.1928 246.816 73.7069 243.257 81.8458 239.537C89.9847 235.81 133.446 206.993 141.859 207.728C150.278 208.46 181.395 229.294 193.98 236.502C206.565 243.703 197.159 240.718 186.871 234.306C176.584 227.894 147.048 211.529 146.515 206.362C145.984 201.195 155.998 207.512 163.181 212.136C170.364 216.76 197.446 234.916 205.771 238.586C208.224 239.672 226.806 249.022 229.748 249.366C233.357 249.794 240.631 249.794 238.387 244.151C237.229 241.23 233.759 243.021 231.921 244.158C229.215 245.831 227.039 248.124 224.471 249.959C222.042 251.7 218.819 253.369 217.907 256.428C216.626 260.745 221.015 259.491 225.157 257.956C229.296 256.425 238.07 252.56 238.07 252.56C238.07 252.56 215.417 260.934 213.058 266.203C210.7 271.471 213.464 272.54 217.907 271.673C222.353 270.803 232.779 267.292 232.779 267.292C232.779 267.292 217.032 271.06 217.907 274.459C218.785 277.856 223.079 276.969 229.066 276.018C235.053 275.066 241.475 273.94 241.475 273.94C241.475 273.94 229.83 276.921 230.012 279.674C230.191 282.429 233.512 280.611 236.012 283.357C238.512 286.102 242.016 287.04 248.604 284.035C255.192 281.033 260.652 264.459 260.115 258.519C259.584 252.58 262.821 270.962 259.341 276.975C255.865 282.986 246.884 298.828 250.905 301.074C254.925 303.317 260.405 302.69 272.034 301.658C283.663 300.622 299.428 300.622 309.249 297.789C319.07 294.949 342.589 283.856 342.072 272.763C341.555 261.67 337.423 248.253 331.216 237.159C325.013 226.063 291.937 150.215 286.251 149.442C280.569 148.667 289.613 184.526 287.028 194.591C284.444 204.652 284.184 236.124 295.035 242.832C305.891 249.541 309.249 252.381 304.6 253.41C299.951 254.442 266.355 263.211 266.095 257.022C265.835 250.829 271.524 255.99 283.667 254.701C295.816 253.413 302.016 253.929 297.106 249.281C292.197 244.64 283.667 237.412 282.633 218.838C281.599 200.261 288.319 175.238 288.062 166.465C287.802 157.692 285.478 145.57 274.882 142.73C264.287 139.89 226.191 131.732 222.961 124.207C219.731 116.682 218.447 125.846 214.646 131C210.845 136.153 190.763 140.255 192.314 147.904C193.432 153.422 214.396 161.649 217.913 173.578C221.437 185.511 210.106 159.166 202.869 156.34C202.869 156.34 204.987 165.133 200.788 166.903C196.588 168.678 190.773 168.998 190.773 166.259C190.773 163.52 200.625 168.516 200.788 178.192C200.95 187.865 201.919 196.574 203.696 207.057C205.474 217.54 206.281 231.081 205.311 235.76C205.311 235.76 191.422 225.763 186.253 223.02C181.084 220.278 176.722 220.44 177.53 216.892C178.337 213.344 182.537 200.446 185.283 190.449C188.03 180.452 189.966 172.873 189.159 166.424C188.351 159.976 186.763 148.242 187.544 150.943C188.834 155.419 187.219 166.161 179.55 173.136C181.516 173.98 172.387 154.4 174.458 148.791C176.607 142.98 176.844 153.594 175.006 158.158C173.168 162.718 174.138 204.318 174.462 209.961C174.786 215.604 173.33 214.153 169.779 212.055C166.225 209.961 152.163 194.975 144.805 197.755C137.447 200.537 124.72 213.243 122.334 210.463C119.949 207.681 127.105 175.916 139.436 166.188C151.768 156.461 160.924 153.982 168.13 149.004C170.039 147.688 172.323 146.393 174.773 145.159C182.547 141.236 193.912 138.282 194.632 127.698C194.645 127.499 194.402 128.025 194.291 128.183C194 128.595 193.713 129.003 193.439 129.425C192.608 130.703 191.811 131.974 190.878 133.185C188.145 136.734 184.108 139.597 180.439 142.066C180.472 142.049 180.506 142.029 180.54 142.009C177.195 143.348 173.445 144.744 169.786 144.019C165.867 143.246 162.971 139.789 160.269 137.118C151.795 128.74 147.802 119.64 143.825 108.678C139.281 96.1517 126.03 81.6924 136.095 68.4473C144.254 57.7083 160.84 55.9274 173.276 57.9005C178.817 58.7808 184.797 60.7404 188.547 65.1454C192.213 69.4491 190.679 74.5252 185.182 76.0632C182.993 76.677 180.655 76.5657 178.445 76.1239C177.671 75.9687 176.935 75.7057 176.202 75.4257C175.83 75.2807 174.715 74.913 175.107 74.9569C178.31 75.3178 183.472 76.8221 185.611 79.3281C188.784 83.0517 183.844 86.5527 180.29 86.7786C172.252 87.2913 165.732 79.318 158.073 77.817C150.829 76.4005 143.345 79.49 136.078 79.6181C129.764 79.7328 127.145 76.279 128.703 70.1135C129.227 68.0325 129.987 65.9852 130.879 64.0323C132.129 61.3071 133.943 58.9259 136.105 56.8617C149.376 44.1765 178.949 33.7478 192.949 50.9491C192.949 50.9491 199.592 49.1582 207.312 56.1467C215.028 63.1352 221.309 83.3822 213.413 99.3323C205.514 115.279 210.004 115.64 210.004 115.64C210.004 115.64 204.44 111.876 206.774 105.606C209.105 99.3323 213.562 93.7469 209.724 87.9018C207.805 84.9776 203.919 83.7701 200.487 84.4986C197.054 85.2305 194.078 87.9018 193.976 92.7384C196.061 88.9406 202.784 83.4733 206.396 89.0755C209.247 93.4906 206.757 98.5262 205.751 103.032C205.007 106.371 204.855 108.908 205.838 112.149C208.018 119.35 216.444 121.313 220.032 127.475C222.42 131.583 222.224 137.469 222.177 142.039C222.113 148.292 222.491 154.532 222.214 160.788C220.569 197.839 215.616 234.593 210.913 271.35C209.643 281.303 207.122 291.037 205.828 300.949C205.392 304.295 204.196 309.166 206.281 312.221C209.758 317.304 218.069 317.662 223.61 317.682C238.333 317.753 272.46 318.178 277.19 315.921C278.727 315.186 280.099 314.248 281.072 312.825C281.548 312.124 282.876 309.958 282.335 310.619C273.693 321.22 600 316.748 600 316.748" stroke="#24282E" stroke-width="1.85291" stroke-miterlimit="1.4" stroke-linecap="round"/>
</g>
<defs>
<clipPath id="clip0_487_4498">
<rect width="375" height="395" fill="white"/>
</clipPath>
</defs>
</svg>
