<svg width="375" height="295" viewBox="0 0 375 295" fill="none" xmlns="http://www.w3.org/2000/svg">
<g clip-path="url(#clip0_703_4498)">
<path d="M-205.091 285.777H148.244C148.244 285.777 150.775 274.38 149.484 269.01C148.197 263.644 145.829 284.468 154.863 285.541C163.894 286.613 172.279 285.969 173.999 281.888C175.719 277.81 176.796 268.366 175.502 267.078C174.215 265.793 173.567 282.748 183.891 284.252C183.891 284.252 198.845 287.308 202.183 281.503C205.517 275.699 209.501 255.654 208.531 249.043C208.531 249.043 199.071 254.15 183.527 261.607C167.982 269.064 164.549 272.896 156.471 269.064C148.396 265.236 127.399 257.775 126.993 253.141C126.588 248.507 139.916 259.189 138.703 265.435C137.49 271.685 123.763 286.158 116.091 285.777C108.418 285.389 89.0353 272.086 94.0829 264.427C94.0829 264.427 97.4614 261.081 102.039 266.322C106.617 271.564 110.249 272.636 116.172 270.218C122.094 267.799 125.595 259.738 123.574 257.05C121.554 254.362 123.037 265.786 117.787 267.934C112.536 270.083 98.8094 264.575 92.7517 260.005C86.694 255.435 73.9062 245.627 76.5989 239.579C79.2916 233.532 84.0013 235.815 90.059 232.725C96.1168 229.636 99.2115 229.501 100.556 232.189C101.901 234.877 94.9038 242.402 90.5962 244.686C90.5962 244.686 101.364 235.012 106.614 232.189C111.864 229.366 115.631 232.995 114.824 235.818C114.016 238.641 101.229 248.584 97.3263 250.733C97.3263 250.733 115.361 235.549 119.267 235.414C123.169 235.279 124.652 237.967 123.304 239.849C121.959 241.731 111.594 252.345 107.692 254.227C107.692 254.227 121.422 239.849 125.189 239.579C128.96 239.309 129.632 244.149 125.861 247.509C122.091 250.868 110.922 261.482 106.749 261.887C106.749 261.887 98.5392 263.229 96.9242 258.528C96.9242 258.528 89.1164 256.915 88.7144 252.48C88.7144 252.48 80.7714 250.062 78.8895 244.82C77.0043 239.579 78.7544 238.507 78.7544 238.507C78.7544 238.507 74.7339 234.395 67.4633 232.783C60.196 231.171 54.8884 225.528 55.3478 220.229C55.8107 214.93 51.2328 193.54 46.5028 184.315C41.7728 175.094 26.6741 151.926 31.1777 150.125C35.6881 148.321 63.4023 176.217 65.4294 184.089C67.4599 191.962 62.8009 187.162 58.7467 183.111C54.689 179.064 34.3975 157.36 39.043 154.26C43.6918 151.161 55.3951 166.399 63.0239 170.46C70.656 174.521 89.309 178.754 95.7519 185.186C102.195 191.618 103.553 197.206 97.9547 200.593C92.3598 203.979 65.9058 218.199 64.5476 216.506C63.1928 214.816 73.7069 211.257 81.8458 207.537C89.9847 203.81 133.446 174.993 141.859 175.728C150.278 176.46 181.395 197.294 193.98 204.502C206.565 211.703 197.159 208.718 186.871 202.306C176.584 195.894 147.048 179.529 146.515 174.362C145.984 169.195 155.998 175.512 163.181 180.136C170.364 184.761 197.446 202.916 205.771 206.586C208.224 207.672 226.806 217.022 229.748 217.366C233.357 217.794 240.631 217.794 238.387 212.151C237.229 209.23 233.759 211.021 231.921 212.158C229.215 213.831 227.039 216.124 224.471 217.959C222.042 219.7 218.819 221.369 217.907 224.428C216.626 228.746 221.015 227.491 225.157 225.956C229.296 224.425 238.07 220.56 238.07 220.56C238.07 220.56 215.417 228.934 213.058 234.203C210.7 239.471 213.464 240.54 217.907 239.673C222.353 238.803 232.779 235.292 232.779 235.292C232.779 235.292 217.032 239.06 217.907 242.459C218.785 245.856 223.079 244.969 229.066 244.018C235.053 243.067 241.475 241.94 241.475 241.94C241.475 241.94 229.83 244.922 230.012 247.674C230.191 250.429 233.512 248.611 236.012 251.357C238.512 254.102 242.016 255.04 248.604 252.035C255.192 249.033 260.652 232.459 260.115 226.519C259.584 220.58 262.821 238.962 259.341 244.976C255.865 250.986 246.884 266.828 250.905 269.074C254.925 271.317 260.405 270.69 272.034 269.658C283.663 268.622 299.428 268.622 309.249 265.789C319.07 262.949 342.589 251.856 342.072 240.763C341.555 229.67 337.423 216.253 331.216 205.159C325.013 194.063 291.937 118.215 286.251 117.442C280.569 116.667 289.613 152.527 287.028 162.591C284.444 172.652 284.184 204.124 295.035 210.833C305.891 217.541 309.249 220.381 304.6 221.41C299.951 222.442 266.355 231.211 266.095 225.022C265.835 218.829 271.524 223.99 283.667 222.701C295.816 221.413 302.016 221.929 297.106 217.281C292.197 212.64 283.667 205.412 282.633 186.838C281.599 168.261 288.319 143.238 288.062 134.465C287.802 125.692 285.478 113.57 274.882 110.731C264.287 107.891 226.191 99.7317 222.961 92.207C219.731 84.6822 218.447 93.8462 214.646 98.9998C210.845 104.154 190.763 108.255 192.314 115.904C193.432 121.422 214.396 129.649 217.913 141.578C221.437 153.511 210.106 127.166 202.869 124.34C202.869 124.34 204.987 133.133 200.788 134.904C196.588 136.678 190.773 136.998 190.773 134.259C190.773 131.521 200.625 136.516 200.788 146.192C200.95 155.866 201.919 164.574 203.696 175.057C205.474 185.54 206.281 199.082 205.311 203.76C205.311 203.76 191.422 193.763 186.253 191.021C181.084 188.278 176.722 188.44 177.53 184.892C178.337 181.344 182.537 168.446 185.283 158.449C188.03 148.452 189.966 140.873 189.159 134.425C188.351 127.976 186.763 116.242 187.544 118.943C188.834 123.419 187.219 134.162 179.55 141.136C181.516 141.98 172.387 122.4 174.458 116.791C176.607 110.98 176.844 121.594 175.006 126.158C173.168 130.718 174.138 172.318 174.462 177.961C174.786 183.604 173.33 182.153 169.779 180.055C166.225 177.961 152.163 162.976 144.805 165.755C137.447 168.537 124.72 181.243 122.334 178.464C119.949 175.681 127.105 143.916 139.436 134.188C151.768 124.461 160.924 121.982 168.13 117.004C170.039 115.689 172.323 114.393 174.773 113.159C182.547 109.236 193.912 106.282 194.632 95.6978C194.645 95.4988 194.402 96.025 194.291 96.1835C194 96.595 193.713 97.0031 193.439 97.4247C192.608 98.703 191.811 99.9746 190.878 101.185C188.145 104.734 184.108 107.597 180.439 110.066C180.472 110.049 180.506 110.029 180.54 110.009C177.195 111.348 173.445 112.744 169.786 112.019C165.867 111.247 162.971 107.789 160.269 105.118C151.795 96.74 147.802 87.6402 143.825 76.6785C139.281 64.1518 126.03 49.6925 136.095 36.4475C144.254 25.7084 160.84 23.9276 173.276 25.9007C178.817 26.781 184.797 28.7406 188.547 33.1455C192.213 37.4492 190.679 42.5253 185.182 44.0633C182.993 44.6772 180.655 44.5659 178.445 44.124C177.671 43.9689 176.935 43.7058 176.202 43.4258C175.83 43.2808 174.715 42.9132 175.107 42.957C178.31 43.3179 183.472 44.8222 185.611 47.3282C188.784 51.0518 183.844 54.5528 180.29 54.7788C172.252 55.2914 165.732 47.3181 158.073 45.8172C150.829 44.4006 143.345 47.4901 136.078 47.6183C129.764 47.7329 127.145 44.2792 128.703 38.1136C129.227 36.0326 129.987 33.9853 130.879 32.0324C132.129 29.3072 133.943 26.926 136.105 24.8618C149.376 12.1766 178.949 1.74788 192.949 18.9493C192.949 18.9493 199.592 17.1583 207.312 24.1468C215.028 31.1353 221.309 51.3823 213.413 67.3324C205.514 83.2791 210.004 83.64 210.004 83.64C210.004 83.64 204.44 79.8759 206.774 73.6059C209.105 67.3324 213.562 61.747 209.724 55.9019C207.805 52.9777 203.919 51.7702 200.487 52.4987C197.054 53.2306 194.078 55.9019 193.976 60.7385C196.061 56.9407 202.784 51.4734 206.396 57.0757C209.247 61.4907 206.757 66.5263 205.751 71.0324C205.007 74.3715 204.855 76.9078 205.838 80.1491C208.018 87.3501 216.444 89.3131 220.032 95.4752C222.42 99.5833 222.224 105.469 222.177 110.039C222.113 116.292 222.491 122.532 222.214 128.789C220.569 165.839 215.616 202.593 210.913 239.35C209.643 249.303 207.122 259.037 205.828 268.95C205.392 272.295 204.196 277.166 206.281 280.222C209.758 285.304 218.069 285.662 223.61 285.682C238.333 285.753 272.46 286.178 277.19 283.922C278.727 283.186 280.099 282.249 281.072 280.825C281.548 280.124 282.876 277.958 282.335 278.619C273.693 289.22 600 284.748 600 284.748" stroke="#24282E" stroke-width="1.85291" stroke-miterlimit="1.4" stroke-linecap="round"/>
</g>
<defs>
<clipPath id="clip0_703_4498">
<rect width="375" height="295" fill="white"/>
</clipPath>
</defs>
</svg>
