<svg width="375" height="395" viewBox="0 0 375 395" fill="none" xmlns="http://www.w3.org/2000/svg">
<g clip-path="url(#clip0_487_4496)">
<path d="M477.474 313.35C466.415 311.2 455.251 309.057 443.934 309.27C438.504 309.371 433.095 310.146 427.856 311.584C422.21 313.134 416.901 315.758 411.572 318.142C405.898 320.679 400.084 323.45 394.013 324.892C388.06 326.305 381.762 325.558 375.927 323.988C370.281 322.466 365.105 319.89 360.051 317.004C355.196 314.233 350.466 311.71 344.914 310.701C334.21 308.76 323.13 310.279 312.346 310.331C308.453 310.348 304.191 309.954 300.601 308.22C301.315 307.954 301.953 307.574 302.427 307.019C303.748 305.476 302.535 303.798 300.942 303.257C299.433 302.744 296.958 302.845 295.857 304.157C294.912 305.284 295.606 306.419 296.641 307.333C296.265 307.34 295.892 307.34 295.526 307.34C292.783 307.34 289.866 307.124 287.21 306.384C285.829 306 284.704 305.236 283.763 304.255C284.313 302.363 284.655 300.548 284.78 299.065C284.885 297.836 284.847 296.601 284.69 295.369C285.464 293.764 286.286 292.176 286.983 290.532C288.423 287.132 288.925 283.457 289.169 279.796C289.423 275.968 289.521 272.045 288.98 268.237C288.377 264.003 287.248 259.885 285.917 255.83C283.264 247.754 279.939 239.911 277.552 231.745C277.2 230.54 276.858 229.333 276.52 228.125C276.074 225.815 275.596 223.508 275.084 221.211C274.122 216.919 273.049 212.664 271.686 208.483C270.365 204.438 268.849 200.459 267.475 196.432C266.085 192.362 264.844 188.23 263.425 184.168C265.6 186.813 267.329 189.811 269.023 192.774C270.745 195.786 271.226 199.451 273.237 202.292C273.631 202.85 274.568 202.686 274.568 201.929C274.575 189.12 275.53 175.142 269.626 163.339C266.785 157.664 262.164 153.675 256.705 150.628C251.122 147.511 244.869 144.9 242.004 138.775C238.48 131.24 236.999 122.864 235.898 114.676C235.357 110.656 235.309 106.572 234.319 102.621C233.468 99.2186 230.931 97.1734 228.909 94.486C224.459 88.5598 224.103 80.3057 223.026 73.2487C222.562 70.2124 222.803 66.5478 221.011 63.9127C219.182 61.2219 215.599 61.1835 212.779 60.3424C209.283 59.3023 209.712 56.3706 210.426 53.4773C211.082 50.8214 211.775 48.12 210.932 45.4222C209.475 40.7594 204.16 38.079 199.876 36.7109C194.603 35.0287 188.831 34.7076 183.345 35.2276C177.671 35.7651 172.596 37.6323 167.852 40.8188C164.977 42.7488 162.408 45.1151 160.111 47.7012C157.636 50.4863 155.639 53.6379 153.402 56.6115C148.275 63.4346 142.437 69.7098 137.404 76.6027C132.632 83.1397 127.99 89.9035 124.842 97.4002C121.967 104.255 120.527 111.58 117.262 118.306C114.337 124.33 110.096 129.708 104.676 133.662C100.246 136.898 95.4429 139.599 90.7899 142.492C82.1566 147.867 71.9548 154.554 69.5673 165.185C68.9539 167.921 69.0793 170.755 69.2327 173.537C69.4558 177.603 69.9437 181.651 69.8183 185.731C69.6998 189.626 68.4311 193.497 67.5109 197.255C66.6047 200.951 65.7891 204.738 65.6811 208.553C65.5033 214.636 66.2143 220.747 68.4973 226.419C70.7837 232.101 74.5166 237.039 78.4202 241.695C78.5422 241.841 78.6886 241.908 78.8315 241.918C78.0508 245.363 77.2038 248.766 76.681 252.273C76.1164 256.043 75.7609 259.84 75.4785 263.637C74.9035 271.396 74.6734 279.182 73.7777 286.916C73.1468 292.378 71.676 298.346 73.3699 303.749C74.182 306.342 76.2035 308.509 78.5562 309.797C79.5704 310.352 80.6265 310.645 81.7035 310.757C81.8882 312.568 81.8289 314.502 80.4731 315.755C78.6921 317.402 75.4576 317.517 73.1956 317.531C67.6329 317.562 62.2027 316.058 56.6783 315.643C49.3589 315.092 42.1093 316.027 34.8806 317.084C28.098 318.079 21.2457 318.383 14.4178 318.966C7.52018 319.559 0.615602 320.117 -6.30989 320.131C-7.23004 320.131 -7.23004 321.566 -6.30989 321.562C1.56363 321.548 9.40578 320.822 17.2445 320.156C21.1655 319.821 25.0901 319.51 29.0216 319.308C32.8974 319.109 36.801 318.205 40.6524 317.706C47.3479 316.837 54.0851 316.575 60.7806 317.552C66.1272 318.334 71.6969 319.587 77.0993 318.627C79.1696 318.261 81.449 317.385 82.5121 315.454C83.2719 314.072 83.2893 312.408 83.1325 310.809C84.1572 310.781 85.1958 310.631 86.224 310.418C87.9145 310.066 89.096 309.218 89.8384 307.661C90.7272 305.797 91.3859 303.913 91.8355 301.892C92.1388 300.531 91.9506 299.257 90.5808 298.618C88.7684 297.774 86.0149 297.536 84.1014 298.067C82.3064 298.562 81.6303 300.29 81.2817 301.944C80.7798 304.307 81.1423 306.607 81.4769 308.966C81.4943 309.085 81.5118 309.207 81.5292 309.333C78.7932 308.89 76.3499 306.743 75.1439 304.335C73.8648 301.78 73.9868 298.58 74.175 295.809C74.3632 292.989 74.8198 290.183 75.1649 287.377C76.1164 279.65 76.3394 271.856 76.8867 264.098C77.169 260.112 77.5489 256.133 78.1414 252.183C78.7165 248.347 79.7098 244.626 80.5463 240.847C82.1914 233.42 83.359 225.899 84.4012 218.367C86.1334 205.862 87.2941 193.127 91.4486 181.124C92.7383 177.397 94.3659 173.729 96.5966 170.486C97.921 169.164 99.256 167.848 100.675 166.63C102.633 164.944 104.847 163.443 106.959 161.95C109.517 160.145 112.047 158.885 115.177 159.922C117.192 160.588 118.931 161.307 121.095 160.955C122.179 160.777 123.117 160.201 124.055 159.611C123.615 161.841 123.521 164.047 123.901 166.399C124.382 169.369 125.606 172.169 126.466 175.037C127.516 178.528 127.693 182.175 127.477 185.797C127.373 187.546 127.136 189.281 126.867 191.008C126.595 192.729 126.087 194.491 125.958 196.226C125.682 199.939 125.675 203.66 125.672 207.38C125.672 214.891 125.205 222.325 124.466 229.797C124.173 232.743 123.821 235.685 123.403 238.617C123.18 238.742 122.96 238.868 122.748 238.997C118.126 241.779 114.288 245.747 110.374 249.404C108.248 251.39 106.147 253.285 104.247 255.505C101.975 258.161 99.9077 260.988 97.8269 263.794C93.8431 269.172 89.225 274.4 86.8793 280.77C86.6004 281.527 86.3878 282.309 86.2031 283.094C85.987 284.016 87.2418 284.309 87.5798 283.475C88.7928 280.487 90.4518 277.734 92.5744 275.304C94.6483 272.931 97.2344 271.148 99.479 268.956C102.016 266.481 104.327 263.787 106.61 261.082C108.848 258.43 110.967 255.54 113.476 253.139C117.223 249.558 122.437 247.366 124.191 242.117C124.469 241.283 124.626 240.4 124.748 239.51C125.09 239.335 125.445 239.168 125.811 239.007C130.004 242.26 132.064 247.356 133.375 252.35C134.73 257.526 135.292 262.866 136.215 268.122C136.633 270.502 137.073 272.903 137.616 275.259C137.669 275.493 137.728 275.741 137.791 275.995C137.257 276.641 136.654 277.238 136.062 277.772C132.953 280.557 129.126 282.56 125.445 284.473C122.064 286.232 118.562 287.802 115.289 289.76C111.737 291.886 108.98 295.142 106.37 298.294C101.804 303.808 97.0776 310.342 89.5421 311.612C88.73 311.748 88.9461 313.018 89.7303 313.018C93.4841 313.011 97.2344 312.858 100.971 312.474C102.675 312.299 104.373 312.062 106.063 311.79C107.987 311.479 110.04 311.214 111.891 310.586C114.487 309.706 116.969 308.52 119.22 306.946C121.413 305.413 123.344 303.532 125.24 301.655C131.004 295.941 136.592 289.858 141.112 283.094C141.597 284.536 142.224 285.918 143.099 287.059C143.402 287.453 144.057 287.586 144.333 287.059C145.619 284.599 144.967 281.642 143.925 278.952C143.96 278.92 143.991 278.885 144.026 278.854C146.305 276.529 148.017 273.402 149.512 270.54C152.52 264.785 154.698 258.636 157.71 252.877C160.341 247.834 163.485 243.025 167.134 238.665C168.671 236.83 170.327 235.057 172.115 233.437C175.384 232.128 178.615 230.718 181.818 229.26C183.076 228.687 184.331 228.101 185.582 227.511C186.506 227.734 187.43 227.951 188.36 228.15C197.412 230.104 209.196 231.476 214.177 240.473C214.32 240.732 214.448 241 214.577 241.269C214.588 241.391 214.644 241.513 214.755 241.625C214.832 241.751 214.929 241.831 215.038 241.873C217.516 243.949 218.948 246.682 220.663 249.37C222.908 252.891 225.009 256.503 226.996 260.178C230.924 267.452 234.273 275.025 237.177 282.763C241.488 294.259 244.346 307.86 256.186 314.076C260.515 316.348 265.178 316.673 269.901 317.465C273.171 318.016 278.576 319.116 280.047 315.064C280.417 314.041 280.525 312.865 280.361 311.751C281.595 309.958 282.585 307.815 283.313 305.682C284.432 306.68 285.749 307.445 287.304 307.878C289.782 308.569 292.574 308.687 295.129 308.75C296.129 308.774 297.366 308.802 298.576 308.663C298.764 308.771 298.935 308.869 299.078 308.949C303.365 311.319 308.178 311.765 312.995 311.741C318.293 311.717 323.59 311.35 328.888 311.284C334.831 311.211 340.78 311.211 346.618 312.474C352.3 313.702 357.273 317.109 362.292 319.883C371.741 325.105 382.912 328.427 393.72 326.396C400.611 325.101 407.313 321.587 413.671 318.746C420.589 315.653 427.344 312.746 434.862 311.486C448.929 309.13 463.306 312.024 477.105 314.708C478.004 314.882 478.387 313.504 477.485 313.329L477.474 313.35ZM82.8188 301.623C83.4566 299.086 85.5548 299.17 87.7925 299.431C88.5767 299.522 89.7234 299.609 90.3473 300.164C90.7864 300.555 90.4693 301.463 90.3577 301.927C89.8907 303.885 89.2668 305.843 88.263 307.602C87.3533 309.2 84.7532 309.445 82.9582 309.448C82.9338 309.267 82.9094 309.089 82.885 308.914C82.5504 306.426 82.1949 304.101 82.8153 301.627L82.8188 301.623ZM283.348 299.075C283.254 300.377 283.017 301.679 282.686 302.956C282.393 302.541 282.118 302.105 281.863 301.655C282.142 301.648 282.407 301.487 282.49 301.145C282.717 300.178 283.027 299.243 283.383 298.332C283.376 298.58 283.369 298.831 283.351 299.079L283.348 299.075ZM256.556 259.02C256.695 259.833 256.786 260.663 256.82 261.494C255.203 257.33 254.266 252.908 252.75 248.71C252.645 248.42 252.537 248.134 252.425 247.851C253.227 249.335 254.036 250.818 254.848 252.298C255.531 254.51 256.162 256.734 256.556 259.02ZM214.497 235.465C212.88 233.818 211.883 231.556 210.493 229.741C209.834 228.883 209.158 228.178 208.154 227.762C206.871 227.232 205.425 227.061 204.058 226.883C199.723 226.317 195.491 225.218 191.197 224.852C194.805 223.103 198.398 221.334 202.006 219.595C204.982 218.165 207.882 216.591 210.883 215.208C213.971 213.788 217.111 212.476 220.22 211.097C220.443 210.999 220.576 210.71 220.576 210.479V209.91C220.576 209.499 220.248 209.226 219.861 209.195C215.675 208.867 211.427 209.293 207.31 210.074C207.108 210.113 206.906 210.155 206.704 210.193C209.489 208.434 212.186 206.504 214.616 204.288C215.037 203.901 215.532 203.443 216.027 202.93C218.035 205.283 219.9 207.785 222.643 209.296C224.054 210.074 225.63 210.444 227.222 210.574C226.504 211.914 225.783 213.254 225.062 214.594C224.633 214.193 224.204 213.788 223.775 213.387C223.169 212.818 222.287 213.533 222.653 214.256C223.064 215.062 223.51 215.844 223.981 216.601C220.649 222.803 217.366 229.033 214.497 235.468V235.465ZM184.328 225.064C183.902 225.138 183.481 225.229 183.062 225.333C180.239 224.579 177.423 223.787 174.589 223.03C167.552 221.149 160.501 219.264 153.747 216.5C153.186 216.269 152.628 216.032 152.074 215.784C154.458 213.453 156.594 210.926 158.372 208.186C158.473 208.099 158.543 207.984 158.581 207.855C160.055 205.53 161.268 203.056 162.147 200.421C162.443 200.428 162.739 200.421 163.028 200.382C163.715 200.295 164.029 199.465 163.387 199.049C163.161 198.903 162.924 198.767 162.68 198.641C163.014 197.395 163.279 196.118 163.461 194.805C163.589 193.86 163.725 192.914 163.868 191.968C164.245 192.073 164.625 192.17 165.008 192.251C165.475 192.348 165.956 192.408 166.434 192.415C166.995 192.425 167.298 191.804 167.05 191.336C166.448 190.205 165.489 189.392 164.388 188.76C164.593 187.588 164.82 186.415 165.071 185.249C167.113 185.756 169.156 186.303 171.209 186.82C170.557 189.591 169.741 192.331 169.295 195.137C169.149 196.065 169.037 197.018 169.128 197.957C169.17 198.397 169.557 198.801 170.034 198.648C174.921 197.06 178.89 193.982 182.787 190.785C185.136 190.474 187.437 190.191 189.81 190.118C190.905 190.083 191.992 190.104 193.079 190.174C193.194 190.205 193.31 190.237 193.425 190.272C194.268 190.519 195.104 190.792 195.934 191.081C195.84 191.148 195.742 191.218 195.648 191.284C192.748 193.329 189.702 195.172 186.534 196.77C185.816 197.133 186.325 198.369 187.085 198.079C191.162 196.512 194.976 194.285 198.83 192.191C200.402 192.837 201.95 193.542 203.473 194.285C204.759 194.914 206.073 195.563 207.373 196.257C207.091 196.467 206.805 196.673 206.516 196.878C204.1 197.793 201.751 198.945 199.489 200.1C196.767 201.489 193.912 202.948 191.504 204.853C190.873 205.352 191.588 206.145 192.201 206.05C194.836 205.635 197.509 203.956 199.806 202.7C202.298 201.339 204.731 199.852 207.059 198.222C207.844 197.929 208.635 197.657 209.433 197.419C210.451 198.023 211.444 198.662 212.375 199.353C213.358 200.082 214.232 200.937 215.055 201.841C214.832 202.075 214.612 202.302 214.396 202.515C212.967 203.956 211.357 205.216 209.722 206.41C207.181 208.263 204.501 209.935 201.758 211.478C199.583 212.196 197.488 213.139 195.624 214.416C194.979 214.859 195.362 215.966 196.175 215.725C198.342 215.083 200.437 213.945 202.431 212.772C204.156 212.217 205.93 211.802 207.683 211.457C211.047 210.793 214.529 210.434 217.972 210.532C215.233 211.732 212.479 212.905 209.761 214.158C206.502 215.659 203.344 217.365 200.113 218.925C196.119 220.855 192.138 222.817 188.141 224.736C186.879 224.75 185.607 224.852 184.321 225.071L184.328 225.064ZM161.526 236.816C158.996 238.313 156.608 240.107 154.587 242.246C152.502 244.455 151.195 247.031 150.45 249.966C149.672 253.034 149.547 256.238 149.163 259.369C148.766 262.614 147.916 265.825 146.839 268.911C145.845 271.745 144.584 274.477 143.13 277.105C142.841 276.467 142.552 275.852 142.283 275.283C141.868 274.394 141.398 273.5 140.92 272.6C141.028 271.549 140.872 270.45 140.352 269.301C140.101 268.743 139.505 268.893 139.202 269.263C138.268 267.298 137.519 265.277 137.355 263.145C136.985 258.311 138.055 253.442 138.313 248.626C138.516 244.846 138.366 240.274 135.027 237.824C133.029 236.358 130.652 236.205 128.335 236.7C134.601 229.305 142.865 224.042 150.087 217.638C150.383 217.376 150.673 217.111 150.962 216.842C157.086 219.578 163.516 221.512 169.982 223.274C173.464 224.223 176.942 225.249 180.438 226.206C177.165 227.553 174.168 229.741 171.554 232.062C168.117 233.462 164.712 234.927 161.526 236.816ZM141.795 278.871C141.687 278.934 141.583 278.973 141.482 278.997C141.436 278.805 141.394 278.617 141.349 278.428C141.112 277.402 140.875 276.334 140.694 275.252C141.227 276.355 141.74 277.472 142.193 278.61C142.064 278.704 141.935 278.791 141.795 278.871ZM139.554 276.885C139.488 276.714 139.425 276.536 139.362 276.355C139.383 276.324 139.408 276.292 139.429 276.261C139.467 276.47 139.509 276.676 139.551 276.885H139.554ZM161.474 198.069C160.902 197.831 160.324 197.615 159.759 197.395C157.929 196.68 156.078 196.002 154.252 195.28C152.353 194.526 150.47 193.716 148.675 192.732C147.417 192.041 145.967 191.204 145.228 189.919C144.503 188.663 145.814 187.57 146.894 187.162C148.752 186.464 150.937 187.047 152.753 187.595C156.096 188.607 159.208 190.401 162.516 191.542C162.289 193.064 162.08 194.589 161.857 196.114C161.763 196.77 161.631 197.423 161.477 198.072L161.474 198.069ZM158.916 199.943C159.529 200.065 160.17 200.201 160.822 200.299C160.052 202.539 158.968 204.7 157.72 206.71C156.748 206.214 155.695 205.841 154.688 205.447C152.809 204.71 150.917 204.002 149.041 203.258C147.107 202.494 145.183 201.695 143.318 200.766C142.207 200.211 140.669 199.555 139.938 198.487C139.477 197.817 140.9 197.343 141.516 197.217C143.175 196.882 145.023 197.161 146.675 197.402C150.802 198.002 154.827 199.133 158.912 199.943H158.916ZM152.314 213.6C152.258 213.467 152.164 213.348 152.032 213.275C150.53 212.423 148.714 212.273 147.051 211.938C145.734 211.673 143.608 211.296 144.364 209.509C146.291 204.968 152.67 207.638 156.72 208.239C156.458 208.616 156.197 208.989 155.929 209.352C154.817 210.856 153.604 212.263 152.314 213.6ZM164.098 190.565C164.116 190.457 164.133 190.348 164.151 190.244C164.381 190.404 164.597 190.575 164.799 190.76C164.565 190.704 164.328 190.638 164.095 190.568L164.098 190.565ZM163.07 188.097C162.077 187.668 161.045 187.33 160.094 187.005C157.943 186.269 154.562 185.511 153.308 183.333C156.852 183.459 160.285 184.101 163.694 184.911C163.509 185.759 163.377 186.447 163.3 186.858C163.22 187.27 163.147 187.682 163.074 188.097H163.07ZM172.09 181.899C172.049 182.332 171.993 182.764 171.93 183.194C171.512 182.552 170.958 182.021 170.093 181.721C168.654 181.218 167.354 181.697 166.172 180.967C166.385 180.283 166.615 179.606 166.873 178.943C167.305 177.829 167.89 176.437 168.894 175.714C169.807 175.058 170.822 175.777 171.379 176.573C172.415 178.056 172.251 180.199 172.087 181.899H172.09ZM230.283 165.799C229.847 162.902 228.376 160.236 228.035 157.332C235.295 159.039 242.154 162.232 248.274 166.49C251.355 168.633 254.374 171.129 256.796 174.008C257.793 175.194 258.622 176.524 259.337 177.917C258.183 176.905 256.977 175.959 255.726 175.083C255.391 174.036 255.015 173.003 254.576 171.991C254.402 171.582 253.729 171.516 253.454 171.844C253.126 172.235 252.826 172.647 252.554 173.076C250.752 172.046 248.856 171.149 246.866 170.389C241.718 168.427 235.929 166.214 230.46 167.621C230.429 167.01 230.373 166.403 230.283 165.799ZM275.129 228.443C275.262 229.127 275.391 229.811 275.52 230.495C278.817 248.312 280.054 266.412 280.668 284.515C280.204 283.719 279.723 282.948 279.232 282.208C277.423 279.472 275.352 276.913 273.387 274.292C271.17 271.336 269.246 268.23 267.399 265.03C264.729 260.402 262.188 255.704 259.333 251.184C257.619 248.466 255.754 245.876 253.753 243.394C252.941 239.486 253.14 235.221 252.99 231.263C252.83 227.022 252.614 222.789 252.335 218.555C251.767 209.994 251.3 201.433 251.265 192.851C251.24 187.019 250.728 180.482 253.136 175.016C253.136 175.016 253.136 175.013 253.14 175.009C253.373 175.153 253.607 175.292 253.84 175.439C254.071 175.585 254.29 175.742 254.517 175.892C255.437 178.803 256.036 181.819 256.768 184.785C257.72 188.645 259.253 192.202 261.146 195.688C263.031 199.161 264.973 202.644 266.949 206.064C269.113 209.809 270.724 213.837 272.08 217.938C273.226 221.403 274.164 224.932 275.133 228.45L275.129 228.443ZM282.431 296.824C282.393 295.079 282.351 293.334 282.302 291.589C282.675 292.751 282.971 293.952 283.16 295.163C282.905 295.715 282.661 296.266 282.428 296.824H282.431ZM252.398 243.914C252.481 244.305 252.575 244.696 252.673 245.084C252.293 244.351 251.913 243.618 251.533 242.885C251.822 243.227 252.112 243.569 252.398 243.914ZM253.781 173.798C253.781 173.798 253.781 173.798 253.781 173.802C253.781 173.802 253.781 173.802 253.778 173.802L253.781 173.798ZM223.476 187.623C225.093 186.237 226.219 184.244 227.174 182.377C228.244 180.287 229.422 177.906 229.798 175.582C230.14 173.456 230.453 171.268 230.485 169.094C231.837 168.713 233.259 168.563 234.618 168.595C238.069 168.671 241.175 170.005 244.399 171.041C246.995 171.875 249.505 172.954 251.882 174.28C249.825 178.458 249.836 183.843 249.804 188.268C249.752 195.936 250 203.6 250.442 211.254C250.937 219.836 251.39 228.408 251.791 236.997C251.857 238.407 251.864 239.863 251.99 241.286C251.143 240.306 250.275 239.342 249.383 238.397C249.278 238.285 249.17 238.177 249.065 238.065C246.051 232.146 243.022 226.23 239.603 220.559C234.249 211.68 227.083 204.476 218.641 198.512C218.593 198.477 218.544 198.442 218.495 198.407C218.502 198.041 218.45 197.674 218.324 197.311C217.62 195.28 215.369 194.983 213.344 195.151C212.894 194.896 212.441 194.648 211.988 194.407C213.591 192.99 215.139 191.256 215.351 189.294C215.424 188.614 215.316 188.076 215.076 187.647C215.184 187.734 215.288 187.825 215.397 187.912C215.86 188.3 216.334 188.673 216.812 189.043C217.233 189.368 217.899 189.612 218.262 189.972C218.805 190.506 219.474 191.109 220.241 191.256C220.694 191.34 221.144 191.06 221.144 190.565C221.144 190.041 221.154 189.514 221.168 188.977C221.991 188.705 222.772 188.226 223.472 187.626L223.476 187.623ZM221.235 187.399C221.51 182.161 222.542 176.594 225.529 172.374C226.431 171.097 227.676 170.193 229.07 169.589C229.028 172.664 228.463 175.784 227.327 178.597C226.24 181.292 224.922 184.091 222.894 186.206C222.357 186.764 221.803 187.155 221.238 187.399H221.235ZM228.39 209.192C225.724 209.16 223.361 208.389 221.332 206.637C219.701 205.227 218.401 203.461 216.996 201.827C217.505 201.185 217.944 200.498 218.216 199.782C223.193 203.248 227.742 207.401 231.579 211.795C237.379 218.43 241.412 226.345 245.354 234.205C239.115 227.836 232.639 221.704 226.145 215.603C227.104 213.826 228.059 212.046 229.007 210.266C229.261 209.788 228.944 209.195 228.39 209.188V209.192ZM211.245 196.931C211.381 196.899 211.514 196.868 211.646 196.837C212.033 196.753 212.584 196.659 213.183 196.606C214.459 197.332 215.717 198.107 216.951 198.924C216.947 198.941 216.944 198.955 216.941 198.969C216.759 199.597 216.418 200.187 216.01 200.732C214.567 199.238 212.988 198.037 211.245 196.931ZM205.982 183.867C206.453 183.955 206.923 184.038 207.391 184.136C208.816 184.436 210.43 184.625 211.747 185.267C212.455 185.612 213.11 186.063 213.737 186.548C212.057 185.881 209.506 186.223 208.115 186.572C205.362 187.27 202.685 188.485 200.186 189.86C200.151 189.853 200.116 189.842 200.085 189.835C201.73 188.579 203.316 187.232 204.675 185.731C205.153 185.204 205.648 184.558 205.982 183.867ZM210.594 193.682C207.903 192.348 205.111 191.242 202.239 190.408C202.354 190.352 202.466 190.293 202.581 190.237C204.721 189.183 206.965 188.279 209.297 187.762C210.44 187.511 213.295 187.015 213.866 188.541C214.215 189.469 213.42 190.547 212.908 191.245C212.249 192.142 211.437 192.938 210.59 193.682H210.594ZM205.533 192.983C206.85 193.483 208.154 194.041 209.447 194.655C209.416 194.68 209.388 194.704 209.356 194.729C209.098 194.938 208.837 195.144 208.576 195.346C206.031 193.908 203.41 192.603 200.73 191.437C202.354 191.867 203.961 192.387 205.533 192.98V192.983ZM211.127 195.486C210.925 195.531 210.719 195.573 210.517 195.622C210.628 195.531 210.743 195.441 210.859 195.35C210.949 195.395 211.036 195.441 211.127 195.486ZM219.743 189.385C219.68 189.329 219.617 189.274 219.558 189.218C219.621 189.218 219.684 189.218 219.746 189.218C219.746 189.274 219.746 189.329 219.746 189.382L219.743 189.385ZM206.376 182.562C206.432 182.032 206.345 181.498 206.049 180.985C205.125 179.386 202.657 179.292 201.065 179.316C200.688 179.32 200.312 179.344 199.939 179.379C198.165 177.55 197.21 175.236 196.708 172.737C197.342 172.835 197.98 172.912 198.59 173.031C200.343 173.376 202.155 174.186 203.713 175.041C206.673 176.66 208.931 179.253 211.036 181.829C211.66 182.59 212.274 183.438 212.918 184.283C210.928 183.183 208.614 182.977 206.38 182.562H206.376ZM204.916 182.244C204.017 182.011 203.145 181.704 202.333 181.236C202.04 181.068 201.769 180.887 201.504 180.705C202.277 180.726 203.041 180.831 203.769 181.047C204.592 181.292 204.902 181.731 204.916 182.244ZM199.412 180.848C200.089 181.459 200.841 181.997 201.615 182.471C202.514 183.023 203.49 183.337 204.494 183.567C204.191 184.094 203.773 184.597 203.431 184.977C201.925 186.639 200.106 188.087 198.252 189.441C196.68 189.137 195.091 188.918 193.484 188.795C192.689 188.565 191.887 188.352 191.079 188.16C189.688 187.832 188.259 187.644 186.82 187.511C189.817 185.141 192.933 182.974 196.544 181.613C197.44 181.274 198.416 181.005 199.412 180.852V180.848ZM186.042 188.949C185.649 188.994 185.255 189.04 184.861 189.089C184.952 189.015 185.042 188.942 185.133 188.869C185.436 188.893 185.739 188.921 186.042 188.949ZM170.543 196.962C170.578 195.51 170.944 194.048 171.264 192.652C171.658 190.935 172.101 189.232 172.505 187.518C172.62 187.703 172.742 187.877 172.875 188.035C174.112 189.497 175.586 190.464 177.461 190.875C178.392 191.081 179.35 191.106 180.305 191.05C177.817 193.015 175.241 194.851 172.352 196.219C171.763 196.498 171.156 196.742 170.543 196.962ZM182.341 189.41C182.153 189.434 181.965 189.458 181.776 189.479C178.978 189.821 176.398 189.612 174.335 187.532C177.109 188.108 179.859 188.485 182.735 188.684C182.885 188.694 183.035 188.705 183.184 188.715C182.902 188.945 182.623 189.179 182.341 189.41ZM165.789 182.318C166.576 182.764 167.549 183.016 168.744 183.019C170.198 183.023 170.891 184.154 171.484 185.42C169.455 184.904 167.437 184.339 165.412 183.815C165.531 183.312 165.656 182.813 165.789 182.318ZM242.049 232.889C243.869 234.711 245.692 236.54 247.473 238.407C247.612 238.683 247.755 238.962 247.894 239.238C248.215 239.866 248.543 240.494 248.867 241.122C247.591 239.231 246.145 237.447 244.566 235.755C238.926 229.699 231.816 224.848 226.843 218.22C231.97 223.047 237.069 227.905 242.046 232.889H242.049ZM254.684 246.867C256.071 248.766 257.375 250.731 258.622 252.723C262.805 259.407 266.179 266.618 270.734 273.064C274.16 277.908 278.189 282.393 280.776 287.757C280.898 291.875 280.995 295.99 281.079 300.102C280.553 298.974 280.106 297.823 279.699 296.758C277.946 292.183 275.809 287.883 273.547 283.534C267.97 272.806 262.038 262.269 256.218 251.673C255.705 250.064 255.165 248.462 254.684 246.867ZM279.329 241.67C282.111 249.774 285.565 257.679 287.199 266.129C288.36 272.132 288.224 278.756 287.178 284.773C286.673 287.68 285.467 290.298 284.23 292.901C283.756 290.999 283.041 289.136 282.187 287.356C281.769 273.943 281.044 260.541 279.465 247.209C279.131 244.382 278.751 241.562 278.332 238.749C278.664 239.723 278.998 240.693 279.329 241.67ZM268.974 204.965C269.636 206.839 270.25 208.731 270.821 210.629C270.518 209.928 270.204 209.23 269.873 208.539C267.019 202.588 263.223 197.126 260.449 191.137C258.403 186.722 257.643 181.906 256.371 177.243C257.978 178.524 259.459 179.938 260.898 181.417C261.163 182.091 261.414 182.768 261.655 183.438C262.857 186.785 263.812 190.216 264.952 193.584C266.242 197.395 267.636 201.171 268.974 204.965ZM67.7793 202.784C68.4659 198.889 69.5917 195.088 70.4491 191.231C71.3518 187.186 71.3518 183.264 71.073 179.145C70.8186 175.393 70.3341 171.589 70.6164 167.827C70.8116 165.223 71.662 162.696 72.8854 160.403C75.4472 155.601 79.7342 151.881 84.0561 148.708C88.6708 145.319 93.6375 142.45 98.5031 139.449C103.386 136.433 108.064 133.31 111.908 128.989C116.362 123.984 119.307 117.957 121.552 111.689C122.817 108.157 123.751 104.52 124.982 100.981C126.362 97.0128 128.282 93.247 130.395 89.6278C134.647 82.3439 139.805 75.6464 145.155 69.1514C147.884 65.8393 150.627 62.5411 153.255 59.1488C155.667 56.0426 157.79 52.713 160.296 49.6836C164.586 44.4938 170.278 39.9951 176.761 37.9429C181.87 36.327 187.496 36.156 192.787 36.7179C197.976 37.2693 203.696 38.805 207.464 42.6371C209.639 44.8498 210.221 47.4639 209.663 50.4724C209.206 52.9399 208.182 55.362 208.527 57.9098C208.917 60.817 211.918 61.6895 214.354 62.22C215.986 62.576 217.728 62.8378 219.077 63.9058C220.628 65.1343 220.91 67.2562 221.074 69.092C221.381 72.5158 221.966 75.9152 222.475 79.3145C223.023 82.9722 223.685 86.6368 224.978 90.1164C226.18 93.3587 228.157 95.896 230.426 98.4507C233.196 101.574 233.573 105.591 233.949 109.598C234.699 117.615 235.873 125.653 238.358 133.334C239.449 136.709 240.714 140.283 242.966 143.061C244.841 145.379 247.413 147.078 249.958 148.572C254.353 151.148 259.173 153.137 262.913 156.693C266.74 160.334 269.19 164.948 270.696 169.97C273.519 179.372 273.226 189.424 273.15 199.182C272.125 196.847 271.522 194.275 270.257 192.059C268.326 188.677 266.325 185.347 263.774 182.388C263.216 181.738 262.641 181.11 262.056 180.503C260.491 176.748 258.448 173.425 255.461 170.532C247.856 163.161 237.769 157.95 227.442 155.723C227.003 155.629 226.525 155.926 226.536 156.414C226.64 160.236 228.763 163.628 229.014 167.429C229.028 167.642 229.038 167.855 229.049 168.071C228.767 168.179 228.488 168.291 228.209 168.42C222.385 171.118 220.851 178.685 220.109 184.415C219.969 185.504 219.872 186.6 219.806 187.696C218.505 187.703 217.216 186.991 216.09 185.731C211.625 180.719 208.154 174.968 201.577 172.507C200.082 171.949 198.656 171.579 197.077 171.331C196.886 171.303 196.669 171.272 196.443 171.237C196.07 168.473 196.133 165.569 196.147 162.913C196.15 162.239 196.161 161.566 196.175 160.896C196.457 159.513 196.708 158.124 197.056 156.763C197.858 153.626 198.796 150.53 199.353 147.337C199.667 145.536 199.855 143.201 199.5 141.173C201.134 138.678 203.494 136.706 205.672 134.709C208.272 132.329 210.486 129.527 212.326 126.529C215.986 120.574 217.896 113.615 218.077 106.649C218.181 102.531 217.509 98.4542 216.627 94.4476C215.647 89.9907 214.41 85.5758 212.814 81.3004C211.441 77.6218 209.788 73.6117 206.937 70.8127C205.027 68.9385 202.487 68.3382 200.179 69.8773C200.148 69.8983 200.12 69.9227 200.092 69.9436C198.2 69.5074 196.202 69.3817 194.686 69.2875C188.887 68.9315 182.805 69.0397 177.155 70.4462C170.132 72.1947 163.729 76.6132 159.187 82.2043C155.685 86.5181 153.593 91.7742 152.157 97.0931C152.129 97.1943 152.102 97.3025 152.074 97.4072C151.157 95.9065 150.003 94.6395 148.54 94.0427C147.184 93.4913 145.88 93.9974 144.915 95.0235C143.426 96.608 144.395 99.4978 144.918 101.281C145.274 102.492 145.709 103.679 146.107 104.876C146.225 105.235 146.281 105.829 146.504 106.132C147.058 106.883 147.654 107.584 148.309 108.247C149.31 109.26 150.456 110.122 151.6 110.98C152.136 112.285 152.952 113.444 154.144 114.355C154.468 114.603 154.925 114.39 155.123 114.097C155.141 114.069 155.158 114.041 155.176 114.013C155.448 114.306 155.706 114.61 155.949 114.931C159.09 119.084 160.989 124.253 163.481 128.797C165.841 133.104 168.71 137.456 173.021 140.014C177.468 142.653 182.616 142.3 187.255 140.451C189.688 139.484 192.246 138.158 194.909 138.056C196.774 137.987 197.642 139.271 198.029 140.81C196.568 143.096 195.868 145.742 195.509 148.408C194.958 152.505 194.812 156.676 194.739 160.805C194.739 160.843 194.739 160.882 194.739 160.923C194.23 163.108 193.655 165.276 193.236 167.481C192.881 169.369 192.456 171.184 194.508 172.144C194.704 172.235 194.906 172.308 195.111 172.378C195.551 175.03 196.565 177.536 198.255 179.634C193.829 180.566 189.866 183.389 186.367 186.136C185.851 186.541 185.342 186.949 184.833 187.364C183.394 187.274 181.958 187.207 180.542 187.092C178.05 186.886 175.611 186.419 173.188 185.846C173.115 185.689 173.042 185.532 172.976 185.375C173.662 182.133 174.537 177.54 171.923 175.027C168.741 171.959 166.493 175.683 165.078 179.812C164.381 178.632 164.335 177.086 164.318 175.767C164.311 175.372 163.997 175.055 163.603 175.051C160.247 175.006 156.479 174.263 156.221 170.291C156.026 167.282 157.382 164.152 158.431 161.402C158.508 161.199 158.584 161 158.658 160.798C160.536 157.849 161.725 154.4 162.167 150.795C162.955 144.342 162.07 137.85 162.045 131.383C162.042 130.462 160.613 130.458 160.616 131.383C160.634 137.421 161.049 143.476 160.393 149.497C159.968 153.399 158.598 156.92 157.243 160.501C155.089 163.695 152.014 166.092 148.351 167.422C144.66 168.762 139.359 170.026 136.003 167.282C133.842 165.516 133.964 162.019 132.963 159.618C131.914 157.098 129.548 156.32 126.972 156.781C126.724 156.826 126.487 156.882 126.257 156.948C127.202 153.79 128.296 150.656 127.948 147.319C127.913 146.974 127.648 146.548 127.233 146.604C121.894 147.302 117.485 151.654 113.466 154.889C108.437 158.938 102.546 161.695 98.0082 166.392C96.966 167.471 96.0354 168.658 95.1955 169.91C93.16 171.959 91.128 174.011 88.7997 175.725C88.7126 175.791 88.6464 175.865 88.5976 175.945C88.5488 176.004 88.5035 176.07 88.4721 176.151C84.4813 186.174 81.3828 196.432 79.6889 207.097C78.8106 212.619 78.5074 218.109 78.5562 223.696C78.598 228.942 78.7653 234.184 78.3749 239.416C74.5723 234.756 71.1113 229.783 69.1316 224.052C66.8103 217.327 66.549 209.757 67.7758 202.798L67.7793 202.784ZM194.686 167.164C194.711 168.364 194.773 169.565 194.902 170.759C194.575 170.542 194.359 170.235 194.369 169.774C194.393 168.909 194.515 168.036 194.686 167.164ZM154.409 111.375C153.893 110.952 153.328 110.533 152.743 110.108C151.868 107.672 152.077 104.618 152.551 101.892C153.196 103.529 153.68 105.239 154.039 106.953C154.304 108.209 154.67 109.947 154.517 111.465C154.482 111.434 154.447 111.406 154.412 111.375H154.409ZM150.979 108.795C149.449 107.595 148.059 106.248 147.487 104.492C146.699 102.077 145.469 99.4733 145.612 96.8802C145.706 95.1666 147.581 94.9851 148.689 95.7529C149.965 96.6394 150.836 98.1855 151.533 99.6129C150.892 102.51 150.443 105.853 150.979 108.795ZM155.859 109.72C155.726 107.577 155.225 105.448 154.583 103.407C154.207 102.203 153.719 100.74 153.074 99.3233C153.172 98.9114 153.266 98.517 153.356 98.1471C154.751 92.5211 157.002 87.0311 160.742 82.5533C165.691 76.6306 172.659 72.617 180.225 71.2489C183.421 70.673 186.659 70.6521 189.894 70.6242C192.323 70.6032 194.752 70.6521 197.164 70.9348C198.05 71.0395 199.161 71.1861 200.245 71.4723C201.309 73.4267 202.654 75.088 205.083 75.1927C205.557 75.2137 205.885 74.7216 205.773 74.2853C205.296 72.4146 203.856 71.2699 202.086 70.5579C204.522 69.8913 206.554 72.2331 207.899 74.2993C210.371 78.0895 211.862 82.5394 213.169 86.8427C216.034 96.2834 217.896 106 215.362 115.762C213.507 122.906 209.503 129.38 204.013 134.287C202.232 135.882 200.476 137.536 199.015 139.435C198.262 137.613 196.784 136.388 194.108 136.692C191.483 136.988 189.005 138.231 186.579 139.194C184.077 140.192 181.637 140.695 178.929 140.461C173.655 140.011 169.8 136.081 167.016 131.907C164.05 127.46 161.962 122.498 159.393 117.824C158.334 115.898 157.218 114.142 155.737 112.607C155.943 111.661 155.918 110.638 155.862 109.72H155.859ZM202.487 72.3448C202.992 72.638 203.438 72.994 203.78 73.4267C203.271 73.1754 202.849 72.795 202.487 72.3448ZM198.311 143.745C198.259 146.963 197.353 150.17 196.516 153.266C196.593 152.125 196.68 150.987 196.781 149.846C196.976 147.602 197.422 145.406 198.315 143.372C198.315 143.501 198.315 143.627 198.315 143.749L198.311 143.745ZM89.9464 181.107C87.9563 186.855 86.705 192.847 85.6943 198.836C83.5751 211.397 82.4006 224.077 79.9608 236.578C80.1316 232.46 80.034 228.338 79.9852 224.213C79.9155 218.398 80.2291 212.706 81.1423 206.961C82.7944 196.564 85.872 186.544 89.7478 176.775C90.7725 176.004 91.7484 175.174 92.6895 174.308C91.616 176.531 90.7272 178.842 89.9464 181.107ZM121.883 159.168C119.276 160.609 116.453 158.655 113.888 158.107C113.062 157.932 112.236 157.946 111.42 158.096C112.898 157.07 114.337 156.002 115.752 154.854C118.851 152.334 122.49 148.959 126.571 148.136C126.665 151.231 125.539 154.229 124.665 157.161C124.616 157.325 124.57 157.486 124.525 157.646C123.643 158.103 122.807 158.658 121.887 159.164L121.883 159.168ZM119.83 246.218C118.133 247.837 116.129 249.118 114.292 250.57C112.013 252.374 110.197 254.615 108.332 256.828C104.39 261.505 100.563 266.59 95.7322 270.39C94.5437 271.326 93.4423 272.334 92.4211 273.413C94.2021 270.83 96.1992 268.37 98.0256 265.927C100.218 262.991 102.365 260.025 104.697 257.198C106.614 254.877 108.729 252.888 110.929 250.853C114.839 247.241 118.593 243.346 123.114 240.477C122.664 242.752 121.524 244.602 119.827 246.218H119.83ZM125.034 237.165C125.281 235.311 125.501 233.455 125.703 231.598C126.104 227.867 126.411 224.129 126.703 220.388C127.216 213.812 126.986 207.241 127.157 200.655C127.324 194.219 129.209 188.01 128.945 181.529C128.823 178.555 128.213 175.739 127.282 172.922C126.393 170.235 125.389 167.586 125.1 164.749C124.888 162.648 125.243 160.63 125.769 158.637C126.118 158.473 126.473 158.337 126.85 158.243C130.851 157.252 131.785 160.177 132.555 163.353C133.225 166.117 134.33 168.34 137.024 169.565C140.432 171.118 144.873 170.05 148.25 168.958C151.241 167.991 153.792 166.361 155.873 164.277C155.001 166.899 154.224 169.97 155.27 172.612C156.472 175.652 159.958 176.343 162.913 176.458C163.028 178.402 163.52 180.15 164.586 181.354C164.374 182.084 164.186 182.799 164.022 183.469C162.784 183.166 161.54 182.883 160.289 182.646C157.633 182.143 154.939 181.888 152.234 181.875C151.76 181.875 151.432 182.332 151.544 182.782C152.255 185.626 155.256 186.81 157.741 187.706C159.236 188.247 161.171 188.698 162.83 189.486C162.798 189.682 162.767 189.881 162.736 190.076C162.209 189.867 161.693 189.647 161.192 189.438C159.024 188.541 156.898 187.556 154.698 186.743C151.52 185.567 146.584 184.178 144.137 187.476C142.227 190.052 145.441 192.474 147.382 193.64C150.77 195.671 154.608 196.955 158.285 198.355C156.563 197.995 154.848 197.587 153.133 197.207C149.481 196.39 145.42 195.273 141.649 195.762C139.404 196.051 137.184 197.967 139.369 199.978C140.52 201.035 142.015 201.737 143.409 202.403C145.281 203.297 147.212 204.072 149.139 204.832C150.216 205.258 151.342 205.642 152.468 206.043C148.564 205.297 144.5 204.927 142.963 209.171C141.499 213.223 147.229 213.254 150.233 214.099C149.965 214.434 149.721 214.8 149.456 215.097C149.17 215.411 149.163 216.015 149.599 216.221C149.603 216.221 149.606 216.221 149.61 216.224C144.35 221.03 138.296 225.068 133.043 229.808C130.45 232.149 128.049 234.683 125.905 237.444C125.581 237.573 125.261 237.709 124.947 237.856C124.975 237.625 125.003 237.398 125.034 237.172V237.165ZM127.338 238.459C130.314 237.517 133.587 237.528 135.515 240.306C137.696 243.454 136.971 248.291 136.633 251.851C136.438 253.896 136.166 255.955 136.006 258.018C135.713 256.318 135.386 254.622 134.985 252.94C133.702 247.548 131.566 242.152 127.338 238.456V238.459ZM137.909 269.637C138.233 270.321 138.568 271.001 138.906 271.678C138.913 272.45 138.972 273.228 139.066 274.003C138.993 274.167 138.913 274.331 138.826 274.491C138.39 272.708 138.087 270.809 137.906 269.637H137.909ZM137.135 286.256C133.183 291.523 128.627 296.301 123.96 300.929C119.743 305.11 115.219 308.516 109.294 309.766C104.442 310.792 99.5208 311.312 94.5785 311.514C102.086 307.85 106.551 299.253 112.542 293.68C115.031 291.362 117.983 289.872 120.994 288.354C124.811 286.427 128.662 284.553 132.298 282.292C134.176 281.122 136.504 279.555 138.272 277.667C138.62 278.617 139.112 279.506 139.882 280.054C140.025 280.156 140.171 280.232 140.317 280.295C140.401 280.641 140.488 280.993 140.582 281.342C139.491 283.021 138.338 284.661 137.142 286.256H137.135ZM142.123 281.555C142.367 281.171 142.604 280.787 142.841 280.4C142.928 280.669 143.012 280.937 143.088 281.21C143.437 282.421 143.723 283.813 143.507 285.098C142.907 284.005 142.471 282.787 142.119 281.555H142.123ZM159.867 246.281C156.734 251.23 154.245 256.521 151.927 261.892C150.551 265.078 149.167 268.265 147.487 271.308C147.438 271.396 147.389 271.479 147.341 271.563C147.501 271.172 147.658 270.781 147.808 270.387C148.972 267.364 149.812 264.213 150.355 261.019C150.892 257.857 150.972 254.64 151.575 251.485C152.199 248.2 153.545 245.426 155.838 242.997C157.947 240.763 160.533 239.014 163.189 237.5C164.945 236.498 166.768 235.657 168.619 234.875C165.294 238.33 162.425 242.243 159.871 246.277L159.867 246.281ZM179.842 228.61C178.699 229.127 177.542 229.619 176.377 230.097C177.566 229.301 178.807 228.582 180.103 227.965C181.051 227.511 182.017 227.155 182.996 226.883C183.125 226.918 183.251 226.953 183.38 226.984C182.205 227.532 181.027 228.076 179.842 228.61ZM279.803 309.975C279.162 308.67 278.026 307.699 276.374 307.602C272.679 307.385 269.96 311.259 269.18 314.414C269.103 314.718 269.222 315.067 269.507 315.224C273.338 317.301 276.492 316.139 278.921 313.563C278.845 314.285 278.639 314.987 278.242 315.489C277.482 316.453 276.046 316.568 274.92 316.592C272.271 316.659 269.64 315.94 267.026 315.598C263.819 315.179 260.776 314.652 257.803 313.305C255.252 312.146 252.98 310.485 251.007 308.506C246.713 304.209 244.123 298.447 242.143 292.793C238.742 283.08 235.291 273.514 230.708 264.276C228.425 259.679 225.919 255.198 223.239 250.825C221.088 247.317 219.136 243.387 215.891 240.752C211.58 231.528 200.587 229.256 191.574 227.385C190.284 227.117 189.005 226.823 187.726 226.516C188.001 226.384 188.277 226.255 188.548 226.122C192.393 226.07 196.307 226.848 200.043 227.727C201.521 228.076 203.065 228.164 204.567 228.38C206.056 228.596 207.715 228.802 208.799 229.926C210.897 232.104 211.838 235.245 214.246 237.158C214.567 237.412 215.166 237.475 215.369 237.015C218.223 230.506 221.524 224.216 224.88 217.955C229.676 224.88 236.828 229.909 242.701 235.884C246.584 239.835 249.641 244.291 251.53 249.52C253.37 254.619 254.36 260 256.754 264.897C257.012 265.424 257.971 265.337 258.061 264.726C258.42 262.335 258.25 259.972 257.803 257.631C260.515 262.513 263.248 267.382 265.917 272.282C268.922 277.8 271.874 283.346 274.722 288.947C276.701 292.839 278.04 296.94 279.88 300.883C280.511 302.234 281.278 303.494 282.212 304.579C281.982 305.288 281.731 305.986 281.459 306.666C281.034 307.741 280.479 308.89 279.81 309.975H279.803ZM278.796 311.43C276.788 314.01 274.035 315.737 270.713 314.229C271.372 312.097 272.752 310.108 274.899 309.288C276.848 308.548 278.346 309.525 278.792 311.43H278.796ZM297.638 306.328C295.299 304.37 299.796 304.227 300.991 304.813C302.225 305.417 301.082 306.454 300.287 306.764C299.799 306.956 299.287 307.085 298.76 307.169C298.373 306.907 298.001 306.628 297.638 306.328Z" fill="#24282E"/>
</g>
<defs>
<clipPath id="clip0_487_4496">
<rect width="375" height="395" fill="white"/>
</clipPath>
</defs>
</svg>
