<svg width="273" height="195" viewBox="0 0 273 195" fill="none" xmlns="http://www.w3.org/2000/svg">
<path d="M134.419 16.8682C138.584 15.5927 143.428 16.5848 146.599 19.6257C148.294 21.3079 149.786 23.3167 150.349 25.6798C151.438 29.9315 150.115 34.6762 147.089 37.8342C154.92 40.4776 161.287 47.1171 163.474 55.1214C166.014 55.0136 168.564 55.9471 170.438 57.6663C172.031 59.3547 173.24 61.5421 173.274 63.9176C173.283 65.8894 172.834 67.929 171.693 69.5649C170.967 70.4923 170.13 71.3303 169.232 72.0913C171.376 74.0108 174.126 74.9967 176.488 76.5926C178.884 78.1454 180.625 80.5794 181.511 83.2783C183.744 83.4139 186.005 83.3676 188.204 83.8298C192.867 84.5353 197.201 86.6119 201.123 89.1753C206.825 86.6889 213.82 87.1819 218.978 90.7281C222.069 92.6937 224.287 95.7038 226.751 98.3627C235.382 108.08 244.016 117.794 252.653 127.509C256.202 131.56 259.863 135.516 263.339 139.635C266.174 143.144 268.952 146.811 270.668 151.022C274.147 158.876 273.593 168.196 269.939 175.892C265.778 184.941 257.254 191.787 247.568 194.008C242.97 195.287 238.15 194.935 233.432 194.982C170.69 194.837 107.948 194.975 45.203 194.988C40.5861 194.945 35.9446 195.191 31.3554 194.553C21.2788 192.886 12.1065 186.244 7.53881 177.069C4.39218 170.818 3.1526 163.565 4.43525 156.654C5.73635 149.026 9.76883 141.89 15.7791 137.001C34.7942 121.633 53.9723 106.475 73.1043 91.2518C77.5367 87.7272 82.6457 84.8311 88.2869 83.8883C90.6984 83.3276 93.196 83.4015 95.6536 83.2968C96.2873 81.2911 97.3915 79.424 98.9664 78.016C101.525 75.4064 105.3 74.5499 107.945 72.0513C106.813 71.0592 105.592 70.0733 104.949 68.6746C103.752 66.2129 103.491 63.1966 104.657 60.6733C105.524 58.9418 106.745 57.2904 108.508 56.3908C110.076 55.448 111.907 55.0875 113.721 55.106C114.942 50.5185 117.677 46.4239 121.097 43.1796C123.583 41.1 126.262 39.1497 129.341 38.0622C125.185 34.1247 124.321 27.3527 127.231 22.4479C128.885 19.8475 131.408 17.6878 134.419 16.8682ZM135.016 17.6539C132.924 18.1407 131.171 19.4932 129.605 20.9012C126.797 23.9452 125.64 28.5636 127.025 32.5164C127.658 34.4574 128.753 36.3245 130.356 37.5969C133.493 36.8606 136.707 36.2351 139.949 36.4724C142.09 36.4601 144.176 36.9992 146.261 37.4182C147.51 35.8408 148.796 34.1956 149.288 32.2053C150.54 27.8888 149.165 22.8237 145.588 20.0139C142.779 17.4567 138.636 16.705 135.016 17.6539ZM135.637 37.5538C129.901 38.0652 124.524 40.9274 120.587 45.0775C116.61 49.0612 114.284 54.5176 113.777 60.0972C124.887 61.5699 136.554 57.2473 144.157 49.0273C145.249 47.8719 146.055 46.4424 147.353 45.4842C148.405 46.7566 148.743 48.445 149.722 49.7698C152.714 54.5021 157.786 57.7957 163.28 58.7754C162.625 54.9735 161.428 51.1747 159.1 48.0537C156.562 44.4336 152.982 41.6422 149.082 39.6211C144.911 37.6863 140.195 36.953 135.637 37.5538ZM147.212 46.8799C139.565 57.0809 126.302 62.7037 113.663 61.0862C113.589 67.1495 115.321 73.4346 119.307 78.1023C123.666 83.5864 130.537 86.8738 137.492 87.1973C145.763 87.5793 154.225 83.5956 158.931 76.7097C162.363 71.8295 163.864 65.7261 163.415 59.7983C160.942 59.2746 158.457 58.5937 156.264 57.2966C152.139 55.0321 148.897 51.2733 147.212 46.8799ZM105.232 62.0197C104.165 65.455 105.623 69.5403 108.735 71.3827C110.476 72.5412 112.663 72.8338 114.706 72.5412C113.648 69.8638 112.909 67.0509 112.706 64.1733C112.362 61.4343 112.925 58.7046 113.389 56.0149C109.732 55.9163 106.185 58.4704 105.232 62.0197ZM163.695 56.0303C163.994 57.6047 164.498 59.1667 164.4 60.7904C164.806 64.7987 163.944 68.8224 162.48 72.5442C164.636 72.8554 166.962 72.5011 168.74 71.1763C172.255 68.9303 173.298 63.8066 171.203 60.2512C169.742 57.5831 166.725 55.9225 163.695 56.0303ZM161.982 73.4131C160.093 77.3136 157.319 80.8228 153.766 83.3245C162.689 83.2752 171.613 83.3307 180.536 83.2968C179.721 80.7889 177.949 78.6969 175.765 77.2643C173.28 75.7361 170.524 74.6085 168.364 72.5935C166.393 73.5332 164.126 73.8937 161.982 73.4131ZM102.541 76.6111C99.8676 78.0037 97.5884 80.3791 96.7087 83.306C105.589 83.3122 114.469 83.2968 123.349 83.3122C122.451 82.6806 121.666 81.9073 120.836 81.1956C118.434 79.0882 116.714 76.34 115.238 73.5363L115.081 73.4531C112.974 73.8321 110.753 73.5579 108.825 72.6182C106.954 74.2911 104.7 75.3818 102.541 76.6111ZM83.507 86.199C80.2035 87.3667 77.2629 89.3509 74.467 91.4274C62.5848 100.877 50.7181 110.345 38.8421 119.794C45.6644 131.785 52.5697 143.727 59.429 155.696C64.8118 155.699 70.1945 155.718 75.5804 155.705C76.9738 148.142 79.4007 140.784 82.738 133.861C82.9349 133.412 83.8146 133.51 83.6485 134.108C82.698 136.53 81.4338 138.825 80.6126 141.305C78.8255 145.963 77.4598 150.785 76.6078 155.709C92.1471 155.709 107.686 155.709 123.223 155.705C123.22 146.774 123.226 137.839 123.22 128.904C123.161 126.985 123.749 125.001 125.105 123.605C126.625 121.88 128.996 121.168 131.245 121.35C121.54 111.33 111.977 101.179 102.307 91.1286C100.132 88.8025 97.9575 86.4578 95.669 84.2488C91.5596 84.2858 87.3611 84.6771 83.507 86.199ZM97.0839 84.2519C108.908 96.6034 120.697 108.983 132.543 121.313C136.541 121.337 140.543 121.362 144.542 121.303L144.766 121.162C156.581 108.906 168.263 96.511 180.114 84.2858C176.875 84.3289 173.633 84.3073 170.391 84.2981C163.981 90.8975 157.642 97.5678 151.275 104.213C147.033 108.573 142.924 113.068 138.618 117.369C136.787 115.792 135.253 113.906 133.539 112.202C124.641 102.916 115.767 93.6057 106.865 84.3197C103.605 84.2611 100.341 84.3844 97.0839 84.2519ZM108.157 84.2519C118.311 94.8565 128.483 105.446 138.627 116.057C148.756 105.455 158.842 94.8134 169.044 84.2827C163.508 84.3844 157.956 84.1995 152.428 84.3751C149.832 85.7862 147.153 87.1418 144.216 87.6779C140.992 88.4605 137.609 88.4605 134.339 87.9952C130.912 87.4561 127.704 86.0696 124.718 84.3443C119.203 84.218 113.675 84.4059 108.157 84.2519ZM145.91 121.353C149.857 121.307 153.806 121.347 157.753 121.331C159.085 121.331 160.453 121.263 161.739 121.689C162.982 122.064 164.04 122.866 164.953 123.774C166.497 122.194 168.051 120.623 169.607 119.051C167.555 118.139 165.873 116.325 165.393 114.094C164.726 111.568 165.735 108.773 167.675 107.082C169.041 106.056 170.668 105.492 172.209 104.799C178.752 101.918 185.328 99.1083 191.855 96.1906C194.642 94.0555 196.973 91.2795 200.138 89.6405C197.536 88.1277 194.928 86.5164 192.003 85.6999C188.601 84.5785 185.002 84.2673 181.44 84.2211C169.564 96.5665 157.79 109.01 145.91 121.353ZM197.302 92.6999C195.361 94.4499 193.378 96.1567 191.544 98.0238C182.855 106.86 174.178 115.712 165.513 124.572C166.279 125.876 166.657 127.376 166.608 128.886C166.611 132.287 166.599 135.685 166.614 139.087C167.288 138.625 167.949 138.135 168.518 137.543C178.318 127.598 188.062 117.606 197.878 107.676C198.348 106.974 199.246 107.981 198.49 108.391C193.704 113.345 188.847 118.235 184.024 123.155C183.224 124.009 182.227 124.766 181.828 125.91C181.105 127.977 181.711 130.46 183.353 131.917C185.113 133.541 187.982 133.868 190.006 132.546C191.427 131.631 192.486 130.278 193.697 129.117C197.982 124.785 202.211 120.395 206.518 116.081C206.918 115.548 207.702 116.346 207.182 116.747C202.147 121.96 197.001 127.065 191.975 132.284C190.821 133.39 190.102 134.971 190.246 136.588C190.305 139.487 193.015 142.041 195.912 141.912C197.404 141.971 198.834 141.293 199.889 140.261C202.63 137.571 205.34 134.847 208.089 132.167C208.388 131.8 209.043 131.474 209.28 132.102C212.983 139.201 216.536 146.376 220.288 153.45C224.453 161.778 228.759 170.041 232.973 178.344C233.416 178.871 232.355 179.543 232.164 178.85C228.643 172.025 225.179 165.167 221.663 158.337C215.355 161.929 209.055 165.537 202.741 169.114C202.753 174.638 202.461 180.181 201.406 185.612C200.996 188.453 200.151 191.201 199.483 193.986C212.442 193.993 225.401 193.986 238.359 193.989C241.447 193.943 244.585 193.9 247.572 193.031C253.483 191.713 258.808 188.413 263.059 184.149C270.25 177.149 273.437 166.403 271.453 156.59C270.659 152.933 269.161 149.445 267.091 146.33C264.495 142.26 261.275 138.649 258.088 135.045C246.35 121.843 234.625 108.628 222.884 95.4327C221.568 94.1818 220.393 92.7522 218.855 91.7602C212.571 87.1387 203.18 87.5916 197.302 92.6999ZM190.462 97.8389C184.553 100.482 178.595 103.015 172.671 105.615C171.342 106.219 169.949 106.703 168.718 107.498C166.427 109.023 165.492 112.273 166.63 114.784C167.285 116.426 168.703 117.702 170.364 118.266C177.081 111.475 183.728 104.617 190.462 97.8389ZM18.6643 135.913C16.6188 137.543 14.558 139.185 12.8478 141.179C5.53641 149.365 2.92806 161.535 6.48378 171.958C9.99337 183.462 20.6575 192.31 32.555 193.761C35.6309 194.088 38.7252 193.962 41.8134 193.986C82.2182 193.965 122.626 193.928 163.031 193.912C166.307 193.675 168.992 190.416 168.681 187.15C168.475 184.115 165.799 181.413 162.72 181.404C157.371 181.287 152.016 181.431 146.667 181.333C145.966 181.17 146.378 180.187 146.99 180.409C152.108 180.378 157.23 180.418 162.351 180.393C163.56 180.406 164.741 180.017 165.793 179.438C168.208 177.928 169.379 174.66 168.315 171.982C167.577 169.872 165.424 168.476 163.255 168.257C160.309 168.008 157.35 168.393 154.4 168.196C151.945 168.125 149.488 168.251 147.036 168.14C146.55 168.143 146.538 167.142 147.095 167.25C150.029 167.157 152.97 167.253 155.907 167.213C156.455 167.241 156.962 167.016 157.433 166.754C164.452 162.89 171.502 159.082 178.521 155.216C181.188 153.771 182.252 150.073 180.825 147.408C180.136 145.899 178.736 144.811 177.165 144.355C175.39 143.724 173.477 144.346 171.892 145.209C163.732 149.664 155.566 154.103 147.405 158.558C146.772 158.894 146.163 159.292 145.483 159.526C144.96 159.8 144.585 158.91 144.939 158.583C146.809 156.047 148.762 153.573 150.669 151.066C151.745 149.713 152.859 148.234 153.007 146.447C153.314 143.57 151.047 140.717 148.217 140.264C146.104 140.048 143.887 140.914 142.61 142.642C139.045 147.288 135.536 151.974 131.986 156.633C97.4807 156.602 62.9724 156.682 28.464 156.642C28.4794 156.423 28.504 155.98 28.5194 155.758C29.4606 155.656 30.4111 155.702 31.3584 155.696C40.3523 155.699 49.3431 155.696 58.3339 155.699C51.5639 143.933 44.8308 132.145 38.0423 120.388C31.5922 125.577 25.1236 130.737 18.6643 135.913ZM124.198 128.307C124.164 137.438 124.195 146.574 124.186 155.709C126.625 155.702 129.067 155.721 131.506 155.696C134.819 151.266 138.178 146.869 141.506 142.451C142.576 141.059 144 139.817 145.763 139.447C148.46 138.714 151.475 140.039 152.927 142.396C154.434 144.639 154.286 147.837 152.659 149.978C150.709 152.612 148.691 155.197 146.719 157.816C153.025 154.374 159.349 150.964 165.642 147.498C165.642 141.105 165.661 134.712 165.633 128.319C165.633 125.974 164.141 123.731 161.991 122.813C160.958 122.345 159.804 122.283 158.691 122.292C149.174 122.314 139.657 122.271 130.14 122.311C126.96 122.289 124.155 125.121 124.198 128.307ZM180.646 126.563C176.802 130.509 172.938 134.435 169.078 138.366C168.38 139.096 167.512 139.626 166.62 140.076C166.587 142.383 166.627 144.691 166.599 147.002C168.198 146.121 169.804 145.252 171.406 144.374C172.52 143.798 173.67 143.194 174.95 143.135C176.497 142.886 177.983 143.536 179.315 144.254C180.705 145.076 181.588 146.537 182.101 148.034C182.923 150.425 182.16 153.213 180.363 154.96C179.422 155.918 178.192 156.5 177.032 157.138C173.56 159.03 170.09 160.922 166.62 162.813C166.617 164.656 166.568 166.498 166.633 168.34C167.823 169.45 169.1 170.67 169.429 172.346C170.204 175.189 168.98 178.366 166.614 180.073C166.608 180.649 166.614 181.225 166.645 181.801C169.275 183.591 170.367 187.245 169.189 190.197C168.62 191.743 167.445 192.964 166.134 193.916C176.928 193.906 187.721 193.919 198.514 193.909C199.166 191.158 200.028 188.456 200.415 185.649C201.735 178.739 202.042 171.656 201.516 164.646C201.452 161.627 200.763 158.676 200.474 155.681C200.378 155.191 200.987 155.286 201.264 155.145C202.036 159.406 202.482 163.716 202.697 168.042C208.865 164.529 215.023 161.008 221.19 157.495C217.04 149.3 212.869 141.117 208.671 132.946C206.059 135.491 203.46 138.055 200.852 140.603C199.978 141.45 199.009 142.257 197.816 142.587C194.986 143.548 191.637 142.192 190.169 139.607C189.111 137.901 189.053 135.719 189.708 133.855C188.265 134.287 186.672 134.61 185.214 134.056C182.111 133.147 180.074 129.742 180.646 126.563ZM158.639 167.179C160.973 167.305 163.489 166.797 165.658 167.906C165.636 166.381 165.645 164.853 165.652 163.328C163.329 164.637 160.961 165.87 158.639 167.179ZM165.224 180.67C165.122 181.089 165.292 181.228 165.728 181.096C165.83 180.667 165.661 180.526 165.224 180.67ZM137.516 62.7037C138.996 62.0228 140.888 63.1627 140.915 64.8141C141.211 66.8968 138.202 68.2586 136.821 66.7058C135.508 65.6213 136.065 63.3876 137.516 62.7037ZM144.059 62.7838C145.532 61.9427 147.615 63.1227 147.605 64.8419C147.851 66.8537 144.96 68.2525 143.573 66.749C142.25 65.7292 142.662 63.5355 144.059 62.7838ZM139.242 69.8546C139.116 68.6992 140.448 69.0073 141.174 68.9734C142.712 69.0042 144.754 68.69 145.683 70.2489C146.892 71.7586 145.84 74.248 143.979 74.5654C142.638 74.781 141.269 74.6578 139.916 74.6732C139.433 74.7348 138.996 74.2757 139.359 73.829C140.786 73.6287 142.235 73.866 143.668 73.7058C144.84 73.561 145.701 72.1067 145.092 71.0377C144.782 70.5016 144.262 69.9747 143.61 69.9439C142.158 69.833 140.697 69.9686 139.242 69.8546ZM136.243 77.1441C135.812 76.6573 134.828 75.9518 135.628 75.2955C136.92 76.3893 138.122 77.7326 139.845 78.1269C140.866 78.5614 142.05 78.2132 143.044 78.6846C142.973 78.8633 142.835 79.2238 142.764 79.4025C140.417 79.4579 137.916 78.9095 136.243 77.1441ZM165.728 181.096C165.83 180.667 165.661 180.526 165.224 180.67C165.122 181.089 165.292 181.228 165.728 181.096ZM12.7586 1.60826C15.6192 0.378958 18.7658 0.0369715 21.8509 0C36.2891 0.0154048 50.7242 -0.00616192 65.1593 0.0123238C69.5394 0.0677811 73.9933 1.20157 77.5398 3.86352C80.9325 6.41764 83.7838 9.84982 85.1895 13.8982C86.1215 16.5478 86.3922 19.3669 86.4137 22.1583C86.4014 32.3223 86.4198 42.4864 86.4075 52.6505C86.4844 53.4392 86.103 54.1232 85.5278 54.6223C85.1249 54.6962 84.725 54.7764 84.3252 54.8565C83.9222 54.6038 83.507 54.3666 83.1379 54.0677C78.4718 50.044 73.8333 45.9895 69.1641 41.975C54.1231 41.9688 39.0881 41.9719 24.0502 41.9719C21.1127 41.975 18.1137 42.0304 15.2716 41.1554C10.6793 39.7659 6.53915 36.8205 3.80777 32.8646C-1.92875 25.2762 -1.01522 13.6949 5.46874 6.83665C7.57572 4.70462 9.9257 2.69892 12.7586 1.60826ZM1.7377 16.2182C0.47351 21.5082 1.29785 27.3805 4.46908 31.8571C6.9544 35.5389 10.6701 38.3394 14.844 39.8183C17.5846 40.6532 20.4637 40.9151 23.3119 40.8751C38.7375 40.8627 54.16 40.8782 69.5855 40.8689C74.0086 44.6308 78.3549 48.485 82.7503 52.2777C83.4147 52.7953 83.956 53.6518 84.8727 53.698C85.4602 53.5008 85.2418 52.7552 85.3125 52.2962C85.2818 41.8702 85.3371 31.4412 85.2818 21.0183C85.2049 15.5804 83.0333 10.0871 78.8716 6.50082C75.2851 2.91151 70.1669 1.08758 65.1347 1.20774C50.2167 1.21082 35.2987 1.1646 20.3837 1.2293C11.7159 1.1492 3.59246 7.76401 1.7377 16.2182ZM24.2409 15.8207C26.9446 14.7485 30.2173 16.6649 30.6941 19.5117C31.3185 22.2568 29.1038 25.1745 26.3048 25.3316C23.7549 25.6243 21.2542 23.5601 21.0204 21.0121C20.7128 18.8031 22.1462 16.5417 24.2409 15.8207ZM24.5884 16.9206C21.894 17.7679 21.2757 21.7577 23.558 23.4091C25.6373 25.1745 29.2607 23.8127 29.5837 21.0799C30.1835 18.3563 27.1506 15.8392 24.5884 16.9206ZM41.8134 15.7468C44.4955 14.8502 47.636 16.7543 48.0513 19.561C48.6172 22.2106 46.5687 25.0205 43.8927 25.307C41.4258 25.7075 38.8636 23.899 38.433 21.4311C37.8762 19.028 39.4603 16.4123 41.8134 15.7468ZM42.1702 16.8374C41.1551 17.1363 40.257 17.8696 39.8294 18.8493C38.8421 20.8057 39.9832 23.3999 42.0748 24.0222C44.2925 24.8264 46.9132 23.0486 46.9778 20.6856C47.2423 18.1931 44.5448 16.0333 42.1702 16.8374ZM59.0506 15.7807C61.6313 14.8471 64.7195 16.5478 65.3254 19.2252C66.0513 21.7885 64.3073 24.6908 61.6959 25.2269C59.2598 25.8462 56.5407 24.278 55.8825 21.844C55.092 19.3946 56.5807 16.5139 59.0506 15.7807ZM59.4382 16.8621C57.848 17.3643 56.6853 19.0095 56.8298 20.6979C56.919 22.645 58.743 24.3211 60.6993 24.2071C62.837 24.1917 64.6518 22.0597 64.2919 19.94C64.0643 17.697 61.5636 16.1072 59.4382 16.8621Z" fill="black"/>
</svg>
