<svg width="43" height="43" viewBox="0 0 43 43" fill="none" xmlns="http://www.w3.org/2000/svg">
<path d="M26.8901 9.95288H15.3843C11.9797 9.95288 9.20972 12.7229 9.20972 16.1275C9.20972 19.5321 11.9797 22.3021 15.3843 22.3021H26.8901C30.2947 22.3021 33.0655 19.5314 33.0655 16.1275C33.0655 12.7236 30.2947 9.95288 26.8901 9.95288ZM26.8901 19.8326H15.3843C13.3414 19.8326 11.6793 18.1697 11.6793 16.1275C11.6793 14.0853 13.3414 12.4224 15.3843 12.4224H26.8901C28.933 12.4224 30.5952 14.0846 30.5952 16.1275C30.5952 18.1704 28.933 19.8326 26.8901 19.8326ZM26.8901 14.8935C26.2089 14.8935 25.6553 15.4455 25.6553 16.1282C25.6553 16.811 26.2089 17.363 26.8901 17.363C27.5713 17.363 28.1256 16.8102 28.1256 16.1282C28.1256 15.4463 27.5721 14.8935 26.8901 14.8935ZM15.3843 14.8935C14.7024 14.8935 14.1488 15.4455 14.1488 16.1282C14.1488 16.811 14.7024 17.363 15.3843 17.363C16.0663 17.363 16.6191 16.8102 16.6191 16.1282C16.6191 15.4463 16.0656 14.8935 15.3843 14.8935ZM26.8901 9.95288H15.3843C11.9797 9.95288 9.20972 12.7229 9.20972 16.1275C9.20972 19.5321 11.9797 22.3021 15.3843 22.3021H26.8901C30.2947 22.3021 33.0655 19.5314 33.0655 16.1275C33.0655 12.7236 30.2947 9.95288 26.8901 9.95288ZM26.8901 19.8326H15.3843C13.3414 19.8326 11.6793 18.1697 11.6793 16.1275C11.6793 14.0853 13.3414 12.4224 15.3843 12.4224H26.8901C28.933 12.4224 30.5952 14.0846 30.5952 16.1275C30.5952 18.1704 28.933 19.8326 26.8901 19.8326ZM26.8901 14.8935C26.2089 14.8935 25.6553 15.4455 25.6553 16.1282C25.6553 16.811 26.2089 17.363 26.8901 17.363C27.5713 17.363 28.1256 16.8102 28.1256 16.1282C28.1256 15.4463 27.5721 14.8935 26.8901 14.8935ZM15.3843 14.8935C14.7024 14.8935 14.1488 15.4455 14.1488 16.1282C14.1488 16.811 14.7024 17.363 15.3843 17.363C16.0663 17.363 16.6191 16.8102 16.6191 16.1282C16.6191 15.4463 16.0656 14.8935 15.3843 14.8935ZM34.2304 0.251953H8.05532C3.60668 0.251953 0 3.85863 0 8.30727V34.4823C0 38.931 3.60668 42.5377 8.05532 42.5377H34.2304C38.679 42.5377 42.2857 38.931 42.2857 34.4823V8.30727C42.2857 3.85863 38.679 0.251953 34.2304 0.251953ZM6.99254 8.28849C6.99254 7.71392 7.45896 7.2475 8.03353 7.2475H34.2417C34.8155 7.2475 35.2819 7.71392 35.2819 8.28849V23.8974C35.2819 24.4712 34.8155 24.9376 34.2417 24.9376H14.0835L8.76959 30.2523C8.57056 30.4513 8.30392 30.5565 8.03353 30.5565C7.89834 30.5565 7.7639 30.5309 7.63471 30.4776C7.24565 30.3169 6.99254 29.9376 6.99254 29.5162V8.28849ZM39.6757 37.2238C37.9858 39.8526 35.8227 40.9416 32.5555 40.9416H9.39449C9.17818 40.9416 8.96187 40.9341 8.74631 40.9161C7.64898 40.8305 6.5464 40.5939 5.57676 40.0779C4.64091 39.5814 3.91988 38.9408 3.24841 38.1251C1.59679 36.1099 2.96676 32.9689 5.58953 32.9689H33.7948C36.6631 32.9689 39.2634 31.4668 40.6897 29.2248C40.6897 32.5671 41.0449 35.0945 39.6757 37.2238ZM15.3843 22.3021H26.8901C30.2947 22.3021 33.0655 19.5314 33.0655 16.1275C33.0655 12.7236 30.2947 9.95288 26.8901 9.95288H15.3843C11.9797 9.95288 9.20972 12.7229 9.20972 16.1275C9.20972 19.5321 11.9797 22.3021 15.3843 22.3021ZM15.3843 12.4224H26.8901C28.933 12.4224 30.5952 14.0846 30.5952 16.1275C30.5952 18.1704 28.933 19.8326 26.8901 19.8326H15.3843C13.3414 19.8326 11.6793 18.1697 11.6793 16.1275C11.6793 14.0853 13.3414 12.4224 15.3843 12.4224ZM26.8901 17.363C27.5721 17.363 28.1256 16.8102 28.1256 16.1282C28.1256 15.4463 27.5721 14.8935 26.8901 14.8935C26.2081 14.8935 25.6553 15.4455 25.6553 16.1282C25.6553 16.811 26.2089 17.363 26.8901 17.363ZM15.3843 17.363C16.0656 17.363 16.6191 16.8102 16.6191 16.1282C16.6191 15.4463 16.0656 14.8935 15.3843 14.8935C14.7031 14.8935 14.1488 15.4455 14.1488 16.1282C14.1488 16.811 14.7024 17.363 15.3843 17.363ZM29.8103 34.2195V39.0865L26.7745 37.2996L23.8408 39.0264V34.2195H29.8103Z" fill="#34AE72"/>
</svg>
