<svg width="20" height="20" viewBox="0 0 20 20" fill="none" xmlns="http://www.w3.org/2000/svg">
<path d="M16.6699 0H14.7699C12.5899 0 11.4399 1.15 11.4399 3.33V5.23C11.4399 7.41 12.5899 8.56 14.7699 8.56H16.6699C18.8499 8.56 19.9999 7.41 19.9999 5.23V3.33C19.9999 1.15 18.8499 0 16.6699 0Z" fill="white"/>
<path d="M5.24 11.4302H3.34C1.15 11.4302 0 12.5802 0 14.7602V16.6602C0 18.8502 1.15 20.0002 3.33 20.0002H5.23C7.41 20.0002 8.56 18.8502 8.56 16.6702V14.7702C8.57 12.5802 7.42 11.4302 5.24 11.4302Z" fill="white"/>
<path d="M4.29 8.58C6.6593 8.58 8.58 6.6593 8.58 4.29C8.58 1.9207 6.6593 0 4.29 0C1.9207 0 0 1.9207 0 4.29C0 6.6593 1.9207 8.58 4.29 8.58Z" fill="white"/>
<path d="M15.7099 19.9999C18.0792 19.9999 19.9999 18.0792 19.9999 15.7099C19.9999 13.3406 18.0792 11.4199 15.7099 11.4199C13.3406 11.4199 11.4199 13.3406 11.4199 15.7099C11.4199 18.0792 13.3406 19.9999 15.7099 19.9999Z" fill="white"/>
</svg>
