<svg width="22" height="22" viewBox="0 0 22 22" fill="none" xmlns="http://www.w3.org/2000/svg">
<path d="M2.86149 14.3598L2.86149 16.7078C2.86149 18.0395 3.94784 19.1258 5.27947 19.1258H7.62751L9.29201 20.7903C9.74759 21.2459 10.3609 21.5 11.0005 21.5C11.64 21.5 12.2533 21.2459 12.7089 20.7903L14.3734 19.1258H16.7214C18.0531 19.1258 19.1394 18.0395 19.1394 16.7078V14.3598L20.8039 12.6953C21.2595 12.2397 21.5136 11.6264 21.5136 10.9868C21.5136 10.3473 21.2595 9.73398 20.8039 9.27855L19.1394 7.6139V5.26602C19.1394 3.93423 18.0531 2.84788 16.7214 2.84788L14.3734 2.84788L12.7089 1.18338C11.7977 0.272206 10.2032 0.272206 9.29201 1.18338L7.62751 2.84788L5.27947 2.84788C3.94784 2.84788 2.86149 3.93423 2.86149 5.26602L2.86149 7.6139L1.19699 9.27855C0.741407 9.73398 0.487305 10.3473 0.487305 10.9868C0.487305 11.6264 0.741407 12.2397 1.19699 12.6953L2.86149 14.3598ZM11.0005 5.73027C11.3596 5.73027 11.6575 6.02816 11.6575 6.38734V15.5864C11.6575 15.9455 11.3596 16.2434 11.0005 16.2434C7.95171 16.2434 5.74388 14.0358 5.74388 10.9868C5.74388 7.9381 7.95171 5.73027 11.0005 5.73027Z" fill="#24282E"/>
</svg>
