<svg width="16" height="16" viewBox="0 0 16 16" fill="none" xmlns="http://www.w3.org/2000/svg">
<g clip-path="url(#clip0_385_4632)">
<path fill-rule="evenodd" clip-rule="evenodd" d="M4.9512 0.888672C4.54761 0.891005 4.16122 1.05236 3.87584 1.33775C3.59045 1.62313 3.42909 2.00953 3.42676 2.41312V12.062H9.01787C9.26509 12.0631 9.50353 12.1538 9.68903 12.3172C9.87453 12.4807 9.99451 12.7058 10.0268 12.9509V13.0664C10.0273 13.1995 10.0541 13.3312 10.1056 13.4539C10.1571 13.5766 10.2322 13.688 10.3267 13.7817C10.4212 13.8754 10.5332 13.9495 10.6564 13.9999C10.7796 14.0503 10.9115 14.0759 11.0445 14.0753C11.1781 14.0771 11.3107 14.0521 11.4344 14.0019C11.5582 13.9516 11.6706 13.877 11.7651 13.7825C11.8595 13.6881 11.9341 13.5757 11.9844 13.4519C12.0347 13.3281 12.0597 13.1956 12.0579 13.062V1.90645C12.0592 1.54835 12.1559 1.19707 12.3379 0.888672H4.9512ZM6.47565 2.91978H8.50676C8.57758 2.91316 8.64901 2.92139 8.71647 2.94395C8.78393 2.96651 8.84594 3.0029 8.89853 3.0508C8.95112 3.0987 8.99314 3.15705 9.02188 3.22212C9.05063 3.28719 9.06548 3.35754 9.06548 3.42867C9.06548 3.49981 9.05063 3.57016 9.02188 3.63522C8.99314 3.70029 8.95112 3.75864 8.89853 3.80654C8.84594 3.85444 8.78393 3.89083 8.71647 3.91339C8.64901 3.93596 8.57758 3.94419 8.50676 3.93756H6.47565C6.34889 3.9257 6.23112 3.86696 6.14539 3.77284C6.05966 3.67871 6.01215 3.55598 6.01215 3.42867C6.01215 3.30136 6.05966 3.17863 6.14539 3.08451C6.23112 2.99038 6.34889 2.93164 6.47565 2.91978ZM9.52454 9.52423H5.46231C5.3954 9.52481 5.32904 9.51214 5.26706 9.48694C5.20507 9.46174 5.14869 9.42451 5.10117 9.37741C5.05365 9.3303 5.01593 9.27425 4.99019 9.21249C4.96445 9.15072 4.9512 9.08447 4.9512 9.01756C4.95236 8.88236 5.00658 8.75303 5.10219 8.65743C5.19779 8.56183 5.32712 8.50761 5.46231 8.50645H9.52454C9.65932 8.50762 9.78818 8.56199 9.88308 8.65771C9.97797 8.75344 10.0312 8.88277 10.0312 9.01756C10.0318 9.08426 10.0191 9.15041 9.99384 9.21215C9.96859 9.27389 9.93129 9.32998 9.88412 9.37715C9.83696 9.42432 9.78087 9.46161 9.71913 9.48687C9.65739 9.51212 9.59124 9.52482 9.52454 9.52423ZM9.52454 6.982H5.46231C5.39578 6.982 5.32989 6.9689 5.26842 6.94344C5.20695 6.91797 5.15109 6.88065 5.10405 6.83361C5.057 6.78656 5.01968 6.7307 4.99421 6.66923C4.96875 6.60776 4.95565 6.54187 4.95565 6.47534C4.95565 6.4088 4.96875 6.34292 4.99421 6.28145C5.01968 6.21997 5.057 6.16412 5.10405 6.11707C5.15109 6.07002 5.20695 6.0327 5.26842 6.00724C5.32989 5.98178 5.39578 5.96867 5.46231 5.96867H9.52454C9.65891 5.96867 9.78778 6.02205 9.8828 6.11707C9.97782 6.21209 10.0312 6.34096 10.0312 6.47534C10.0312 6.60971 9.97782 6.73859 9.8828 6.83361C9.78778 6.92862 9.65891 6.982 9.52454 6.982Z" fill="#24282E"/>
<path fill-rule="evenodd" clip-rule="evenodd" d="M15.1105 1.90653V7.4932H13.0794V1.90653C13.0702 1.76752 13.0896 1.62809 13.1365 1.49689C13.1833 1.3657 13.2567 1.24552 13.3519 1.14381C13.4471 1.04209 13.5621 0.961005 13.69 0.905571C13.8178 0.850136 13.9556 0.821533 14.0949 0.821533C14.2342 0.821533 14.3721 0.850136 14.4999 0.905571C14.6277 0.961005 14.7428 1.04209 14.838 1.14381C14.9332 1.24552 15.0065 1.3657 15.0534 1.49689C15.1002 1.62809 15.1197 1.76752 15.1105 1.90653Z" fill="#24282E"/>
<path fill-rule="evenodd" clip-rule="evenodd" d="M11.0487 15.1109H2.41312C2.21272 15.1115 2.01419 15.0725 1.82887 14.9962C1.64355 14.92 1.47509 14.8079 1.33312 14.6665C1.04885 14.3771 0.889301 13.9877 0.888672 13.5821V13.0798H9.01756C9.0199 13.6178 9.23464 14.1331 9.61504 14.5135C9.99544 14.8939 10.5107 15.1086 11.0487 15.1109Z" fill="#24282E"/>
</g>
<defs>
<clipPath id="clip0_385_4632">
<rect width="16" height="16" fill="white" transform="translate(0 -0.000244141)"/>
</clipPath>
</defs>
</svg>
