<svg width="17" height="17" viewBox="0 0 17 17" fill="none" xmlns="http://www.w3.org/2000/svg">
<path d="M8.00488 16.8279C3.5866 16.8279 0.00488281 13.2461 0.00488281 8.82788C0.00488281 4.4096 3.5866 0.827881 8.00488 0.827881C12.4231 0.827881 16.0049 4.4096 16.0049 8.82788C16 13.2441 12.4211 16.823 8.00488 16.8279ZM7.20488 12.8279V14.4279H8.80488V12.8279H7.20488ZM8.00488 4.82788C8.88856 4.82788 9.60488 5.54422 9.60488 6.42788C9.60768 6.85247 9.4372 7.2598 9.13288 7.55588L8.14088 8.56388C7.542 9.16524 7.20552 9.97916 7.20488 10.8279V11.2279H8.80488C8.74272 10.3679 9.0896 9.52892 9.74088 8.96388L10.4609 8.22788C10.9394 7.75132 11.2073 7.10317 11.2049 6.42788C11.2049 4.66057 9.77216 3.22788 8.00488 3.22788C6.23757 3.22788 4.80488 4.66057 4.80488 6.42788H6.40488C6.40488 5.54422 7.1212 4.82788 8.00488 4.82788Z" fill="black"/>
</svg>
