<svg id="Icon_-_Menu" data-name="Icon - Menu" xmlns="http://www.w3.org/2000/svg" width="24" height="24" viewBox="0 0 24 24">
  <rect id="Icon_area" data-name="Icon area" width="24" height="24" fill="red" opacity="0"/>
  <path id="Menu" d="M15.36,2.4H.64A.642.642,0,0,1,0,1.76V.64A.642.642,0,0,1,.64,0H15.36A.642.642,0,0,1,16,.64V1.76A.642.642,0,0,1,15.36,2.4ZM12.8,15.36V14.24a.642.642,0,0,0-.64-.64H.64a.642.642,0,0,0-.64.64v1.12A.642.642,0,0,0,.64,16H12.16A.642.642,0,0,0,12.8,15.36Zm0-6.8V7.44a.642.642,0,0,0-.64-.64H.64A.642.642,0,0,0,0,7.44V8.56a.642.642,0,0,0,.64.64H12.16A.642.642,0,0,0,12.8,8.56Z" transform="translate(4 4)" fill="#2d3436"/>
</svg>
