<svg width="16" height="20" viewBox="0 0 16 20" fill="none" xmlns="http://www.w3.org/2000/svg">
<path d="M8.00152 19.75C9.10152 19.75 10.0015 18.85 10.0015 17.75H6.00152C6.00152 18.85 6.89152 19.75 8.00152 19.75ZM14.0015 13.75V8.75C14.0015 5.68 12.3615 3.11 9.50152 2.43V1.75C9.50152 0.92 8.83152 0.25 8.00152 0.25C7.17152 0.25 6.50152 0.92 6.50152 1.75V2.43C3.63152 3.11 2.00152 5.67 2.00152 8.75L2.00152 13.75L0.711516 15.04C0.0815163 15.67 0.521516 16.75 1.41152 16.75L14.5815 16.75C15.4715 16.75 15.9215 15.67 15.2915 15.04L14.0015 13.75Z" fill="#24282E"/>
</svg>
