<svg width="17" height="17" viewBox="0 0 17 17" fill="none" xmlns="http://www.w3.org/2000/svg">
<path d="M14.7398 9.62622V15.2262C14.7398 15.4384 14.6556 15.6419 14.5055 15.7919C14.3555 15.9419 14.152 16.0262 13.9398 16.0262H2.73984C2.52767 16.0262 2.32419 15.9419 2.17416 15.7919C2.02413 15.6419 1.93984 15.4384 1.93984 15.2262V9.62622H14.7398ZM10.3398 0.826224C10.8124 0.826062 11.2772 0.945484 11.6912 1.17337C12.1051 1.40125 12.4546 1.73018 12.7072 2.12953C12.9598 2.52888 13.1072 2.98565 13.1357 3.45731C13.1642 3.92896 13.0729 4.40016 12.8702 4.82702L15.5398 4.82622C15.752 4.82622 15.9555 4.91051 16.1055 5.06054C16.2556 5.21057 16.3398 5.41405 16.3398 5.62622V8.02622C16.3398 8.2384 16.2556 8.44188 16.1055 8.59191C15.9555 8.74194 15.752 8.82622 15.5398 8.82622H1.13984C0.927671 8.82622 0.724187 8.74194 0.574158 8.59191C0.424129 8.44188 0.339844 8.2384 0.339844 8.02622V5.62622C0.339844 5.41405 0.424129 5.21057 0.574158 5.06054C0.724187 4.91051 0.927671 4.82622 1.13984 4.82622L3.80944 4.82702C3.52445 4.22836 3.46115 3.54799 3.6308 2.90702C3.80046 2.26606 4.19207 1.7061 4.73592 1.32683C5.27977 0.947553 5.94057 0.77358 6.60067 0.835878C7.26077 0.898176 7.87735 1.1927 8.34064 1.66702C8.60067 1.40024 8.9116 1.18837 9.255 1.04394C9.59841 0.899516 9.96731 0.825481 10.3398 0.826224ZM6.33984 2.42622C6.03167 2.42638 5.73537 2.54508 5.51233 2.75775C5.2893 2.97042 5.15663 3.26074 5.14182 3.56856C5.12701 3.87637 5.2312 4.17809 5.43278 4.41119C5.63437 4.64428 5.91791 4.79089 6.22464 4.82062L6.33984 4.82622H7.53984V3.62622C7.53983 3.32792 7.42871 3.04031 7.22815 2.81949C7.02759 2.59867 6.75197 2.46046 6.45504 2.43182L6.33984 2.42622ZM10.3398 2.42622L10.2246 2.43182C9.94734 2.45839 9.68793 2.58061 9.49088 2.77751C9.29382 2.97442 9.17142 3.23374 9.14464 3.51102L9.13984 3.62622V4.82622H10.3398L10.455 4.82062C10.7519 4.79185 11.0273 4.65358 11.2278 4.43277C11.4282 4.21197 11.5392 3.92444 11.5392 3.62622C11.5392 3.32801 11.4282 3.04048 11.2278 2.81967C11.0273 2.59887 10.7519 2.4606 10.455 2.43182L10.3398 2.42622Z" fill="black"/>
</svg>
