<svg width="25" height="24" viewBox="0 0 25 24" fill="none" xmlns="http://www.w3.org/2000/svg">
<g clip-path="url(#clip0_666_824)">
<path d="M21.697 14.1562C19.9969 14.1562 19.2352 15.7141 18.8942 16.1023C18.5903 15.756 17.8046 14.1562 16.0907 14.1562C14.418 14.1562 13.25 15.3126 13.25 16.9688C13.25 19.4877 16.4012 21.8046 18.8922 24L18.8935 23.9993C21.2321 21.9747 24.5 19.6534 24.5 17.1995C24.5 15.4931 23.2688 14.1562 21.697 14.1562Z" fill="#101520"/>
<path d="M0.5 1.40625C0.5 2.18298 1.12952 2.8125 1.90625 2.8125H16.0625V0H1.90625C1.12952 0 0.5 0.629517 0.5 1.40625Z" fill="#101520"/>
<path d="M3.3125 21.1875V4.21875H1.90625C1.39172 4.21875 0.915283 4.06989 0.5 3.82764V18.375C0.5 19.9283 1.75922 21.1875 3.3125 21.1875Z" fill="#101520"/>
<path d="M16.0907 12.75C16.6111 12.75 17.0604 12.8606 17.4688 13.0148V4.21875H4.71875V21.1875H13.7761C12.6459 19.9039 11.8438 18.5294 11.8438 16.9688C11.8438 14.5243 13.6298 12.75 16.0907 12.75ZM6.82812 8.4375V7.03125H15.3594V8.4375H6.82812Z" fill="#101520"/>
</g>
<defs>
<clipPath id="clip0_666_824">
<rect width="24" height="24" fill="white" transform="translate(0.5)"/>
</clipPath>
</defs>
</svg>
